<?xml version="1.0" encoding="utf-8"?>
<!-- Generator: Adobe Illustrator 12.0.1, SVG Export Plug-In . SVG Version: 6.00 Build 51448)  -->
<!DOCTYPE svg PUBLIC "-//W3C//DTD SVG 1.1//EN" "http://www.w3.org/Graphics/SVG/1.1/DTD/svg11.dtd" [
	<!ENTITY ns_svg "http://www.w3.org/2000/svg">
	<!ENTITY ns_xlink "http://www.w3.org/1999/xlink">
]>
<svg  version="1.1" id="Layer_1" xmlns="&ns_svg;" xmlns:xlink="&ns_xlink;" width="348.032" height="398.254"
	 viewBox="0 0 348.032 398.254" overflow="visible" enable-background="new 0 0 348.032 398.254" xml:space="preserve">
<g>
	<path fill-rule="evenodd" clip-rule="evenodd" d="M213.656,155.045c4.895,3.826,12.058,0.924,16.796,2.016
		c8.25,1.9,9.411,10.649,14.108,17.468c-1.665,10.693-0.21,18.816-4.03,31.576c14.501,18.194,32.206,37.237,48.372,58.45
		c7.709,10.116,15.295,20.344,23.514,30.232c4.062,4.886,8.761,9.185,12.766,14.108c4.015,4.937,6.751,11.032,10.749,15.452
		c2.754,3.044,6.303,4.073,8.062,8.733c2.526,6.688,2.147,15.145,3.359,25.53c1.201,10.288,2.229,24.323-10.077,22.842
		c-0.425,13.359-13.312,16.961-26.202,16.796c-6.353-0.081-17.252-0.456-20.154-3.358c-6.836-6.836-1.405-14.216-5.375-21.499
		c-9.208,0.329-21.4-5.082-20.155-17.468c-8.819-2.118-17.438-3.36-22.842-4.031c-1.521-3.629-3.513-6.789-3.359-12.093
		c-3.189-3.081-9.838-2.703-13.437-5.375c0.004-9.304,3.991-17.359,0-24.186c-4.752-8.126-15.229-7.586-23.515-12.765
		c2.25-12.762-0.433-26.937-14.108-23.515c-7.922-8.426-15.169-17.527-21.499-27.545c-5.738,2.466-12.326,2.196-18.139,0
		c-7.528-4.992-9.549-14.843-15.453-22.171c-7.896-9.801-19.275-19.6-32.92-22.171c-12.851-2.421-35.349,2.096-52.403-0.672
		c-8.3-1.346-18.624-3.823-25.53-8.062c-14.678-9.01-22.553-30.328-22.17-48.372c0.477-22.526,13.424-35.955,16.124-55.091
		C13.532,69.39,6.116,43.06,23.527,18.663C33.081,5.276,54.024-4.183,79.29,1.867c10.659,2.552,19.245,9.732,30.232,10.75
		c14.119,1.307,26.518-3.475,40.31-1.344c6.407,0.99,17.307,3.729,22.843,6.718c17.152,9.263,32.838,22.736,42.325,36.951
		c6.795,14.375,9.9,24.941,5.375,42.326c-2.416,9.283-7.397,15.749-10.077,24.858c-1.392,4.73-4.125,9.526-4.031,12.765
		C206.482,142.376,212.1,147.748,213.656,155.045z M200.892,153.702c-22.868-27.112,15.696-61.452,8.062-94.729
		c-6.54-13.461-19.762-22.097-31.576-30.232c-1.227-0.845-2.187-2.597-3.359-3.359c-21.715-14.122-41.295-5.853-69.871-8.062
		C93.934,16.53,87.135,11.668,79.29,8.585c-9.839-3.866-19.638-2.974-30.232-1.344C37.953,14.365,23.599,22.197,24.199,36.13
		c0.43,9.986,8.951,19.483,8.734,30.904c-3.464,27.894-27.43,52.86-23.514,83.979c6.358,17.093,17.829,37.452,38.294,39.638
		c6.974,0.745,12.436,0.49,18.812,0c12.107-0.931,23.91-8.797,38.966-6.718c13.083,1.807,24.327,11.416,28.889,20.155
		c2.928,5.609,4.706,7.837,7.39,13.437c5.629,11.742,6.545,26.472,22.843,16.796c7.97,7.931,14.124,17.678,21.499,26.202
		c2.03-10.25,17.738-11.124,22.843-3.359c4.339,6.601,2.193,17.948,3.358,26.873c14.938-1.315,34.966,12.555,28.218,34.936
		c3.6,4.91,7.483,9.536,9.405,16.124c8.037,0.09,13.765-1.597,21.499,2.016c1.714,6.309,1.166,8.546,2.688,13.437
		c6.981,1.764,11.819,1.51,20.154,3.359c-38.018-54.021-85.381-98.702-122.945-153.179c-3.983-7.438-8.695-14.147-14.78-19.483
		c-4.258,3.132-8.812,5.969-12.093,10.078c14.161,21.67,29.661,42.002,45.013,62.48c-8.334-3.087-11.016-11.827-16.124-18.14
		c-5.974-5.672-9.651-13.639-15.452-19.483c-4.895-9.662-12.907-16.205-17.468-26.201c5.111-3.847,10.25-7.666,14.78-12.093
		c-7.612-10.642-19.132-21.833-18.14-36.951c-19.521,14.924-47.262,30.568-75.917,24.858c-2.472-1.559-5.097-2.964-8.734-3.359
		c-14.561-17.71-18.362-41.708-8.734-61.809c4.199-8.766,12.42-8.996,21.499-12.093c18.341-6.256,31.881-20.508,40.982-34.263
		c0.203-4.647,0.147-5.565,1.344-9.406c19.649-4.381,34.438-5.968,53.075,5.375c5.78,6.965,12.535,11.588,15.453,20.155
		c8.375,24.596-15.432,48.531-27.545,63.152c3.07,5.215,9.28,7.292,12.093,12.765c16.595,12.827,28.037,30.876,40.31,47.701
		c12.272,16.823,25.859,33.038,38.295,49.716c25.208,33.808,51.848,66.182,78.604,98.088c2.468,4.64,6.734,9.634,10.749,14.108
		c3.547,3.952,8.284,11.671,12.094,10.749c-0.238-5.417-2.719-21.422-4.703-31.576c-28.586-32.519-55.406-71.044-85.323-105.478
		c-4.228-4.866-9.807-10.305-14.78-16.796c-3.904-5.096-13.25-13.786-14.108-18.14c-3.1-15.718,20.304-22.658,6.047-31.577
		C218.984,165.269,206.938,160.869,200.892,153.702z M22.855,56.957c1.198,6.366,1.271,14.427,5.375,18.812
		c2.948-13.466-0.521-23.585-6.046-34.936C19.75,47.514,21.982,52.314,22.855,56.957z M144.458,46.88
		c-7.442-2.185-23.813-0.745-30.904,5.375c-4.495,3.879-6.111,12.186-10.75,17.468c-0.871,0.992-2.84,1.539-4.031,2.687
		c-7.93,7.647-18.246,15.424-28.889,19.483c-5.573,2.125-11.582,1.774-15.452,5.375c-6.414,5.967-8.902,25.063-8.062,36.279
		c0.56,7.468,2.946,20.325,6.718,24.858c5.089,6.115,27.036,6.278,32.92,5.375c16.969-2.606,32.628-12.606,45.685-22.17
		c13.524-9.907,25.696-21.329,34.263-33.592C180.422,80.958,169.896,54.348,144.458,46.88z M196.188,127.5
		c7.651-15.91,25.282-37.069,15.452-58.45C212.785,91.979,199.014,105.885,196.188,127.5z M325.854,355.924
		c-30.701-38.469-62.52-75.772-92.042-114.884c-22.446-29.736-43.888-60.003-67.855-88.01c-4.379-1.893-6.552-4.948-10.749-8.734
		c-2.74-2.472-7.888-9.031-12.093-8.062c-6.067,1.397-3.227,13.018-2.015,16.124c5.137,13.175,18.795,27.446,26.873,38.294
		c9.312,12.507,20.048,28.774,27.545,39.639c43.878,50.403,86.709,101.853,127.649,155.193c5.909-4.145-1.765-10.136-4.031-14.108
		c-3.742-4.319-6.604-9.52-11.421-12.765c-36.698-46.663-77.2-92.771-112.868-140.414c-12.206-16.302-25.34-31.738-36.951-47.7
		c-5.746-7.897-14.797-20.249-13.437-30.232c5.635,2.891,10.894,6.965,14.78,11.421c6.173,7.076,11.808,15.797,17.468,23.514
		c39.261,53.526,84.062,103.047,122.945,156.537c8.669,10.72,18.401,22.49,26.873,32.92c2.663,3.278,5.464,8.507,10.078,8.734
		C336.957,365.953,329.775,360.839,325.854,355.924z M153.863,156.389c11.538,19.814,25.71,36.994,40.982,53.075
		c14.26,18.884,28.65,37.637,42.325,57.105c16.106,16.362,30.521,35.901,45.685,54.419c13.045,15.932,27.688,32.159,40.311,47.7
		c1.102,1.356,3.306,5.565,6.046,4.031c-6.933-11.275-16.419-20.988-24.857-31.576c-13.444-16.868-27.216-34.146-39.639-51.06
		c-4.764-6.486-9.639-13.405-14.78-19.483c-27.239-32.207-51.572-62.943-77.261-96.744c-3.701-4.869-12.311-18.562-16.124-19.483
		c-0.981-0.237-2.345-0.308-3.359,0.672C153.715,155.193,153.973,155.608,153.863,156.389z M75.259,197.371
		c6.866-0.748,14.566-3.732,21.499-4.031c9.489-0.41,22.825,3.864,32.248,8.733c-6.141-8.311-14.275-14.168-24.858-15.452
		c-18.212-2.21-36.195,9.972-57.778,6.718c-19.085-2.878-28.133-17.652-36.279-32.92C13.749,193.53,54.344,199.648,75.259,197.371z
		 M228.437,198.714c0.396-6.728,4.096-16.658,3.359-24.186C228.199,179.803,219.34,193.129,228.437,198.714z M190.143,261.195
		c8.052-0.886,13.319,1.012,18.14,3.359c-1.629-8.474-6.955-10.101-16.796-9.406C190.983,257.579,188.835,258.765,190.143,261.195z
		 M211.641,288.74c13.495,4.829,25.629,12.432,24.858,29.561C247.316,304.854,226.458,280.9,211.641,288.74z M235.155,327.035
		c5.407,1.535,8.195,5.689,11.421,9.405C246.938,328.734,239.495,318.062,235.155,327.035z M249.936,338.456
		c2.808,7.685,12.863,5.246,20.155,7.391c0.918-1.991-0.394-2.926,0-6.047C264.764,337.191,259.327,337.405,249.936,338.456z
		 M289.574,363.985c0.821-3.622-0.111-3.242,0.672-7.39c-3.7-3.257-11.541-1.139-14.78-3.359
		C274.092,361.019,283.216,361.938,289.574,363.985z M294.948,379.438c7.53-0.193,7.857-1.38,18.14-1.344
		c-5.724-7.938-11.153-16.168-18.14-22.843C289.906,361.645,293.893,368.362,294.948,379.438z M294.948,382.125
		c-0.288,3.199,0.8,5.024,2.016,6.719c11.778-0.573,15.608,1.291,22.171-2.688C313.951,377.347,305.064,382.053,294.948,382.125z"/>
	<path fill-rule="evenodd" clip-rule="evenodd" fill="#B1953A" d="M227.766,163.107c14.257,8.918-9.146,15.858-6.047,31.577
		c0.858,4.354,10.204,13.044,14.108,18.14c4.974,6.491,10.553,11.93,14.78,16.796c29.917,34.434,56.737,72.959,85.323,105.478
		c1.984,10.154,4.465,26.159,4.703,31.576c-3.81,0.922-8.547-6.797-12.094-10.749c-4.015-4.475-8.281-9.469-10.749-14.108
		c-26.757-31.906-53.396-64.28-78.604-98.088c-12.436-16.678-26.022-32.893-38.295-49.716
		c-12.273-16.825-23.715-34.874-40.31-47.701c-2.812-5.473-9.022-7.549-12.093-12.765c12.114-14.622,35.92-38.556,27.545-63.152
		c-2.917-8.567-9.673-13.19-15.453-20.155c-18.637-11.342-33.426-9.755-53.075-5.375c-1.196,3.84-1.141,4.759-1.344,9.406
		c-9.101,13.755-22.641,28.007-40.982,34.263c-9.079,3.097-17.3,3.327-21.499,12.093c-9.628,20.101-5.827,44.099,8.734,61.809
		c3.637,0.395,6.262,1.8,8.734,3.359c28.655,5.71,56.396-9.934,75.917-24.858c-0.993,15.118,10.527,26.309,18.14,36.951
		c-4.53,4.427-9.669,8.246-14.78,12.093c4.561,9.996,12.573,16.539,17.468,26.201c5.801,5.845,9.479,13.812,15.452,19.483
		c5.108,6.312,7.79,15.053,16.124,18.14c-15.353-20.479-30.852-40.811-45.013-62.48c3.281-4.109,7.835-6.946,12.093-10.078
		c6.085,5.336,10.797,12.045,14.78,19.483c37.564,54.477,84.928,99.158,122.945,153.179c-8.335-1.85-13.173-1.596-20.154-3.359
		c-1.521-4.891-0.974-7.128-2.688-13.437c-7.734-3.612-13.462-1.926-21.499-2.016c-1.922-6.588-5.806-11.214-9.405-16.124
		c6.748-22.381-13.28-36.251-28.218-34.936c-1.165-8.925,0.98-20.272-3.358-26.873c-5.104-7.765-20.812-6.891-22.843,3.359
		c-7.375-8.524-13.529-18.271-21.499-26.202c-16.298,9.676-17.213-5.054-22.843-16.796c-2.684-5.6-4.462-7.827-7.39-13.437
		c-4.562-8.739-15.806-18.348-28.889-20.155c-15.057-2.079-26.859,5.788-38.966,6.718c-6.376,0.49-11.838,0.745-18.812,0
		c-20.465-2.187-31.936-22.545-38.294-39.638c-3.916-31.119,20.05-56.085,23.514-83.979c0.217-11.421-8.304-20.918-8.734-30.904
		c-0.6-13.933,13.754-21.766,24.858-28.889c10.594-1.63,20.394-2.522,30.232,1.344c7.845,3.083,14.645,7.945,24.858,8.734
		c28.576,2.209,48.156-6.06,69.871,8.062c1.173,0.763,2.133,2.515,3.359,3.359c11.814,8.136,25.036,16.771,31.576,30.232
		c7.634,33.277-30.931,67.617-8.062,94.729C206.938,160.869,218.984,165.269,227.766,163.107z M51.744,65.691
		c11.645,5.272,30.837-5.26,32.92-21.499c1.652-12.879-5.943-19.492-13.437-24.858c-6.17-0.622-10.818-0.736-12.765,0
		C34.537,26.44,30.773,56.198,51.744,65.691z"/>
	<path fill-rule="evenodd" clip-rule="evenodd" d="M58.463,19.334c1.946-0.736,6.594-0.622,12.765,0
		c7.493,5.366,15.089,11.979,13.437,24.858c-2.083,16.238-21.275,26.771-32.92,21.499C30.773,56.198,34.537,26.44,58.463,19.334z
		 M49.057,28.068c17.68-3.333,27.641,6.224,30.232,20.155C91.125,27.37,60.679,12.857,49.057,28.068z M47.042,40.161
		c-3.99,6.278,1.59,19.235,9.406,20.827c21.22,4.323,15.756-30.062-0.672-26.202C52.844,35.475,48.396,38.029,47.042,40.161z"/>
	<path fill-rule="evenodd" clip-rule="evenodd" fill="#9C7D0D" d="M79.29,48.223c-2.591-13.931-12.553-23.487-30.232-20.155
		C60.679,12.857,91.125,27.37,79.29,48.223z"/>
	<path fill-rule="evenodd" clip-rule="evenodd" fill="#9C7D0D" d="M22.184,40.833c5.525,11.351,8.995,21.47,6.046,34.936
		c-4.104-4.384-4.177-12.446-5.375-18.812C21.982,52.314,19.75,47.514,22.184,40.833z"/>
	<path fill-rule="evenodd" clip-rule="evenodd" fill="#9C7D0D" d="M211.641,69.05c9.83,21.38-7.801,42.54-15.452,58.45
		C199.014,105.885,212.785,91.979,211.641,69.05z"/>
	<path fill-rule="evenodd" clip-rule="evenodd" fill="#B1953A" d="M336.603,373.392c-4.614-0.228-7.415-5.456-10.078-8.734
		c-8.472-10.43-18.204-22.2-26.873-32.92c-38.884-53.49-83.685-103.011-122.945-156.537c-5.661-7.717-11.295-16.438-17.468-23.514
		c-3.887-4.456-9.146-8.53-14.78-11.421c-1.36,9.984,7.691,22.335,13.437,30.232c11.611,15.962,24.745,31.398,36.951,47.7
		c35.668,47.643,76.17,93.751,112.868,140.414c4.816,3.245,7.679,8.445,11.421,12.765c2.267,3.973,9.94,9.964,4.031,14.108
		c-40.94-53.341-83.771-104.79-127.649-155.193c-7.497-10.864-18.232-27.132-27.545-39.639
		c-8.078-10.849-21.736-25.12-26.873-38.294c-1.211-3.106-4.052-14.727,2.015-16.124c4.205-0.969,9.354,5.59,12.093,8.062
		c4.197,3.786,6.37,6.841,10.749,8.734c23.968,28.007,45.409,58.274,67.855,88.01c29.522,39.111,61.341,76.415,92.042,114.884
		C329.775,360.839,336.957,365.953,336.603,373.392z"/>
	<path fill-rule="evenodd" clip-rule="evenodd" fill="#9C7D0D" d="M153.191,155.045c1.015-0.979,2.378-0.909,3.359-0.672
		c3.813,0.921,12.423,14.614,16.124,19.483c25.688,33.801,50.021,64.537,77.261,96.744c5.142,6.078,10.017,12.997,14.78,19.483
		c12.423,16.913,26.194,34.191,39.639,51.06c8.438,10.588,17.925,20.301,24.857,31.576c-2.74,1.534-4.944-2.675-6.046-4.031
		c-12.623-15.541-27.266-31.769-40.311-47.7c-15.163-18.518-29.578-38.057-45.685-54.419
		c-13.675-19.469-28.065-38.222-42.325-57.105c-15.272-16.081-29.444-33.261-40.982-53.075
		C153.973,155.608,153.715,155.193,153.191,155.045z"/>
	<path fill-rule="evenodd" clip-rule="evenodd" fill="#9C7D0D" d="M231.796,174.528c0.736,7.528-2.964,17.458-3.359,24.186
		C219.34,193.129,228.199,179.803,231.796,174.528z"/>
	<path fill-rule="evenodd" clip-rule="evenodd" fill="#9C7D0D" d="M191.486,255.148c9.841-0.694,15.167,0.933,16.796,9.406
		c-4.82-2.348-10.088-4.245-18.14-3.359C188.835,258.765,190.983,257.579,191.486,255.148z"/>
	<path fill-rule="evenodd" clip-rule="evenodd" fill="#9C7D0D" d="M236.499,318.301c0.771-17.129-11.363-24.731-24.858-29.561
		C226.458,280.9,247.316,304.854,236.499,318.301z"/>
	<path fill-rule="evenodd" clip-rule="evenodd" fill="#9C7D0D" d="M246.576,336.44c-3.226-3.716-6.014-7.87-11.421-9.405
		C239.495,318.062,246.938,328.734,246.576,336.44z"/>
	<path fill-rule="evenodd" clip-rule="evenodd" fill="#9C7D0D" d="M270.091,339.8c-0.394,3.121,0.918,4.056,0,6.047
		c-7.292-2.145-17.348,0.294-20.155-7.391C259.327,337.405,264.764,337.191,270.091,339.8z"/>
	<path fill-rule="evenodd" clip-rule="evenodd" fill="#9C7D0D" d="M275.466,353.236c3.239,2.221,11.08,0.103,14.78,3.359
		c-0.783,4.147,0.149,3.768-0.672,7.39C283.216,361.938,274.092,361.019,275.466,353.236z"/>
	<path fill-rule="evenodd" clip-rule="evenodd" fill="#B1953A" d="M294.948,355.252c6.986,6.675,12.416,14.905,18.14,22.843
		c-10.282-0.036-10.609,1.15-18.14,1.344C293.893,368.362,289.906,361.645,294.948,355.252z"/>
	<path fill-rule="evenodd" clip-rule="evenodd" fill="#9C7D0D" d="M319.135,386.156c-6.562,3.979-10.393,2.114-22.171,2.688
		c-1.216-1.694-2.304-3.52-2.016-6.719C305.064,382.053,313.951,377.347,319.135,386.156z"/>
	<path fill-rule="evenodd" clip-rule="evenodd" fill="#9C7D0D" d="M10.09,160.42c8.146,15.268,17.194,30.042,36.279,32.92
		c21.583,3.254,39.565-8.928,57.778-6.718c10.583,1.284,18.717,7.141,24.858,15.452c-9.423-4.87-22.759-9.143-32.248-8.733
		c-6.932,0.299-14.633,3.283-21.499,4.031C54.344,199.648,13.749,193.53,10.09,160.42z"/>
</g>
</svg>
