<?xml version="1.0" encoding="utf-8"?>
<!-- Generator: Adobe Illustrator 12.0.1, SVG Export Plug-In . SVG Version: 6.00 Build 51448)  -->
<!DOCTYPE svg PUBLIC "-//W3C//DTD SVG 1.1//EN" "http://www.w3.org/Graphics/SVG/1.1/DTD/svg11.dtd" [
	<!ENTITY ns_svg "http://www.w3.org/2000/svg">
	<!ENTITY ns_xlink "http://www.w3.org/1999/xlink">
]>
<svg  version="1.1" id="Layer_1" xmlns="&ns_svg;" xmlns:xlink="&ns_xlink;" width="453.861" height="299.682"
	 viewBox="0 0 453.861 299.682" overflow="visible" enable-background="new 0 0 453.861 299.682" xml:space="preserve">
<g>
	<path fill="#FFFFFF" d="M215.057,67.371c-1.852-3.751,1.245-8.24,2.24-12.993c1.841-8.795,2.773-19.401,2.688-30.913
		c-0.069-9.308-0.551-20.043-10.305-20.161c-2.378-0.029-7.174,2.64-10.752,4.48C155.25,30.242,111.767,53.036,68.106,74.987
		c-6.767,3.402-14.25,5.633-19.713,10.753c-0.285,21.973-11.193,42.955-25.985,55.554c-0.24-2.167,2.299-3.088,3.584-4.479
		c4.32-4.681,8.656-10.528,12.097-17.024c5.143-9.709,9.933-24.291,8.064-34.945c-5.25-11.1-23.357-2.91-31.81,2.688
		c-9.803,6.491-13.921,19.044-8.512,32.257c7.814,19.091,25.345,34.293,42.562,46.146c8.914,6.137,18.038,9.817,21.057,20.609
		c5.5,2.865,10.761-0.823,17.921,0.447c6.087,1.079,12.481,4.215,17.025,7.616c1.22,0.913,3.629,2.553,3.136,4.031
		c-3.995,1.576-6.542-3.927-10.305-5.824c-5.894-2.972-17.983-5.972-23.745-1.792c-3.857,2.799-3.701,13.398-4.032,20.161
		c-0.796,16.252-1.132,29.481-14.336,33.153c-14.458,4.021-22.967-7.537-29.122-14.784c-4.758-5.604-9.276-11.016-11.2-17.473
		c3.843,5.578,7.041,11.905,12.096,17.473c5.593,6.159,12.554,14.017,22.849,13.889c15.784-0.195,17.978-15.483,18.817-30.914
		c0.803-14.761,1.52-29.399-8.064-37.186c-3.817-3.1-8.945-5.421-13.441-8.512c-11.96-8.225-26.015-19.042-34.498-31.362
		c-4.068-5.909-8.459-13.59-10.305-21.057c-4.454-18.019,8.027-27.216,20.609-32.706c4.16-1.815,10.399-4.912,15.681-4.48
		c4.53,0.37,5.505,4.695,9.856,4.928c3.757,0.202,16.062-7.832,20.161-9.855c33.581-16.581,65.965-33.165,98.565-50.178
		c13.417-7.002,26.585-14.32,39.426-20.161c5.229-2.378,12.438,1.96,14.337,6.72c3.302,8.282,2.473,22.376,2.24,31.81
		c-0.11,4.465-0.531,10.07-1.344,14.785C220.983,59.878,220.699,67.257,215.057,67.371z"/>
	<path d="M27.336,91.564c1.703,4.199-0.27,12.197,0.448,18.369C25.491,104.548,27.015,98.277,27.336,91.564z"/>
	<path d="M21.063,92.46c0.972,6.697,1.059,20.454-0.448,26.433C20.648,109.965,20.406,100.762,21.063,92.46z"/>
	<path d="M23.304,92.46c1.541,3.971,0.713,13.228-0.448,17.473C22.853,103.289,22.745,97.598,23.304,92.46z"/>
	<path fill="#FFFFFF" d="M10.311,93.804c0.275,8.885-0.079,21.32,0,31.361c-3.875-9.625-0.415-19.123-1.344-30.019
		C9.612,94.897,10.06,94.449,10.311,93.804z"/>
	<path d="M17.927,94.252c0.724-0.126,0.771,0.423,1.344,0.448c-0.954,11.515-0.55,24.021-0.448,34.944
		c-1.431-0.618-1.256-3.646-1.344-5.824c-0.358-8.817-0.028-20.655,0.448-28.225C17.927,95.148,17.927,94.7,17.927,94.252z"/>
	<path d="M30.024,95.148c1.879,2.261-0.34,7.558,0.448,11.649C28.695,104.778,29.584,97.912,30.024,95.148z"/>
	<path d="M33.608,95.596c1.056,0.542,0.542,6.244,0,8.064C31.597,101.433,33.196,97.892,33.608,95.596z"/>
	<path fill="#FFFFFF" d="M7.175,98.284c1.164,4.036,0.065,13.479,0.448,19.713C3.907,112.946,5.389,104.704,7.175,98.284z"/>
	<path fill="#FFFFFF" d="M441.756,164.144c-0.886-7.58,3.313-16.204,4.928-26.882c0.66-4.364,1.438-9.563,1.792-14.784
		c0.651-9.549,0.979-19.914-8.512-20.161c-5.461-0.142-13.116,6.846-18.369,10.306c-34.263,22.562-66.644,46.513-100.356,68.995
		c-8.476,5.651-18.015,9.474-22.4,19.265c-1.573-4.522,2.418-11.347-3.137-12.992c-3.372-0.999-7.361,1.758-9.856,3.136
		c-18.451,10.198-46.468,15.277-72.579,13.89c-23.763-1.265-44.502-4.72-66.755-8.96c-8.702-1.659-18.421-5.392-26.434-3.138
		c-27.2,7.654-10.662,58.016-0.448,72.133c9.55,13.199,29.08,24.903,47.938,28.226c20.751,3.654,43.186-0.938,62.723-8.513
		c35.55-13.784,63.044-38.893,68.1-83.332c-0.75,37.904-24.354,61.631-50.625,77.06c-17.197,10.1-42.271,20.13-67.205,18.817
		c-8.83-0.465-18.244-0.646-25.537-3.138c-26.43-9.029-52.062-38.092-51.522-72.578c0.242-15.486,4.631-29.691,20.161-30.913
		c6.144-0.483,13.621,1.873,20.609,3.136c44.088,7.969,100.19,16.553,139.333-2.688c3.088-1.517,6.213-4.993,10.306-4.928
		c4.739,0.077,4.534,3.801,8.513,5.376c36.225-23.075,77.967-53.481,115.59-78.852c6.304-4.25,14.746-12.128,21.953-11.649
		c14.619,0.972,11.62,21.71,10.304,36.738c-0.441,5.06-1.469,10.167-2.688,14.785C446.309,157.309,446.327,163.638,441.756,164.144z
		"/>
	<path d="M9.863,137.262c0.521-0.072,0.797,0.1,0.896,0.448c-0.922,14.882,1.242,29.203,2.688,41.218
		c-2.853-6.123-3.583-14.554-4.032-23.297c-0.283-5.513,0.211-11.273,0-17.024C9.289,137.883,9.838,137.835,9.863,137.262z"/>
	<path d="M12.103,148.015c0.724-0.126,0.771,0.424,1.344,0.448c-0.745,6.706,1.555,16.256,1.344,22.399
		C12.207,164.937,12.45,156.181,12.103,148.015z"/>
	<path d="M15.688,152.943c1.443,2.498,1.983,8.093,1.344,11.2C15.117,161.877,15.869,156.943,15.688,152.943z"/>
	<path fill="#FFFFFF" d="M292.565,190.577c2.162,7.381,4.197,15.489,2.688,24.191c-3.034-6.088-3.538-17.053-4.479-23.745
		C291.481,190.987,292.481,191.24,292.565,190.577z"/>
	<path fill="#FFFFFF" d="M294.356,190.577c1.369-0.324,1.634,0.458,2.688,0.446c0.179,2.778-0.917,7.595-0.448,12.098
		C295.036,200.897,295.408,194.605,294.356,190.577z"/>
	<path fill="#FFFFFF" d="M288.981,192.369c1.709,2.328,1.641,9.641,2.688,15.231c1.184,6.312,4.504,10.223,0.448,14.785
		c-1.372-9.978-3.775-18.925-4.929-29.122C288.022,193.203,288.687,192.97,288.981,192.369z"/>
	<path fill="#FFFFFF" d="M285.396,194.161c0.521-0.073,0.799,0.099,0.896,0.447c0.709,5.015,1.221,10.254,2.24,15.232
		c0.975,4.754,1.52,9.979,4.031,13.44c-0.744,1.495-1.049,3.432-1.791,4.929c-3.422-9.87-4.942-21.643-6.722-33.154
		C284.414,194.672,285.28,194.791,285.396,194.161z"/>
	<path fill="#FFFFFF" d="M282.26,195.953c3.687,10.054,3.027,24.45,8.064,33.152c-1.343,3.586-3.204,6.653-4.929,9.856
		c-3.637-9.139-5.861-22.346-7.617-34.05c-0.375-2.51-2.5-6.849,0.896-7.616c3.459,11.624,4.135,26.033,8.514,36.738
		c-0.871-11.41-6.945-26.163-5.826-38.082C281.663,195.953,281.961,195.953,282.26,195.953z"/>
	<path fill="#FFFFFF" d="M81.099,197.297c-1.805,1.934-7.162,2.688-9.409,2.688C73.57,198.126,78.74,197.186,81.099,197.297z"/>
	<path fill="#FFFFFF" d="M81.099,199.537c-2.371,1.661-5.743,2.32-9.409,2.688C74.191,200.694,77.534,200.005,81.099,199.537z"/>
	<path fill="#FFFFFF" d="M81.099,201.777c-2.259,1.683-7.27,2.808-9.856,2.688C73.657,202.699,77.338,202.198,81.099,201.777z"/>
	<path d="M268.819,201.777c3.033,13.844,6.293,29.849,9.408,42.114C273.179,232.061,270.013,215.972,268.819,201.777z"/>
	<path fill="#FFFFFF" d="M81.099,205.81c-3.408-1-6.254,1.183-9.856,1.344C72.828,205.555,80.118,202.302,81.099,205.81z"/>
	<path d="M251.347,205.81c3.283,20.462,6.846,38.161,12.993,56.003c-2.772-3.253-3.659-7.956-4.928-12.097
		c-1.345-4.388-2.591-8.817-3.584-13.44c-2.019-9.4-3.97-18.951-4.929-29.122C250.772,206.43,251.321,206.382,251.347,205.81z"/>
	<path fill="#FFFFFF" d="M80.203,206.705c-2.086,1.798-5.542,2.225-8.96,2.688C72.753,207.314,78.22,206.821,80.203,206.705z"/>
	<path d="M261.651,206.258c3.714,14.058,6,29.542,10.752,42.562c-3.711-5.267-4.935-12.265-6.721-19.265
		c-1.761-6.904-3.039-14.475-4.031-21.953C261.114,207.013,261.478,206.896,261.651,206.258z"/>
	<path fill="#FFFFFF" d="M79.307,208.498c0.436,0.012,0.348,0.548,0.448,0.896c-1.967,1.538-6.248,2.915-8.96,2.24
		C72.621,209.578,77.137,210.211,79.307,208.498z"/>
	<path d="M115.148,208.498c2.087,4.785,0.234,13.898,0.896,17.92C113.576,222.406,115.034,213.746,115.148,208.498z"/>
	<path d="M157.262,210.737c0.521-0.071,0.797,0.101,0.896,0.448c-1.687,25.354,3.481,46.693,9.409,66.756
		c-3.401-3.965-3.595-9.767-4.929-14.785c-4.089-15.394-6.926-32.35-5.376-51.073C157.262,211.634,157.262,211.186,157.262,210.737z
		"/>
	<path d="M256.274,210.737c0.521-0.071,0.797,0.101,0.896,0.448c1.691,16.827,7.35,32.077,10.752,45.698
		C262.054,243.49,258.131,228.146,256.274,210.737z"/>
	<path fill="#FFFFFF" d="M79.307,212.082c-1.965,1.396-6.094,2.763-8.513,2.24C72.822,212.988,76.852,211.523,79.307,212.082z"/>
	<path d="M155.47,212.082c0.551,0.194,0.92,0.572,0.896,1.344c-2.375,21.062,3.283,43.263,8.064,61.379
		c-2.585-2.756-2.954-7.29-4.032-11.2C156.38,249.039,153.404,228.408,155.47,212.082z"/>
	<path d="M113.356,212.978c0.471,9.773,1.248,19.213,1.792,26.882c-1.991-0.839-1.64-4.124-1.792-6.271
		C112.935,227.64,112.505,219.374,113.356,212.978z"/>
	<path d="M112.012,213.426c0.124,3.173-0.088,9.723,0,14.337C110.229,224.438,110.03,217.35,112.012,213.426z"/>
	<path d="M152.782,213.874c0.521-0.073,0.797,0.099,0.896,0.447c0.014,10.355-0.172,20.497,1.344,30.018
		c1.5,9.417,4.763,17.899,5.376,26.434C155.17,254.771,151.333,235.068,152.782,213.874z"/>
	<path fill="#FFFFFF" d="M78.41,214.77c-1.67,1.766-5.118,1.752-7.616,2.688C71.331,214.776,76.566,214.681,78.41,214.77z"/>
	<path fill="#FFFFFF" d="M76.17,217.01c2.21,1.815-3.391,2.63-5.824,2.688C70.773,217.288,75.1,218.777,76.17,217.01z"/>
	<path fill="#FFFFFF" d="M75.722,220.146c-0.46,1.645-4.223,2.33-5.376,1.792C71.123,220.326,73.742,220.556,75.722,220.146z"/>
	<path fill="#FFFFFF" d="M73.93,222.834c-0.149,1.579-3.14,1.909-4.032,1.345C70.94,223.429,72.312,223.008,73.93,222.834z"/>
	<path fill="#FFFFFF" d="M73.034,226.418c-1.052,0.144-1.682,0.708-3.136,0.448C69.709,225.25,73.46,224.356,73.034,226.418z"/>
	<path fill="#FFFFFF" d="M72.138,227.763c-0.99,1.399-1.16,3.619-3.136,4.032C69.534,229.938,69.422,227.437,72.138,227.763z"/>
	<path d="M159.95,231.347c0.521-0.073,0.797,0.099,0.896,0.448c0.942,20.413,7.521,37.579,12.545,52.418
		c-4.4-6.272-6.268-14.375-8.513-22.4C162.267,252.476,160.402,243.345,159.95,231.347z"/>
	<path d="M170.703,236.723c0.448,0,0.896,0,1.344,0c-0.042,4.672,1.816,7.443,1.792,12.097
		C171.604,245.977,171.821,240.682,170.703,236.723z"/>
	<path d="M162.638,237.171c2.621,10.976,5.561,24.001,8.064,33.602C166.281,261.306,163.964,249.734,162.638,237.171z"/>
	<path d="M168.015,237.171c2.322,5.759,3.815,14.681,4.48,20.608C169.936,251.977,168.949,244.601,168.015,237.171z"/>
	<path fill="#FFFFFF" d="M3.143,122.478c4.289,3.391,3.56,7.234,3.136,13.44c-1.347,19.758,1.99,42.238,7.168,56.897
		c0.357-4.158-1.505-9.324-2.688-14.783c-3.397-15.674-4.2-32.518-2.688-47.042c9.426,15.371,22.184,27.348,37.186,37.634
		c9.306,6.381,21.03,9.48,22.401,24.191c0.266,2.853-0.303,5.763-0.448,8.961c-0.869,19.128,1.119,42.557-20.609,39.874
		c-8.116-1.002-20.413-14.153-24.642-20.16c-3.465-4.924-5.075-10.848-8.512-15.682c-0.337-1.879,1.711,0.608,1.792-1.344
		C6.384,182.463,1.77,155.152,4.935,126.062c-6.991,25.363,2.877,59.367,8.064,77.956C3.655,180.903-1.2,151.045,3.143,122.478z
		 M9.415,138.606c0.211,5.751-0.283,11.513,0,17.024c0.449,8.743,1.18,17.174,4.032,23.297c-1.446-12.015-3.61-26.336-2.688-41.218
		c-0.099-0.35-0.375-0.521-0.896-0.448C9.838,137.835,9.289,137.883,9.415,138.606z M14.792,170.863
		c0.21-6.145-2.089-15.693-1.344-22.399c-0.573-0.024-0.621-0.574-1.344-0.448C12.45,156.181,12.207,164.937,14.792,170.863z
		 M17.031,164.144c0.64-3.107,0.099-8.702-1.344-11.2C15.869,156.943,15.117,161.877,17.031,164.144z"/>
	<path fill="#FFFFFF" d="M41.672,82.156c7.063,8.399,1.009,25.308-4.48,35.842c-4.685,8.989-10.897,16.63-16.129,21.505
		c-3.051-1.28-3.858-4.803-6.272-6.72c0.786-9.602,0.598-31.06,0.448-41.666c-1.668,14.403-1.295,26.132-0.896,40.321
		c-1.458-1.081-1.652-3.426-3.136-4.479c1.033-10.682-0.09-24.907,0.896-34.946C20.43,87.476,28.862,80.721,41.672,82.156z
		 M27.784,109.933c-0.718-6.172,1.255-14.17-0.448-18.369C27.015,98.277,25.491,104.548,27.784,109.933z M20.616,118.893
		c1.507-5.979,1.419-19.735,0.448-26.433C20.406,100.762,20.648,109.965,20.616,118.893z M22.855,109.933
		c1.162-4.245,1.989-13.502,0.448-17.473C22.745,97.598,22.853,103.289,22.855,109.933z M17.927,95.596
		c-0.476,7.569-0.806,19.407-0.448,28.225c0.088,2.178-0.086,5.207,1.344,5.824c-0.103-10.924-0.506-23.431,0.448-34.944
		c-0.573-0.025-0.621-0.574-1.344-0.448C17.927,94.7,17.927,95.148,17.927,95.596z M30.472,106.797
		c-0.789-4.092,1.431-9.389-0.448-11.649C29.584,97.912,28.695,104.778,30.472,106.797z M33.608,103.661
		c0.542-1.821,1.056-7.523,0-8.064C33.196,97.892,31.597,101.433,33.608,103.661z"/>
	<path d="M219.985,68.715c-2.204,1.283-5.641,0.817-7.168-0.896c0.491-8.71,4.617-18.517,5.376-29.121
		c0.769-10.736,0.742-21.212-1.792-30.466c-6.748-6.047-17.504,2.608-24.641,6.272c-18.572,9.535-39.136,19.292-56.002,28.673
		c-1.041,0.131-2.1,1.125-1.792-0.896c-1.584,0.713,0.104,2.099-1.792,2.688C105.328,58.743,77.475,71.511,51.53,86.187
		c-2.917,25.309-12.289,44.163-28.226,56.451c8.154,9.537,18.454,16.909,29.122,24.193c7.741,5.285,16.017,9.252,19.265,19.265
		c15.493-3.623,27.883,2.506,36.738,9.408c4.723-3.342,10.162-5.967,17.025-7.168c25.089,4.452,53.248,10.96,80.196,12.544
		c28.656,1.685,64.531-1.562,84.676-15.681c5.532-3.618,9.051,3.908,12.545,4.031c2.851,0.102,12.765-7.827,17.024-10.752
		c32.924-22.604,64.586-44.75,98.116-67.204c6.652-4.455,12.714-11.972,21.058-12.097c18.62-0.278,15.266,26.292,12.991,43.906
		c-0.574,4.463-1.858,10.23-3.136,14.785c-1.252,4.467-3.068,9.934-8.96,7.615c-2.238-4.349,0.441-8.906,1.792-13.889
		c2.462-9.083,4.256-18.954,4.928-31.361c0.3-5.524,1.717-13.457-3.584-15.232c-6.064-2.032-15.237,6.26-19.265,8.96
		c-40.035,26.847-82.317,56.907-120.966,82.884c-2.5,11.548-3.32,24.22-7.617,34.498c-0.99,2.37-2.453,4.719-3.584,6.721
		c-0.988,1.751-1.597,3.73-3.071,5.998c-2.713,3.798-4.354,5.912-6.784,8.786c-17.31,20.466-41.92,35.096-72.131,43.458h-0.448
		c-18.782,4.621-37.379,4.511-53.315-0.448c-14.299-4.447-28.775-14.641-36.738-25.089c-12.093-15.868-21.401-43.133-14.785-68.1
		c-2.126-5.215-10.505-9.853-17.921-10.752c-5.579-0.678-11.94-0.313-13.889,4.479c3.11,0.347,6.757-2.869,10.305-1.345
		c1.729,9.658-2.18,18.564-5.824,26.434c-3.576,7.724-7.693,16.307-13.441,21.058c-6.007,4.966-16.266,4.904-22.401,2.688
		c-8.305-3-15.551-12.272-21.057-20.161c-5.997-8.591-8.91-18.35-11.648-29.568c-2.504-10.261-5.951-20.078-7.168-30.466
		c-1.25-10.662-1.65-21.433-0.896-31.361c0.376-4.949,1.97-9.724,1.792-13.889c-0.147-3.441-2.147-7.221-2.24-11.2
		c-0.214-9.214,4.832-18.177,11.201-22.85c5.249-3.85,16.201-9.013,23.745-9.855c7.659-0.857,10.459,1.734,13.889,4.032
		c43.611-21.104,94.43-46.839,138.439-69.443c9.554-4.907,16.746-11.621,27.329-10.305c10.905,4.63,10.553,18.198,10.752,32.257
		C225.546,45.449,224.561,58.478,219.985,68.715z M221.777,55.274c0.813-4.715,1.234-10.32,1.344-14.784
		c0.232-9.435,1.062-23.528-2.24-31.811c-1.898-4.76-9.108-9.099-14.337-6.72C193.703,7.8,180.535,15.118,167.118,22.12
		c-32.6,17.013-64.984,33.598-98.565,50.178c-4.099,2.024-16.404,10.058-20.161,9.855c-4.352-0.232-5.327-4.558-9.856-4.928
		c-5.282-0.431-11.521,2.665-15.681,4.48C10.274,87.198-2.207,96.395,2.247,114.413c1.846,7.467,6.237,15.147,10.305,21.057
		c8.482,12.32,22.538,23.138,34.498,31.362c4.496,3.091,9.624,5.412,13.441,8.512c9.584,7.785,8.867,22.425,8.064,37.186
		c-0.839,15.431-3.033,30.719-18.817,30.914c-10.295,0.129-17.256-7.729-22.849-13.889c-5.055-5.565-8.253-11.895-12.096-17.473
		c1.924,6.457,6.442,11.869,11.2,17.473c6.155,7.247,14.664,18.805,29.122,14.784c13.205-3.672,13.541-16.901,14.336-33.153
		c0.332-6.763,0.175-17.361,4.032-20.161c5.762-4.18,17.852-1.18,23.745,1.792c3.762,1.897,6.31,7.4,10.305,5.824
		c0.493-1.479-1.917-3.118-3.136-4.031c-4.544-3.401-10.938-6.536-17.025-7.616c-7.16-1.271-12.421,2.418-17.921-0.447
		c-3.019-10.792-12.143-14.473-21.057-20.609c-17.217-11.854-34.748-27.056-42.562-46.146c-5.409-13.213-1.291-25.767,8.512-32.257
		c8.453-5.599,26.56-13.788,31.81-2.688c1.869,10.654-2.922,25.236-8.064,34.945c-3.441,6.497-7.777,12.344-12.097,17.024
		c-1.285,1.393-3.824,2.312-3.584,4.479C37.2,128.695,48.108,107.713,48.393,85.74c5.462-5.12,12.946-7.352,19.713-10.753
		c43.661-21.95,87.145-44.745,130.822-67.203c3.578-1.841,8.374-4.51,10.752-4.48c9.754,0.118,10.235,10.854,10.305,20.161
		c0.085,11.512-0.847,22.118-2.688,30.913c-0.995,4.752-4.092,9.242-2.24,12.993C220.699,67.257,220.983,59.878,221.777,55.274z
		 M12.103,92.012c-0.986,10.039,0.137,24.265-0.896,34.946c1.484,1.055,1.678,3.399,3.136,4.479
		c-0.399-14.189-0.772-25.918,0.896-40.321c0.15,10.606,0.338,32.064-0.448,41.666c2.414,1.917,3.221,5.439,6.272,6.72
		c5.231-4.875,11.444-12.516,16.129-21.505c5.489-10.534,11.543-27.442,4.48-35.842C28.862,80.721,20.43,87.476,12.103,92.012z
		 M8.967,95.148c0.93,10.896-2.531,20.394,1.344,30.019c-0.079-10.042,0.275-22.477,0-31.361
		C10.06,94.449,9.612,94.897,8.967,95.148z M7.623,117.997c-0.383-6.234,0.716-15.677-0.448-19.713
		C5.389,104.704,3.907,112.946,7.623,117.997z M447.581,152.495c1.219-4.618,2.245-9.727,2.688-14.785
		c1.316-15.027,4.315-35.767-10.304-36.738c-7.207-0.479-15.649,7.398-21.953,11.649c-37.622,25.369-79.366,55.775-115.59,78.852
		c-3.979-1.575-3.772-5.299-8.513-5.376c-4.094-0.065-7.219,3.411-10.305,4.928c-39.145,19.241-95.247,10.657-139.334,2.688
		c-6.988-1.263-14.465-3.619-20.609-3.136c-15.53,1.222-19.919,15.427-20.161,30.913c-0.54,34.486,25.093,63.549,51.522,72.578
		c7.293,2.492,16.707,2.673,25.537,3.138c24.934,1.312,50.008-8.72,67.204-18.817c26.272-15.429,49.875-39.154,50.627-77.06
		c-5.057,44.439-32.551,69.548-68.101,83.332c-19.537,7.574-41.971,12.167-62.723,8.513c-18.859-3.321-38.388-15.025-47.938-28.227
		c-10.214-14.116-26.752-64.478,0.448-72.132c8.013-2.254,17.731,1.479,26.434,3.138c22.253,4.24,42.992,7.695,66.755,8.96
		c26.111,1.389,54.126-3.69,72.58-13.89c2.494-1.378,6.483-4.135,9.855-3.136c5.555,1.646,1.562,8.47,3.137,12.992
		c4.387-9.791,13.926-13.612,22.4-19.266c33.714-22.481,66.095-46.433,100.356-68.994c5.253-3.459,12.908-10.447,18.369-10.306
		c9.489,0.247,9.163,10.612,8.512,20.161c-0.354,5.22-1.132,10.42-1.792,14.784c-1.613,10.678-5.812,19.302-4.928,26.882
		C446.327,163.638,446.309,157.309,447.581,152.495z M12.999,204.018c-5.187-18.589-15.055-52.593-8.064-77.956
		c-3.165,29.091,1.449,56.401,10.304,78.404c-0.081,1.952-2.129-0.535-1.792,1.344c3.437,4.834,5.047,10.758,8.512,15.682
		c4.229,6.007,16.526,19.158,24.642,20.16c21.728,2.683,19.74-20.745,20.609-39.874c0.145-3.198,0.713-6.108,0.448-8.961
		c-1.371-14.711-13.095-17.812-22.401-24.191c-15.002-10.286-27.76-22.264-37.186-37.634c-1.511,14.525-0.709,31.369,2.688,47.042
		c1.183,5.459,3.045,10.625,2.688,14.783c-5.179-14.659-8.516-37.141-7.168-56.897c0.423-6.207,1.152-10.051-3.136-13.44
		C-1.2,151.045,3.655,180.903,12.999,204.018z M290.772,191.024c0.941,6.692,1.445,17.657,4.479,23.745
		c1.511-8.702-0.524-16.812-2.688-24.191C292.481,191.24,291.481,190.987,290.772,191.024z M296.597,203.121
		c-0.469-4.503,0.627-9.318,0.448-12.098c-1.056,0.012-1.319-0.771-2.688-0.446C295.408,194.605,295.036,200.897,296.597,203.121z
		 M287.188,193.265c1.152,10.197,3.557,19.146,4.929,29.122c4.056-4.562,0.733-8.474-0.448-14.785
		c-1.047-5.592-0.979-12.903-2.688-15.231C288.687,192.97,288.022,193.203,287.188,193.265z M139.341,197.297
		c-4.292-0.8-8.059-2.533-12.544-2.688c-14.369-0.494-20.285,12.99-19.265,28.226c1.383,20.657,8.37,35.919,21.505,48.387
		c12.452,11.819,28.972,20.632,48.834,21.505c23.417,1.029,45.224-5.541,61.827-13.889c17.324-8.71,31.557-20.146,41.666-34.945
		c-3.875-12.802-8.514-29.761-8.063-43.458c2.105,14.919,4.929,29.121,8.513,42.562c4.103-1.6,1.186-5.996,0.447-8.96
		c-2.729-10.978-5.345-23.44-6.271-35.396c-3.609,0.871-6.508,2.453-10.305,3.137c1.263,14.51,6.512,31.057,8.961,44.354
		c-4.905-13.017-8.028-27.814-9.856-43.906c-6.483,1.58-13.674,2.455-20.161,4.032c2.59,10.367,4.104,20.904,6.721,30.913
		c2.603,9.956,7.178,18.806,8.959,27.776c-8.597-16.774-12.597-38.226-17.024-59.139c-1.267-0.37-1.161,0.631-2.24,0.448
		c0.865,22.581,9.69,43.474,15.231,61.379c-7.567-14.902-12.752-34.07-15.68-53.314c-0.408-2.678-0.117-5.999-2.24-8.063
		c-1.387,20.496,8.207,42.855,12.545,59.587c-6.795-14.936-11.639-33.121-13.889-51.971c-0.261-2.179,0.215-5.77-2.24-7.169
		c-1.36,13.685,3.961,29.484,6.271,41.666c-3.7-7.122-6.029-20.37-7.168-31.361c-0.33-3.183-0.297-9.719-2.688-10.305
		c-1.697-0.415-1.209,6.6-0.896,10.305c0.378,4.481,1.839,8.922,1.344,11.648c-2.699-5.363-2.353-13.776-2.688-21.506
		C194.488,206.798,168.972,202.819,139.341,197.297z M284.052,195.057c1.778,11.513,3.299,23.284,6.721,33.154
		c0.744-1.497,1.049-3.434,1.793-4.929c-2.514-3.463-3.059-8.688-4.032-13.44c-1.021-4.979-1.531-10.219-2.24-15.232
		c-0.099-0.35-0.375-0.521-0.896-0.447C285.28,194.791,284.414,194.672,284.052,195.057z M281.364,195.953
		c-1.12,11.919,4.953,26.672,5.824,38.082c-4.379-10.705-5.053-25.114-8.513-36.738c-3.396,0.769-1.272,5.106-0.896,7.616
		c1.755,11.704,3.98,24.911,7.615,34.05c1.726-3.203,3.586-6.271,4.93-9.856c-5.037-8.702-4.379-23.1-8.064-33.152
		C281.961,195.953,281.663,195.953,281.364,195.953z M71.69,199.985c2.247-0.001,7.604-0.755,9.409-2.688
		C78.74,197.186,73.57,198.126,71.69,199.985z M71.69,202.226c3.666-0.367,7.038-1.026,9.409-2.688
		C77.534,200.005,74.191,200.694,71.69,202.226z M71.242,204.466c2.587,0.118,7.597-1.007,9.856-2.688
		C77.338,202.198,73.657,202.699,71.242,204.466z M71.242,207.153c3.602-0.161,6.448-2.344,9.856-1.344
		C80.118,202.302,72.828,205.555,71.242,207.153z M71.242,209.394c3.418-0.464,6.875-0.891,8.96-2.688
		C78.22,206.821,72.753,207.314,71.242,209.394z M70.794,211.634c2.713,0.675,6.993-0.702,8.96-2.24
		c-0.1-0.348-0.012-0.884-0.448-0.896C77.137,210.211,72.621,209.578,70.794,211.634z M70.794,214.323
		c2.419,0.521,6.548-0.845,8.513-2.24C76.852,211.523,72.822,212.988,70.794,214.323z M70.794,217.458
		c2.498-0.938,5.946-0.924,7.616-2.688C76.566,214.681,71.331,214.776,70.794,217.458z M70.346,219.698
		c2.434-0.06,8.035-0.873,5.824-2.688C75.1,218.777,70.773,217.288,70.346,219.698z M70.346,221.938
		c1.153,0.538,4.916-0.147,5.376-1.792C73.742,220.556,71.123,220.326,70.346,221.938z M69.898,224.179
		c0.892,0.564,3.883,0.234,4.032-1.345C72.312,223.008,70.94,223.429,69.898,224.179z M69.898,226.866
		c1.455,0.26,2.084-0.306,3.136-0.448C73.46,224.356,69.709,225.25,69.898,226.866z M69.002,231.795
		c1.977-0.413,2.146-2.633,3.136-4.032C69.422,227.437,69.534,229.938,69.002,231.795z"/>
	<path fill="#FFFFFF" d="M228.946,207.153c0.335,7.729-0.012,16.143,2.688,21.506c0.495-2.728-0.966-7.167-1.344-11.648
		c-0.312-3.705-0.801-10.72,0.896-10.305c2.391,0.586,2.357,7.122,2.688,10.305c1.139,10.991,3.468,24.239,7.168,31.361
		c-2.311-12.182-7.633-27.981-6.271-41.666c2.457,1.399,1.979,4.99,2.239,7.169c2.25,18.85,7.093,37.035,13.89,51.971
		c-4.336-16.729-13.932-39.091-12.545-59.587c2.123,2.065,1.832,5.387,2.24,8.063c2.926,19.244,8.112,38.412,15.68,53.314
		c-5.541-17.905-14.366-38.798-15.231-61.379c1.079,0.183,0.974-0.818,2.24-0.448c4.428,20.913,8.428,42.363,17.024,59.14
		c-1.781-8.973-6.357-17.821-8.959-27.777c-2.617-10.009-4.131-20.546-6.721-30.913c6.487-1.577,13.678-2.452,20.161-4.032
		c1.828,16.092,4.951,30.891,9.856,43.906c-2.449-13.299-7.698-29.846-8.961-44.354c3.797-0.684,6.694-2.266,10.305-3.137
		c0.928,11.954,3.542,24.418,6.271,35.396c0.737,2.964,3.654,7.36-0.447,8.96c-3.584-13.44-6.406-27.644-8.513-42.562
		c-0.45,13.697,4.188,30.656,8.063,43.458c-10.108,14.799-24.342,26.235-41.666,34.945c-16.604,8.348-38.41,14.918-61.827,13.889
		c-19.863-0.873-36.382-9.686-48.834-21.505c-13.135-12.468-20.122-27.729-21.505-48.387c-1.02-15.234,4.896-28.72,19.265-28.226
		c4.486,0.154,8.252,1.889,12.544,2.688C168.972,202.819,194.488,206.798,228.946,207.153z M278.228,243.892
		c-3.115-12.267-6.375-28.271-9.408-42.114C270.013,215.972,273.179,232.061,278.228,243.892z M250.899,207.153
		c0.957,10.171,2.908,19.722,4.928,29.122c0.992,4.623,2.238,9.054,3.584,13.44c1.27,4.141,2.154,8.844,4.928,12.097
		c-6.146-17.842-9.71-35.541-12.992-56.003C251.321,206.382,250.772,206.43,250.899,207.153z M261.651,207.602
		c0.992,7.479,2.271,15.049,4.031,21.953c1.787,7,3.01,13.998,6.721,19.265c-4.752-13.02-7.038-28.504-10.752-42.562
		C261.478,206.896,261.114,207.013,261.651,207.602z M116.044,226.418c-0.662-4.021,1.19-13.135-0.896-17.92
		C115.034,213.746,113.576,222.406,116.044,226.418z M157.262,212.082c-1.55,18.725,1.287,35.681,5.376,51.074
		c1.333,5.019,1.527,10.819,4.929,14.784c-5.928-20.062-11.096-41.402-9.409-66.756c-0.099-0.349-0.375-0.521-0.896-0.448
		C157.262,211.186,157.262,211.634,157.262,212.082z M267.923,256.884c-3.402-13.621-9.061-28.871-10.752-45.698
		c-0.1-0.349-0.375-0.521-0.896-0.448C258.131,228.146,262.054,243.49,267.923,256.884z M160.398,263.604
		c1.079,3.91,1.447,8.444,4.032,11.2c-4.782-18.116-10.439-40.316-8.064-61.379c0.024-0.771-0.345-1.148-0.896-1.344
		C153.404,228.408,156.38,249.039,160.398,263.604z M113.356,233.587c0.152,2.147-0.199,5.434,1.792,6.271
		c-0.544-7.669-1.321-17.107-1.792-26.882C112.505,219.374,112.935,227.64,113.356,233.587z M112.012,227.763
		c-0.088-4.614,0.124-11.164,0-14.337C110.03,217.35,110.229,224.438,112.012,227.763z M160.398,270.772
		c-0.614-8.532-3.877-17.017-5.376-26.434c-1.516-9.521-1.33-19.661-1.344-30.018c-0.099-0.35-0.375-0.521-0.896-0.447
		C151.333,235.068,155.17,254.771,160.398,270.772z M164.878,261.812c2.245,8.025,4.113,16.128,8.513,22.4
		c-5.023-14.839-11.603-32.005-12.545-52.418c-0.099-0.351-0.375-0.521-0.896-0.448
		C160.402,243.345,162.267,252.476,164.878,261.812z M173.839,248.819c0.024-4.652-1.834-7.425-1.792-12.097
		c-0.448,0-0.896,0-1.344,0C171.821,240.682,171.604,245.977,173.839,248.819z M170.703,270.772
		c-2.504-9.601-5.443-22.626-8.064-33.602C163.964,249.734,166.281,261.306,170.703,270.772z M172.495,257.78
		c-0.665-5.929-2.158-14.851-4.48-20.608C168.949,244.601,169.936,251.977,172.495,257.78z"/>
</g>
</svg>
