<?xml version="1.0" encoding="utf-8"?>
<!-- Generator: Adobe Illustrator 12.0.1, SVG Export Plug-In . SVG Version: 6.00 Build 51448)  -->
<!DOCTYPE svg PUBLIC "-//W3C//DTD SVG 1.1//EN" "http://www.w3.org/Graphics/SVG/1.1/DTD/svg11.dtd" [
	<!ENTITY ns_svg "http://www.w3.org/2000/svg">
	<!ENTITY ns_xlink "http://www.w3.org/1999/xlink">
]>
<svg  version="1.1" id="Layer_1" xmlns="&ns_svg;" xmlns:xlink="&ns_xlink;" width="359.396" height="391.655"
	 viewBox="0 0 359.396 391.655" overflow="visible" enable-background="new 0 0 359.396 391.655" xml:space="preserve">
<path fill="#B32317" stroke="#130F06" d="M229.893,129.905c0,0-12.5-52.25-25.5-74s-39.75-31.25-57.75-29.75s-46.5,17.25-53,41.75
	s7,74.5,7,74.5l-20.25,6.5c0,0-22.75-129.25,65.25-130.5s105.25,114,105.25,114L229.893,129.905z"/>
<g>
	<path fill="#EFF0F0" stroke="#130F06" d="M254.436,101.798l-20.333,2.611c-3.286,0.422-5.608,3.429-5.187,6.715l1.019,7.935
		c0.422,3.287,3.429,5.609,6.716,5.187l20.333-2.611c3.286-0.422,5.608-3.429,5.187-6.715l-1.019-7.935
		C260.73,103.698,257.723,101.376,254.436,101.798z M259.179,114.56c0.322,2.509-1.588,4.822-4.264,5.166l-16.562,2.127
		c-2.678,0.344-5.11-1.412-5.433-3.92l-0.778-6.059c-0.321-2.508,1.589-4.822,4.266-5.166l16.562-2.126
		c2.677-0.344,5.109,1.412,5.432,3.921L259.179,114.56z"/>
</g>
<g>
	<path fill="#EFF0F0" stroke="#130F06" d="M96.498,113.796l-20.333,2.611c-3.286,0.422-5.608,3.429-5.187,6.715l1.019,7.935
		c0.422,3.287,3.429,5.609,6.716,5.187l20.333-2.611c3.286-0.422,5.608-3.429,5.187-6.715l-1.019-7.935
		C102.792,115.696,99.785,113.374,96.498,113.796z M101.241,126.558c0.322,2.509-1.588,4.822-4.264,5.166l-16.562,2.127
		c-2.678,0.344-5.11-1.412-5.433-3.92l-0.778-6.059c-0.321-2.508,1.589-4.822,4.266-5.166l16.562-2.126
		c2.677-0.344,5.109,1.412,5.432,3.921L101.241,126.558z"/>
</g>
<path fill="#EE3224" stroke="#130F06" d="M345.643,361.655c0,0,19-3,11.5-67s-10.5-96.5-16-112s-20.5-54-84.5-53.5s-161,2.5-208,24
	s-43.736,41.882-44.5,49c-8,74.5-1.301,132.797,5.5,160c7,28,11,29,28,29c25.402,0,91-5,160.5-11S345.643,361.655,345.643,361.655z"
	/>
<path fill="#EE3224" stroke="#130F06" d="M355.143,322.155c0,0,3,18.5-4.5,25.5s-19,9-26,9.5s-273,26-273,26s-22,1.5-27.5-6.5
	s-7.5-6.5-9-39.5s-3.5-116.5-1.5-132s6-34.5,27-48s47-18.5,122.5-26.5s114,0,124.5,5.5s40,18,46.5,51.5
	S355.143,322.155,355.143,322.155z"/>
<polygon fill="#EE3224" stroke="#130F06" points="258.143,132.655 257.143,118.655 235.643,119.655 236.143,134.155 "/>
<polygon fill="#EE3224" stroke="#130F06" points="98.643,125.155 100.643,140.155 80.143,145.655 77.143,128.155 "/>
<path fill="#B32317" stroke="#130F06" d="M226.143,58.405c0,0-0.108-0.191-0.325-0.549c-3.102-5.104-28.442-44.038-78.675-41.701
	c-53.75,2.5-62.75,47.5-62.75,47.5l-2.25-13c0,0,17-48.25,61.25-48.5s66.5,19.5,77.5,41.75S226.143,58.405,226.143,58.405z"/>
<path fill="#EE3224" stroke="#130F06" d="M255.643,107.655l-20.5,3.5c0,0,3,3.5,0-6s-10-30-14.5-43s-27-64-75-59
	c-54.591,5.687-59,37-56.5,61s9,58,9,58l-21.5,4c0,0-18.5-112,59-124.5S248.643,81.655,255.643,107.655z"/>
</svg>
