<?xml version="1.0" encoding="utf-8"?>
<!-- Generator: Adobe Illustrator 12.0.1, SVG Export Plug-In . SVG Version: 6.00 Build 51448)  -->
<!DOCTYPE svg PUBLIC "-//W3C//DTD SVG 1.1//EN" "http://www.w3.org/Graphics/SVG/1.1/DTD/svg11.dtd" [
	<!ENTITY ns_svg "http://www.w3.org/2000/svg">
	<!ENTITY ns_xlink "http://www.w3.org/1999/xlink">
]>
<svg  version="1.1" id="Layer_1" xmlns="&ns_svg;" xmlns:xlink="&ns_xlink;" width="542.113" height="234.883"
	 viewBox="0 0 542.113 234.883" overflow="visible" enable-background="new 0 0 542.113 234.883" xml:space="preserve">
<g>
	<path fill-rule="evenodd" clip-rule="evenodd" fill="#B9E0F7" d="M520.116,2.472c4.184,8.858,4.674,21.104,5.999,32.996
		c1.326,11.901,2.71,24.526,2,34.996c-7.386-2.286-4.093-1.133-12.999-3c-2.058-13.171,5.654-30.614-1.999-36.996
		c-4.091-1.146-5.022,2.718-6.999,5c-5.628,6.493-10.803,21.075-15.998,29.997c-2.333,0-4.666,0-7,0
		c-1.794-5.919-4.459-12.099-3.999-17.998c0.706-9.058,22.395-41.835,33.996-44.994C516.337,1.595,518.222,3.172,520.116,2.472z"/>
	<path fill-rule="evenodd" clip-rule="evenodd" fill="#B9E0F7" d="M528.115,11.471c3.18-1.34,4.441,4.501,5,7.999
		c1.673,10.494,4.481,27.505,5.999,38.995c0.771,5.843,1.261,8.794,0.999,13.999c-3.041-0.958-5.98-2.019-8.999-3
		c-1.574-19.089-2.598-38.73-5.999-55.993C527.542,11.42,527.52,12.949,528.115,11.471z"/>
	<path fill-rule="evenodd" clip-rule="evenodd" fill="#B9E0F7" d="M29.177,38.467c-9.008,7.102-0.168,26.252-2,38.995
		c-9.495,2.242-2.744,0.76-12.999,3c-4.521-3.773-1.346-10.247-1-14.998c1.183-16.253,1.979-35.08,4-51.994
		c4.118-4.478,8.325-5.272,14.998,0c7.603,6.007,28.814,31.201,29.997,38.995c0.863,5.693-2.204,20.246-6,20.998
		c-4.962,0.982-11.533-12.878-13.998-16.998C37.355,48.409,36.333,41.643,29.177,38.467z"/>
	<path fill-rule="evenodd" clip-rule="evenodd" fill="#B9E0F7" d="M9.179,16.47c0.851-0.184,4.943,0.39,5,1
		c-0.662,13.593-2.861,33.577-4,47.994c-0.517,6.547,1.574,16.331-7.999,15.998c-1.281-5.906-0.79-9.012,0-14.998
		C4.303,50.36,3.321,30.192,9.179,16.47z"/>
	<path fill-rule="evenodd" clip-rule="evenodd" fill="#B9E0F7" d="M505.118,41.467c0.89,0.776,2.258,1.075,3.999,1
		c-0.31,1.357-2.503,0.83-3.999,1c0.161,1.172,1.822,0.843,2.999,1c-0.913,3.356-1.858,0.495-4.999,1
		C503.638,43.987,504.597,42.946,505.118,41.467z"/>
	<path fill-rule="evenodd" clip-rule="evenodd" fill="#B9E0F7" d="M32.176,50.465c0.566-0.934,2.78-1.515,1-2
		c4.114,0.08,6.415,6.592,8.999,10.999c2.596,4.427,5.708,9.597,6.999,13.999c-1.163-0.163-1.779,0.221-2,1
		c-4.163-6.843-11.24-16.08-11.999-22.997C34.616,49.207,33.617,52.678,32.176,50.465z"/>
	<path fill-rule="evenodd" clip-rule="evenodd" fill="#B9E0F7" d="M441.125,70.463c0.381-1.903,1.271,0.639,1,2
		C441.745,74.366,440.853,71.824,441.125,70.463z"/>
	<path fill-rule="evenodd" clip-rule="evenodd" fill="#B9E0F7" d="M428.127,73.463c0.38-1.904,1.271,0.638,0.999,2
		C428.747,77.366,427.855,74.824,428.127,73.463z"/>
	<path fill-rule="evenodd" clip-rule="evenodd" fill="#B9E0F7" d="M96.168,74.462c3.603-0.957,1.772,4.316,1,5
		c3.007,1.008,1.772-2.228,2-4c2.607-2.762,0.041,14.409-1,7.999c-0.973,0.027-0.776,1.224-1,2
		C93.192,84.304,97.627,79.194,96.168,74.462z"/>
	<path fill-rule="evenodd" clip-rule="evenodd" fill="#B9E0F7" d="M101.168,74.462c2.667-0.708,1.801,10.682-1,10.999
		C102.021,83.314,100.843,78.137,101.168,74.462z"/>
	<path fill-rule="evenodd" clip-rule="evenodd" d="M92.169,76.462c1.546-3.057,0.88,4.337,1,5.999
		C91.623,85.518,92.289,78.125,92.169,76.462z"/>
	<path fill-rule="evenodd" clip-rule="evenodd" d="M449.125,75.462c0.666,0,1.333,0,2,0c0,0.667,0,1.333,0,2c-0.667,0-1.334,0-2,0
		C449.125,76.795,449.125,76.129,449.125,75.462z"/>
	<path fill-rule="evenodd" clip-rule="evenodd" fill="#B9E0F7" d="M123.165,78.462c0.381-1.903,1.272,0.639,1,2
		C123.784,82.365,122.893,79.823,123.165,78.462z"/>
	<path fill-rule="evenodd" clip-rule="evenodd" fill="#B9E0F7" d="M130.164,88.461c-2.998-0.666-1.637-10.699,2-10.999
		C130.92,80.551,130.607,84.571,130.164,88.461z"/>
	<path fill-rule="evenodd" clip-rule="evenodd" d="M60.173,79.462c0.651-2.819,1.161,2.303,1,3
		C60.709,84.47,59.294,83.269,60.173,79.462z"/>
	<path fill-rule="evenodd" clip-rule="evenodd" fill="#B9E0F7" d="M429.126,80.462c1.513-3.53,1.896,1.841,1,2
		C429.536,82.566,428.872,81.058,429.126,80.462z"/>
	<path fill-rule="evenodd" clip-rule="evenodd" d="M145.163,88.461c0.062-0.071-0.069-0.988,0-1
		C149.964,86.614,140.415,93.887,145.163,88.461z"/>
	<path fill-rule="evenodd" clip-rule="evenodd" fill="#B9E0F7" d="M47.175,186.448c-6.698-14.233-9.591-30.512-13.999-45.994
		c-4.442-15.606-10.125-30.833-12.998-46.994C30.392,123.241,38.228,155.401,47.175,186.448z"/>
	<path fill-rule="evenodd" clip-rule="evenodd" fill="#B9E0F7" d="M330.139,95.46c0.161-1.172,1.823-0.843,3-1
		c0.057,4.275,1.342,7.324,1.999,10.999c-1.666,0-3.333,0-4.999,0c0.225-4.224-1.541-6.458-2-9.999c3.033-0.033,2.491,3.508,3,5.999
		C333.554,100.555,331.566,95.815,330.139,95.46z"/>
	<path fill-rule="evenodd" clip-rule="evenodd" fill="#B9E0F7" d="M325.14,96.46c2.91-2.193,3.563,6.396,3.999,9.999
		C326.538,104.395,327.742,98.524,325.14,96.46z"/>
	<path fill-rule="evenodd" clip-rule="evenodd" d="M215.154,98.459c3.038,1.232-1.084,3.438,0,6
		C212.338,103.448,215.43,100.212,215.154,98.459z"/>
	<path fill-rule="evenodd" clip-rule="evenodd" d="M471.122,101.459c3.02,2.126-2.863,3.724-3,6
		C465.103,105.333,470.986,103.735,471.122,101.459z"/>
	<path fill-rule="evenodd" clip-rule="evenodd" d="M303.143,102.459c1.973,2.359,2.354,6.311,2.999,9.999
		C303.19,111.078,303.837,106.097,303.143,102.459z"/>
	<path fill-rule="evenodd" clip-rule="evenodd" d="M388.132,104.459c0.89,0.615,1.788,1.208,1.999,0
		c3.147,3.306-4.65,5.714-4.999,5.999C381.921,108.141,388.609,107.347,388.132,104.459z"/>
	<path fill-rule="evenodd" clip-rule="evenodd" fill="#B9E0F7" d="M27.177,125.456c-1.97-1.696-2.683-4.649-3-7.999
		C26.147,119.153,26.86,122.107,27.177,125.456z"/>
	<path fill-rule="evenodd" clip-rule="evenodd" fill="#B9E0F7" d="M251.149,124.456c1.44,0.227,0.349,2.984,2,3
		c-0.449,8.115,0.43,14.901,1,21.997c0.282,1.786-0.945,2.052-1,1C252.541,141.729,251.623,133.314,251.149,124.456z"/>
	<path fill-rule="evenodd" clip-rule="evenodd" fill="#B9E0F7" d="M284.145,125.456c0.65-2.819,1.16,2.303,1,3
		C284.681,130.464,283.266,129.263,284.145,125.456z"/>
	<path fill-rule="evenodd" clip-rule="evenodd" d="M33.176,126.456C36.85,129.066,32.593,133.324,33.176,126.456L33.176,126.456z"/>
	<path fill-rule="evenodd" clip-rule="evenodd" fill="#B9E0F7" d="M286.145,126.456c2.348,5.704-0.723,14.592-1,20.997
		C282.754,141.707,286.7,133.694,286.145,126.456z"/>
	<path fill-rule="evenodd" clip-rule="evenodd" d="M290.144,127.456c0.65-2.819,1.161,2.303,1,2.999
		C290.681,132.464,289.266,131.263,290.144,127.456z"/>
	<path fill-rule="evenodd" clip-rule="evenodd" fill="#B9E0F7" d="M274.146,128.456c0.651-2.819,1.161,2.303,1,2.999
		C274.683,133.464,273.268,132.263,274.146,128.456z"/>
	<path fill-rule="evenodd" clip-rule="evenodd" fill="#B9E0F7" d="M263.147,129.456c1.151-3.235,1.132,2.685,1,3.999
		C262.996,136.69,263.016,130.771,263.147,129.456z"/>
	<path fill-rule="evenodd" clip-rule="evenodd" d="M270.147,129.456c1.453-7.893,0.73,26.353,0,7.999
		C270.237,139.721,269.286,134.13,270.147,129.456z"/>
	<path fill-rule="evenodd" clip-rule="evenodd" fill="#B9E0F7" d="M280.145,129.456c0.381-1.904,1.272,0.638,1,1.999
		C280.765,133.358,279.874,130.817,280.145,129.456z"/>
	<path fill-rule="evenodd" clip-rule="evenodd" fill="#B9E0F7" d="M254.149,130.455c1.497,1.528,2.13,12.517,2,18.998
		C254.813,148.553,254.246,137.394,254.149,130.455z"/>
	<path fill-rule="evenodd" clip-rule="evenodd" fill="#B9E0F7" d="M256.148,130.455c0.651-2.819,1.161,2.304,1,3
		C256.685,135.463,255.27,134.262,256.148,130.455z"/>
	<path fill-rule="evenodd" clip-rule="evenodd" d="M268.147,131.455c0.381-1.903,1.272,0.639,1,2
		C268.766,135.358,267.875,132.816,268.147,131.455z"/>
	<path fill-rule="evenodd" clip-rule="evenodd" fill="#B9E0F7" d="M283.145,133.455c1.151-3.235,1.132,2.686,1,4
		C282.994,140.689,283.013,134.77,283.145,133.455z"/>
	<path fill-rule="evenodd" clip-rule="evenodd" fill="#B9E0F7" d="M258.148,135.455c0.65-2.819,1.161,2.303,1,2.999
		C258.685,140.463,257.27,139.262,258.148,135.455z"/>
	<path fill-rule="evenodd" clip-rule="evenodd" d="M246.15,136.455c0.38-1.903,1.272,0.638,1,1.999
		C246.769,140.358,245.877,137.816,246.15,136.455z"/>
	<path fill-rule="evenodd" clip-rule="evenodd" d="M243.15,138.454c0.381-1.903,1.272,0.639,1,2
		C243.769,142.357,242.878,139.815,243.15,138.454z"/>
	<path fill-rule="evenodd" clip-rule="evenodd" fill="#B9E0F7" d="M273.146,138.454c1.151-3.234,1.131,2.686,1,4
		C272.995,145.689,273.015,139.769,273.146,138.454z"/>
	<path fill-rule="evenodd" clip-rule="evenodd" fill="#B9E0F7" d="M275.146,139.454c0.651-2.819,1.161,2.304,1,3
		C275.683,144.462,274.268,143.261,275.146,139.454z"/>
	<path fill-rule="evenodd" clip-rule="evenodd" d="M246.15,141.454c1.377-3.183,0.989,3.533,1,4.999
		C245.772,149.636,246.16,142.921,246.15,141.454z"/>
	<path fill-rule="evenodd" clip-rule="evenodd" fill="#B9E0F7" d="M264.147,142.454c0.381-1.903,1.272,0.639,1,2
		C264.767,146.357,263.875,143.815,264.147,142.454z"/>
	<path fill-rule="evenodd" clip-rule="evenodd" fill="#B9E0F7" d="M282.145,143.454c0.381-1.903,1.272,0.639,1,2
		C282.764,147.357,281.873,144.815,282.145,143.454z"/>
	<path fill-rule="evenodd" clip-rule="evenodd" fill="#B9E0F7" d="M257.148,145.454c0.38-1.904,1.272,0.638,1,1.999
		C257.768,149.356,256.876,146.815,257.148,145.454z"/>
	<path fill-rule="evenodd" clip-rule="evenodd" d="M506.118,146.453c0.38-1.903,1.271,0.639,0.999,2
		C506.737,150.356,505.845,147.814,506.118,146.453z"/>
	<path fill-rule="evenodd" clip-rule="evenodd" d="M420.128,155.452c-3.02-2.125,2.863-3.723,2.999-5.999
		C426.147,151.579,420.264,153.177,420.128,155.452z"/>
	<path fill-rule="evenodd" clip-rule="evenodd" d="M502.118,150.453c2.815,1.01-0.276,4.246,0,5.999
		C499.081,155.22,503.202,153.014,502.118,150.453z"/>
	<path fill-rule="evenodd" clip-rule="evenodd" fill="#B9E0F7" d="M320.14,152.453c1.151-3.235,1.132,2.685,1,3.999
		C319.989,159.688,320.008,153.768,320.14,152.453z"/>
	<path fill-rule="evenodd" clip-rule="evenodd" d="M301.143,155.452c0.381-1.903,1.271,0.639,1,2
		C301.762,159.355,300.871,156.813,301.143,155.452z"/>
	<path fill-rule="evenodd" clip-rule="evenodd" d="M421.127,154.452c3.125,1.614-2.051,3.166-1.999,5
		C416.004,157.838,421.179,156.286,421.127,154.452z"/>
	<path fill-rule="evenodd" clip-rule="evenodd" d="M41.175,155.452c2.186,0.147,2.147,2.52,2,5
		C41.689,159.604,41.728,157.232,41.175,155.452z"/>
	<path fill-rule="evenodd" clip-rule="evenodd" fill="#B9E0F7" d="M224.152,156.452c0.651-2.819,1.161,2.304,1,3
		C224.689,161.46,223.274,160.259,224.152,156.452z"/>
	<path fill-rule="evenodd" clip-rule="evenodd" d="M502.118,168.451c-1.894-1.317-0.736-8.002,2-7.999
		C503.131,162.799,502.364,165.364,502.118,168.451z"/>
	<path fill-rule="evenodd" clip-rule="evenodd" d="M443.125,182.449C446.822,185.48,440.088,185.817,443.125,182.449
		L443.125,182.449z"/>
	<path fill-rule="evenodd" clip-rule="evenodd" fill="#B9E0F7" d="M506.118,40.467c0.24-2.578,1.72,1.373,3.999,0
		C509.966,42.954,506.731,40.759,506.118,40.467z"/>
	<path fill-rule="evenodd" clip-rule="evenodd" fill="#B9E0F7" d="M502.118,46.466c1.912,0.421,4.304,0.362,4,3
		c-1.794,0.127-2.109-1.224-4-1c-0.467,2.134,1.429,1.904,3,2c-3.084,4.249-5.252,9.413-6.999,14.999c-1.667,0-3.333,0-5,0
		c3.418-3.915,2.854-11.812,8.999-12.999C498.758,50.804,501.957,49.848,502.118,46.466z"/>
	<path fill-rule="evenodd" clip-rule="evenodd" d="M531.114,3.471c3.426,22.025,10.911,48.848,10.999,70.991
		c0.036,8.982-7.492,28.073-10.999,41.995c-1.727,6.854-3.18,13.996-4.999,20.998c-1.875,7.219-2.25,15.462-4.999,20.997
		c-3.744,7.536-19.162,20.162-25.997,26.996c-9.109,9.109-16.949,18.876-26.997,25.997c-26.823,19.011-76.866,25.098-109.986,11.999
		c-22.82-9.026-37.933-27.121-49.993-46.994c-5.946-9.799-12.517-24.382-24.997-27.997c-26.146-7.573-33.423,10.074-41.995,25.997
		c-4.088,7.594-8.981,15.667-12.999,20.997c-8.203,10.883-22.716,24.895-35.995,30.996c-29.609,13.605-84.314,9.91-108.987-4.999
		c-2.428-1.467-5.513-4.998-7.999-6.999c-12.608-10.151-25.034-22.21-37.995-33.996c-5.34-4.856-11.412-9.823-13.998-14.998
		c-5.21-10.426-6.833-25.532-10.999-39.995c-1.782-6.188-4.096-13.337-6-19.998c-1.97-6.895-5.49-13.474-5.999-18.998
		c-0.935-10.144,2.017-26.551,3-38.995c0.97-12.287,2.567-24.213,5-34.996c3.909-2.324,8.33-5.057,12.998-5
		c8.827,0.109,19.161,11.361,24.997,17.998c5.092,5.791,15.942,19.765,16.998,24.997c1.73,8.572-2.248,15.693-2,20.998
		c30.913,1.715,60.428,1.03,86.989,6.999c14.782,3.322,28.422,9.694,42.995,12.999c12.862,2.916,27.182,2.713,39.995,6.999
		c13.44,4.496,23.182,12.769,38.995,11.999c13.654-0.665,28.268-9.65,43.994-13.998c16.001-4.424,33.76-5.692,47.994-9.999
		c14.101-4.266,27.311-9.527,44.994-12.998c23.089-4.533,43.924-9.244,72.991-7.999c0.168-6.458-2.987-12.306-2-19.998
		c1.643-12.79,25.381-42.003,36.995-44.995C519.082-0.549,525.742-0.069,531.114,3.471z M35.176,51.465
		c0.758,6.917,7.836,16.154,11.999,22.997c0.221-0.779,0.837-1.163,2-1c-1.291-4.402-4.403-9.572-6.999-13.999
		c-2.584-4.406-4.885-10.919-8.999-10.999c1.78,0.485-0.434,1.066-1,2C33.617,52.678,34.616,49.207,35.176,51.465z M513.117,2.472
		c-11.602,3.159-33.29,35.936-33.996,44.994c-0.46,5.899,2.205,12.079,3.999,17.998c2.334,0,4.667,0,7,0
		c5.195-8.922,10.37-23.504,15.998-29.997c1.977-2.281,2.908-6.146,6.999-5c7.653,6.382-0.059,23.825,1.999,36.996
		c9.729,1.372,5.613,0.878,12.999,3c0.71-10.47-0.674-23.095-2-34.996c-1.325-11.891-1.815-24.137-5.999-32.996
		C518.222,3.172,516.337,1.595,513.117,2.472z M525.115,13.47c3.401,17.263,4.425,36.903,5.999,55.993
		c3.019,0.981,5.958,2.042,8.999,3c0.262-5.205-0.386-8.137-0.999-13.999c-1.231-11.776-4.326-28.501-5.999-38.995
		c-0.559-3.497-1.82-9.339-5-7.999C527.52,12.949,527.542,11.42,525.115,13.47z M42.175,56.465
		c2.465,4.12,9.036,17.98,13.998,16.998c3.796-0.752,6.863-15.305,6-20.998c-1.182-7.794-22.394-32.988-29.997-38.995
		c-6.673-5.272-10.88-4.478-14.998,0c-2.021,16.914-2.816,35.74-4,51.994c-0.346,4.751-3.521,11.225,1,14.998
		c10.09-2.899,6.797-1.582,12.999-3c1.832-12.743-7.009-31.894,2-38.995C36.333,41.643,37.355,48.409,42.175,56.465z M2.18,66.463
		c-0.729,5.994-1.281,9.092,0,14.998c9.573,0.333,7.482-9.45,7.999-15.998c1.139-14.417,3.337-34.401,4-47.994
		c-0.057-0.61-4.149-1.184-5-1C3.321,30.192,4.214,49.741,2.18,66.463z M500.118,66.463c4.973-0.306,9.174,0.158,12.999,1
		c-0.208-9.549,2.832-21.152,0-29.996C509.676,48.025,502.315,54.662,500.118,66.463z M510.117,40.467
		c-2.279,1.373-3.759-2.578-3.999,0C506.731,40.759,509.966,42.954,510.117,40.467z M503.118,45.466
		c3.141-0.505,4.086,2.356,4.999-1c-1.177-0.157-2.838,0.172-2.999-1c1.496-0.17,3.689,0.357,3.999-1
		c-1.741,0.075-3.109-0.223-3.999-1C504.597,42.946,503.638,43.987,503.118,45.466z M29.177,76.462
		c5.551-0.115,9.203-2.129,14.998-2C39.591,63.381,33.418,53.89,27.177,44.466C27.183,55.792,27.968,66.339,29.177,76.462z
		 M502.118,52.465c-6.146,1.187-5.581,9.083-8.999,12.999c1.667,0,3.333,0,5,0c1.747-5.585,3.915-10.75,6.999-14.999
		c-1.571-0.095-3.467,0.134-3-2c1.891-0.224,2.206,1.127,4,1c0.304-2.638-2.088-2.579-4-3
		C501.957,49.848,498.758,50.804,502.118,52.465z M466.123,66.463c-3.707,0.059-13.981,1.409-13.999,4
		c0.055-1.72-0.77-2.563-1.999-3c-0.575,1.758,1.208,5.875-1,6c0.146-2.48,0.187-4.853-2-5c-0.547,1.453,1.169,5.168-1,5
		c-0.057-10.236-0.987,2.977-2.999-4c0.139,5.073-2.402,15,1,7c0,1.333,0,2.666,0,4c13.396-1.98,31.389-3.292,47.993-2
		c20.001,1.556,38.264,10.974,47.994-3c-12.86-4.943-32.048-6.85-49.993-7.999c-6.502-0.416-18.768-3.111-20.998,1
		C469.247,66.435,468.133,66.432,466.123,66.463z M442.125,72.463c0.271-1.361-0.619-3.903-1-2
		C440.853,71.824,441.745,74.366,442.125,72.463z M336.138,104.459c5.089,0.064-1.665-8.36,1-8.999c1.498,2.169,1.704,5.628,2,8.999
		c1.966,0.299,1.982-1.351,3-2c14.181,0.922,33.979-9.323,49.993-13.998c6.762-1.974,15.235-1.759,16.998-5
		c0.224,0.776,0.027,1.972,1,2c0.484-1.181,1.066-2.267,2-3c1.759,4.874,3.54-2.273,4.999,2c1.386-0.614,0.15-3.849,2-4
		c-1.146,2.051,1.569,4.766,1.999,2c-1.032-0.696,3.047,0.187,5,0c0.144-3.853-0.146-12.462-3-9.999c1.65,0.444,1.65,7.555,0,7.999
		c0.155-3.822-0.052-7.281-2-8.999c-2.12,0.984,2.143,6.293-0.999,7.999c0.579-3.246-0.682-4.652-1-6.999
		c-4.365-0.305-4.446,2.958-7.999,1c-0.829,2.61,3.023,5.486,0,6.999c0.722-3.056-1.022-3.644-1-6
		c-7.148,1.851-17.477,0.521-19.998,6.999c0-1,0-2,0-3c-18.491,5.216-37.345,14.127-55.992,15.998
		C334.957,97.642,334.777,101.821,336.138,104.459z M331.139,101.459c-0.509-2.491,0.033-6.032-3-5.999
		c0.459,3.541,2.225,5.775,2,9.999c1.666,0,3.333,0,4.999,0c-0.657-3.675-1.942-6.723-1.999-10.999c-1.177,0.157-2.839-0.172-3,1
		C331.566,95.815,333.554,100.555,331.139,101.459z M429.126,75.462c0.272-1.361-0.619-3.903-0.999-2
		C427.855,74.824,428.747,77.366,429.126,75.462z M72.171,84.461c10.022,1.291,16.149-2.488,21.998,0
		c0.281-3.386,1.59-5.742,1-9.999c-3.642,0.309-6.507-0.159-8.999-1c-0.509,3.491-0.45,7.549-2,9.999
		c-0.591-4.257,0.719-6.613,1-9.999c-6.463-2.464-2.343,5.655-5,6.999c-0.728-2.271,1.801-7.801-2-6.999
		c-2.921,1.078,0.921,8.92-2,9.999c0-3.333,0-6.666,0-9.999c-1.333,0-2.666,0-4,0C72.171,77.129,72.171,80.795,72.171,84.461z
		 M64.172,74.462c-4.95-1.314-13.154,0.286-18.998,1C29.874,77.333,11.903,81.44,3.18,86.461c11.578,12.013,27.415-0.945,44.994,0
		c1.322-0.012,0.914-1.752,2-2c6.12,3.095,13.645-1.002,20.997,0c-0.958-3.042,2.142-10.141-2-9.999c-3.554-1.554-0.604,3.396-3,3
		C66.271,75.16,66.05,74.961,64.172,74.462z M97.168,85.461c0.224-0.776,0.027-1.972,1-2c1.04,6.41,3.606-10.761,1-7.999
		c-0.228,1.772,1.008,5.007-2,4c0.772-0.684,2.603-5.957-1-5C97.627,79.194,93.192,84.304,97.168,85.461z M100.168,85.461
		c2.801-0.317,3.667-11.707,1-10.999C100.843,78.137,102.021,83.314,100.168,85.461z M125.165,86.461
		c0.024-3.032,2.359-8.896,1-9.999C125.671,79.025,122.836,84.389,125.165,86.461z M127.165,87.461c0.024-3.032,2.359-8.896,1-9.999
		C127.671,80.025,124.836,85.389,127.165,87.461z M104.167,83.461c1.032-11.537-3.744,0.154,1,2c0.222-1.873,2.578-6.626,0-7.999
		C104.592,79.22,106.376,83.337,104.167,83.461z M124.165,80.462c0.272-1.361-0.619-3.903-1-2
		C122.893,79.823,123.784,82.365,124.165,80.462z M140.163,78.462c-1.466,2.2,0.119,7.452-3,7.999c1.045-2.288,0.634-6.031,2-7.999
		c-5.287,1.519-1.944,1.358-5.999-1c-0.007,4.327-2.321,6.345-2,10.999c6.399,0.933,12.126,2.539,17.998,4
		c0.058-4.276,1.342-7.324,2-10.999c-0.667,0-1.333,0-2,0c-0.057-0.61-0.149-1.184-1-1c0.054,1.72-0.77,2.563-2,3
		c-0.043-1.376,0.471-2.195,1-3c-1.742,0.075-3.11-0.224-4-1c0.15,2.483-0.517,4.149-2,5
		C141.597,82.238,143.46,79.04,140.163,78.462z M157.161,82.461c-2.318,0.319-3.839-0.161-4.999-1
		c-0.658,3.675-1.943,6.723-2,10.999c18.298,4.033,32.653,12.008,52.994,13.998c0.17-1.496-0.357-3.69,1-4
		c-1.306,4.306,2.068,3.932,4,5c0.619-4.381,2.595-7.404,3-11.999c-1.966-0.299-1.983,1.35-3,2c-2.166-4.669-7.89-2.38-15.998-4
		c-13.191-2.634-27.112-11.582-30.997-6.999c0.335-6.341-5.276-1.559-4.999,1C155.842,85.142,156.322,83.622,157.161,82.461z
		 M212.154,96.46c-0.735,3.93-2.085,7.247-3,10.999c4.03-2.996,1.549,0.209,6,1c0.532-3.8,1.502-7.163,3-9.999
		c0.224,0.776,0.027,1.972,1,2c0.144-3.144-2.564-3.435-5-4c0.099,3.099-0.453,5.546-2,6.999
		C211.325,100.848,215.178,97.973,212.154,96.46z M132.164,77.462c-3.637,0.3-4.998,10.333-2,10.999
		C130.607,84.571,130.92,80.551,132.164,77.462z M430.126,82.461c0.896-0.158,0.513-5.529-1-2
		C428.872,81.058,429.536,82.566,430.126,82.461z M517.116,107.458c-0.13,0.502,0.83,2.407,1,2c1.043-2.504,5.771-26.922,2-16.998
		c-0.802-3.468,1.489-3.844,1-7c-59.261-10.29-106.992-1.816-157.98,14.999c-27.301,9.003-53.515,11.738-67.991,18.998
		c-0.707,0.354-0.195,3.264-2,1c-0.976,3.554-2.075,7.009-4,1.999c-1.058,8.608-1.354,17.977-2.999,25.997
		c5.481-1.517,0.294-13.703,4.999-15.998c-0.112,5.161-4.308,14.839,0,17.998c0.171-1.496-0.357-3.69,1-4c0,2,0,4,0,6
		c3.314,0.744,4.338,3.065,5.999,2.999c19.507,38.002,46.114,76.521,106.986,72.991c38.616-2.239,67.758-16.084,84.99-42.995
		c2.038,2.009,1.96-0.441,3.999-0.999c0.289-3.045-0.159-6.825,3-7c-0.203,1.274-2.907,4.898-1,5
		c3.083-2.583,2.355-8.977,4.999-11.999c0.323,2.406-2.851,9.432-1,6.999C506.781,159.887,512.188,126.515,517.116,107.458z
		 M20.178,93.46c2.874,16.161,8.556,31.388,12.998,46.994c4.408,15.482,7.301,31.761,13.999,45.994
		C38.228,155.401,30.392,123.241,20.178,93.46z M24.178,117.457c0.317,3.35,1.029,6.303,3,7.999
		C26.86,122.107,26.147,119.153,24.178,117.457z M33.176,146.453c-0.553-1.78-0.514-4.152-2-4.999
		C31.076,143.337,32.399,148.741,33.176,146.453z M40.175,170.45c-0.553-1.78-0.514-4.152-2-4.999
		C38.075,167.333,39.398,172.738,40.175,170.45z M239.151,127.456c-0.042-3.291-1.688-4.978-1-8.999c-1.966-0.299-1.983,1.35-3,2
		c1.247-4.246-3.325-2.674-3.999-5c-38.557-5.886-75.457-22.127-116.986-26.996c-24.62-2.887-53.343-1.292-78.99,2
		c-1.651,0.016-0.56,2.773-2,3c-3.359-5.496-3.562,3.418-7.999-1c-2.356-0.088,2.357,6.086,0,5.999c-2.251-0.416,0.15-5.482-3-5
		c4.27,16.229,9.253,32.582,13.998,48.994c4.729,16.355,7.978,33.271,14.999,47.994c-1.427-7.915-6.319-17.665-6-23.997
		c2.632,8.366,5.66,16.337,6.999,25.997c8.809,5.036,14.399,13.57,21.998,19.997c19.177,16.22,51.492,22.655,85.989,19.997
		c45.314-3.49,65.354-34.084,81.99-65.991c2.604-4.994,6.303-8.589,6.999-11.999c1.084-5.312-1.093-10.217,0-14.998
		c2.819,2.847-1.603,12.935,3,13.998c0.675-3.074-0.689-6.341-1-9.998c-0.729-8.598,1.73-20.969-5.999-20.998
		c0.801,2.582,2.245,9.688,0,11.999c-0.329-6.827,0.503-9.501-2-12.998c-0.642,4.023,1.3,10.632-1,12.998
		c0.221-5.248,0.278-15.573-3-13.998C240.797,120.593,240.797,127.32,239.151,127.456z M21.178,105.458
		c-0.644-3.688-1.026-7.639-3-9.999C18.823,99.148,19.205,103.099,21.178,105.458z M329.139,106.458
		c-0.436-3.603-1.089-12.191-3.999-9.999C327.742,98.524,326.538,104.395,329.139,106.458z M327.139,106.458
		c-0.097-3.021-3.692-11.681-2.999-8.999C324.548,101.05,324.393,105.206,327.139,106.458z M307.142,101.459
		c-3.715,0.688-2.614,0.482-6.999,1c-1.727,0.606,0.077,4.743-2,5c-0.262-6.518-7.444-1.086-5.999,1c-0.126-1.308-0.282-2.252-2-2
		c-5.968,0.879-11.253,5.391-17.998,6c-9.621,0.867-16.418-2.221-21.997-4c-6.7-2.137-6.09-0.999-8.999-3.999
		c-0.138,4.152-0.658,0.202-2,0c-1.611,3.055-1.211,8.121-3,10.998c2.487-0.154,3.095,1.571,5,2c-0.1-3.099,0.453-5.546,2-6.999
		c0.22,3.22-1.769,4.23-1,7.999c3.925-2.175,2.216,0.997,4,2c4.592,2.581,13.804,4.488,18.998,4.999
		c18.896,1.859,30.289-12.406,41.995-11.998c1.474-4.856-3.804-8.129-1-10.999c1.184,3.149,1.124,7.542,3,9.999
		c-0.989-2.675,2.209-8.345,0-6C308.365,108.747,307.042,103.341,307.142,101.459z M237.151,103.459
		c-0.217,3.492-3.987,8.62-2,10.999C235.841,111.438,238.819,105.519,237.151,103.459z M233.151,113.458
		c-0.079-3.789,4.543-8.064,2-10.999c-0.772,2.771-0.998,6.699-3,3C234.636,107.601,230.849,115.211,233.151,113.458z
		 M232.151,109.458c-0.485-1.182-1.066-2.267-2-3C229.998,107.795,231.723,111.971,232.151,109.458z M515.116,128.456
		c0.225-0.776,0.028-1.973,1-2c-0.075,1.4,0.224,3.824,1,2c-2.484-2.143,1.303-9.753-1-7.999
		C516.49,123.243,512.308,126.541,515.116,128.456z M25.177,126.456C27.729,134.546,23.442,119.846,25.177,126.456L25.177,126.456z
		 M253.149,150.453c0.055,1.052,1.282,0.786,1-1c-0.57-7.096-1.449-13.882-1-21.997c-1.651-0.016-0.56-2.773-2-3
		C251.623,133.314,252.541,141.729,253.149,150.453z M285.145,128.456c0.16-0.697-0.35-5.819-1-3
		C283.266,129.263,284.681,130.464,285.145,128.456z M285.145,147.453c0.277-6.405,3.348-15.293,1-20.997
		C286.7,133.694,282.754,141.707,285.145,147.453z M267.147,145.454c1.614-1.588,3.166-0.389,5,0
		c-0.774-7.107,1.512-11.153,1-17.998c-6.621-2.262-6.006,5.832-7.999,0C265.184,134.085,265.573,140.361,267.147,145.454z
		 M275.146,131.455c0.161-0.696-0.349-5.818-1-2.999C273.268,132.263,274.683,133.464,275.146,131.455z M264.147,133.455
		c0.132-1.314,0.151-7.234-1-3.999C263.016,130.771,262.996,136.69,264.147,133.455z M281.145,131.455
		c0.272-1.361-0.619-3.903-1-1.999C279.874,130.817,280.765,133.358,281.145,131.455z M256.148,149.453
		c0.13-6.481-0.503-17.47-2-18.998C254.246,137.394,254.813,148.553,256.148,149.453z M257.148,133.455c0.161-0.696-0.349-5.819-1-3
		C255.27,134.262,256.685,135.463,257.148,133.455z M284.145,137.455c0.132-1.314,0.151-7.235-1-4
		C283.013,134.77,282.994,140.689,284.145,137.455z M259.148,138.454c0.161-0.696-0.349-5.818-1-2.999
		C257.27,139.262,258.685,140.463,259.148,138.454z M274.146,142.454c0.132-1.314,0.152-7.234-1-4
		C273.015,139.769,272.995,145.689,274.146,142.454z M276.146,142.454c0.161-0.696-0.349-5.819-1-3
		C274.268,143.261,275.683,144.462,276.146,142.454z M265.147,144.454c0.272-1.361-0.619-3.903-1-2
		C263.875,143.815,264.767,146.357,265.147,144.454z M283.145,145.454c0.272-1.361-0.619-3.903-1-2
		C281.873,144.815,282.764,147.357,283.145,145.454z M258.148,147.453c0.272-1.361-0.62-3.903-1-1.999
		C256.876,146.815,257.768,149.356,258.148,147.453z M38.176,163.451c-1.264-3.735-1.291-8.708-4-10.998
		c1.3,2.482-2.934,4.149,0,4.999c0.224-0.775,0.027-1.973,1-2C35.439,158.246,37.057,164.826,38.176,163.451z M505.118,168.451
		c0.177-2.143,3.335-9.753,1-7.999C505.94,162.594,502.782,170.204,505.118,168.451z"/>
	<path fill-rule="evenodd" clip-rule="evenodd" fill="#B9E0F7" d="M126.165,76.462c1.359,1.103-0.975,6.966-1,9.999
		C122.836,84.389,125.671,79.025,126.165,76.462z"/>
	<path fill-rule="evenodd" clip-rule="evenodd" fill="#B9E0F7" d="M128.165,77.462c1.359,1.103-0.976,6.967-1,9.999
		C124.836,85.389,127.671,80.025,128.165,77.462z"/>
	<path fill-rule="evenodd" clip-rule="evenodd" fill="#B9E0F7" d="M105.167,77.462c2.578,1.373,0.222,6.126,0,7.999
		c-4.744-1.846,0.032-13.537-1-2C106.376,83.337,104.592,79.22,105.167,77.462z"/>
	<path fill-rule="evenodd" clip-rule="evenodd" fill="#B9E0F7" d="M212.154,103.459c1.547-1.453,2.099-3.9,2-6.999
		c2.435,0.564,5.143,0.856,5,4c-0.973-0.028-0.776-1.224-1-2c-1.497,2.836-2.468,6.198-3,9.999c-4.451-0.79-1.97-3.996-6-1
		c0.914-3.752,2.264-7.068,3-10.999C215.178,97.973,211.325,100.848,212.154,103.459z M215.154,104.459
		c-1.084-2.561,3.038-4.767,0-6C215.43,100.212,212.338,103.448,215.154,104.459z"/>
	<path fill-rule="evenodd" clip-rule="evenodd" fill="#B9E0F7" d="M500.118,177.449c-1.851,2.433,1.323-4.593,1-6.999
		c-2.644,3.022-1.916,9.416-4.999,11.999c-1.907-0.102,0.797-3.726,1-5c-3.159,0.175-2.711,3.955-3,7
		c-2.039,0.558-1.961,3.008-3.999,0.999c-17.232,26.911-46.374,40.756-84.99,42.995c-60.872,3.53-87.479-34.989-106.986-72.991
		c-1.661,0.066-2.685-2.255-5.999-2.999c0-2,0-4,0-6c-1.357,0.31-0.829,2.504-1,4c-4.308-3.159-0.112-12.837,0-17.998
		c-4.705,2.295,0.482,14.481-4.999,15.998c1.645-8.021,1.941-17.389,2.999-25.997c1.925,5.01,3.024,1.555,4-1.999
		c1.805,2.264,1.293-0.646,2-1c14.477-7.259,40.69-9.995,67.991-18.998c50.988-16.815,98.72-25.289,157.98-14.999
		c0.489,3.156-1.802,3.531-1,7c3.771-9.925-0.957,14.494-2,16.998c-0.17,0.408-1.13-1.498-1-2
		C512.188,126.515,506.781,159.887,500.118,177.449z M507.117,141.454c-0.725,3.616,1.726,3.616,1,0
		C510.475,139.471,508.025,139.471,507.117,141.454z M504.118,160.452c-2.736-0.003-3.894,6.682-2,7.999
		C502.364,165.364,503.131,162.799,504.118,160.452z M402.13,94.46c-14.922,3.391-31.473,6.964-43.995,12.999
		c-12.154,5.857-36.875,21.955-39.994,38.995c-2.402,13.121,1.934,23.824,5.999,31.996c6.971,14.012,19.268,28.476,30.996,34.996
		c37.466,20.827,98.056,8.405,122.984-21.997c9.918-12.096,15.784-25.212,20.997-43.995c3.156-11.37,7.713-27.248,6-36.995
		c-4.2-23.899-36.419-23.721-50.994-22.997C435.428,88.39,419.785,90.448,402.13,94.46z M518.116,94.46
		c-0.604-2.472,2.557-8.884,0-6.999C518.945,90.071,515.092,92.947,518.116,94.46z M291.144,130.455c0.161-0.696-0.35-5.818-1-2.999
		C289.266,131.263,290.681,132.464,291.144,130.455z M507.117,148.453c0.272-1.361-0.619-3.903-0.999-2
		C505.845,147.814,506.737,150.356,507.117,148.453z M502.118,156.452c-0.276-1.753,2.815-4.989,0-5.999
		C503.202,153.014,499.081,155.22,502.118,156.452z M504.118,158.452c0.329-2.337,1.201-4.131,2-5.999
		C503.481,151.911,502.713,158.254,504.118,158.452z M302.143,157.452c0.271-1.361-0.619-3.903-1-2
		C300.871,156.813,301.762,159.355,302.143,157.452z"/>
	<path fill-rule="evenodd" clip-rule="evenodd" d="M508.117,141.454c0.726,3.616-1.725,3.616-1,0
		C508.025,139.471,510.475,139.471,508.117,141.454z"/>
	<path fill-rule="evenodd" clip-rule="evenodd" d="M518.116,87.461c2.557-1.885-0.604,4.527,0,6.999
		C515.092,92.947,518.945,90.071,518.116,87.461z"/>
	<path fill-rule="evenodd" clip-rule="evenodd" fill="#B9E0F7" d="M31.177,141.454c1.486,0.847,1.447,3.219,2,4.999
		C32.399,148.741,31.076,143.337,31.177,141.454z"/>
	<path fill-rule="evenodd" clip-rule="evenodd" fill="#B9E0F7" d="M38.176,165.451c1.486,0.847,1.447,3.219,2,4.999
		C39.398,172.738,38.075,167.333,38.176,165.451z"/>
	<path fill-rule="evenodd" clip-rule="evenodd" fill="#B9E0F7" d="M239.151,120.457c3.277-1.575,3.22,8.75,3,13.998
		c2.3-2.366,0.358-8.975,1-12.998c2.503,3.497,1.671,6.171,2,12.998c2.245-2.312,0.801-9.417,0-11.999
		c7.729,0.029,5.27,12.4,5.999,20.998c0.311,3.657,1.675,6.924,1,9.998c-4.602-1.063-0.18-11.151-3-13.998
		c-1.093,4.781,1.084,9.687,0,14.998c-0.696,3.41-4.396,7.005-6.999,11.999c-16.636,31.907-36.676,62.501-81.99,65.991
		c-34.497,2.658-66.812-3.777-85.989-19.997c-7.599-6.427-13.188-14.961-21.998-19.997c-1.339-9.66-4.367-17.631-6.999-25.997
		c-0.32,6.332,4.572,16.082,6,23.997c-7.021-14.724-10.27-31.639-14.999-47.994c-4.745-16.412-9.728-32.765-13.998-48.994
		c3.149-0.483,0.749,4.584,3,5c2.357,0.087-2.356-6.087,0-5.999c4.438,4.417,4.64-4.497,7.999,1c1.44-0.226,0.349-2.984,2-3
		c25.646-3.292,54.37-4.886,78.99-2c41.529,4.869,78.429,21.11,116.986,26.996c0.674,2.326,5.246,0.754,3.999,5
		c1.017-0.65,1.034-2.299,3-2c-0.688,4.021,0.958,5.708,1,8.999C240.797,127.32,240.797,120.593,239.151,120.457z M33.176,126.456
		C32.593,133.324,36.85,129.066,33.176,126.456L33.176,126.456z M35.176,118.457c2.031,3.944,4.566,25.815,6.999,16.998
		c0.829,2.61-3.024,5.485,0,6.999c0.898-4.3,0.898,0.283,0,2c2.335-0.479,2.864,5.917,3,7.999c0.118,1.804,5.996,5.67,1,6.999
		c1.463,2.319,3.169-1.953,3,1.999c15.392,44.112,49.799,70.088,110.986,64.992c34.178-2.846,57.733-27.338,66.991-57.992
		c5.239-17.346-4.416-34.967-13.998-42.995c-23.235-19.467-65.847-29.94-101.987-31.996c-39.406-2.241-77.534-1.193-71.991,36.995
		C38.515,126.42,36.886,118.12,35.176,118.457z M35.176,115.457c-1.714-2.285-0.95-7.049-3-8.999
		C31.75,110.268,33.712,116.855,35.176,115.457z M247.149,138.454c0.272-1.361-0.619-3.902-1-1.999
		C245.877,137.816,246.769,140.358,247.149,138.454z M244.15,140.454c0.272-1.361-0.619-3.903-1-2
		C242.878,139.815,243.769,142.357,244.15,140.454z M41.175,153.452c-0.579-5.42-1.898-10.1-4-13.998
		C37.755,144.875,39.074,149.555,41.175,153.452z M247.149,146.453c-0.01-1.466,0.378-8.182-1-4.999
		C246.16,142.921,245.772,149.636,247.149,146.453z M43.175,160.452c0.147-2.48,0.186-4.853-2-5
		C41.728,157.232,41.689,159.604,43.175,160.452z"/>
	<path fill-rule="evenodd" clip-rule="evenodd" fill="#FFFFFF" d="M397.131,96.46c1.135,0.19,0.555,1.003,0,1
		c0.353,1.567,1.76-0.875,1.999,1c1.136-0.19,0.556-1.003,0-1c9.573-4.765,32.978-7.074,48.994-8.999
		c26.201-3.149,54.21,4.053,50.993,23.997c-0.395,2.449-0.403,2.35-2.999,3.999c0.353,1.401,1.76,0.087,2-1
		c2.197,0.702-5.616,9.054-5,5c-1.55,0.904-0.52,3.681,0,3.999c-4.399,2.816-3.101,5.783-8.999,9.999c0.904,2.708,2.237-2.286,4-2
		c1.317-1.864-2.775,4.765-5,5.999c-0.655,0.364-2.166-0.361-2.999,3c6.905-4.446,10.129-11.593,16.998-16.998
		c1.105,0.237-0.354,3.663,0,3c-3.193,5.973-14.889,9.499-5,6.999c1.018,3.794-4.695,3.396-6.999,3.999
		c-2.591,3.742-6.46,6.205-8.999,9.999c0.811-0.189,0.997-1.003,2-1c0.892,0.327-4.655,1.824-4.999,5.999
		c-1.401-0.353-0.087-1.76,1-1.999c-0.19-1.136-1.004-0.556-1,0c1.233-0.488,3.341-9.492-1-3c-0.714,1.067-0.361,3.522,0,3
		c-3.705,5.363-8.929,8-5.999,7.999c2.067,2.095-1.349,1.429-4,1c0.25,1.921-1.937,4.695-3.999,6.999
		c4.084-0.058,7.75-5.223,10.998-8.999c0.973,0.027,0.776,1.224,1,2c3.088-3.579,6.121-7.211,9.999-9.999
		c-0.715-3.865-1.271-3.944,1-6.999c3.346,0.903,0.873,2.236,0,3.999c0.89-0.614,1.788-1.208,1.999,0
		c1.602-3.008,9.439-6.786,11.999-11.998c-5.96,54.235-51.49,91.75-117.985,78.99c0.443-0.891,0.878-1.789,2-2
		c-0.294-2.378-2.706,1.111-3,2c-2.087-1.194,3.164-3.424,3-6c1.086,0.248,0.678,1.988,2,2c-1.062-3.02,1.066-4.403,3.999-7.999
		c-2.951,1.382-4.048,4.618-6.999,5.999c-0.311,1.772-6.153,6.128-4,4c3.407-4.926,8.592-8.073,11.999-12.998
		c1.453,0.442-0.102,0.878,0,1.999c6.985-2.453,5.305-12.865,11.998-10.998c-3.605-4.341,7.952-8.847,9.999-13.998
		c-7.841,4.339-13.282,14.112-18.997,19.997c-5.101,5.252-12.342,9.813-16.998,16.998c0.427-5.918,10.131-11.19,13.998-16.998
		c-2.263-2.195-3.721,4.896-6.999,4.999c8.145-9.853,17.548-18.447,25.996-27.996c-9.846,7.151-16.348,17.647-25.996,24.997
		c-0.7,3.077-0.7,1.921,0,4.999c-4.781-0.071-7.799,3.941-10.999,7.999c-0.653-4.01,6.613-8.701,9.999-11.998
		c-3.407,0.28-8.592,7.391-11.999,10.998c-0.845-2.548,5.162-6.809,7-9.999c-3.752,2.915-7.085,6.248-9.999,9.999
		c-3.581-2.126-0.317-3.723,1-5.999c-2.232,0.435-3.565,1.768-4,3.999c-17.467-7.584-28.98-26.271-33.995-42.994
		c5.872-0.714,6.236-10.271,11.998-7.999c-4.4-2.244,2.243-4.008,3-6.999c-3.548,1.017-5.592,6.97-8.999,8.999
		c0.359-0.215-6.309,1.287-5.999,3.999c-0.434-3.799,3.95-3.563,6.999-8.999c-1.621-1.554-5.021,3.596-6,6
		c-7.021-1.095-3.511-15.376-2.999-20.998c6.851-4.481,10.771-11.892,18.997-14.998c-2.008-2.039,0.442-1.961,1-3.999
		c-5.201,3.852-6.639,6.906-9.998,8.999c-0.672,0.418,3.12-4.396,6.999-7c-3.921-2.328-8.593,11.308-12.999,11.999
		c-2.937,0.461,8.937-11.894,11.999-13.998c0.378-0.261,4.725-1.425,4.999,1c5.24-11.031,26.775-16.829,39.995-20.998
		c3.054-0.963,12.258-5.57,7.999,0c-0.591,0.773-1.941,0.628-2,2c0.065-1.536,7.391,0.819,2,2c1.726-0.378,1.809-1.077,4.999-5
		c-2.038,1.745-1.96-0.745-3.999,1C394.022,104.868,393.519,98.213,397.131,96.46z M468.122,154.452
		C460.967,159.563,470.222,152.952,468.122,154.452L468.122,154.452z M388.132,193.447c-2.154,2.129,3.688-2.228,3.999-3.999
		c4.748-2.688,8.769-9.263,11.999-12.998c0.889-1.029,5.305-0.371,1.999-3C400.758,180.743,393.411,186.061,388.132,193.447z
		 M410.129,164.451c-2.569,2.788-9.545,6.421-7.999,9.999c1.755-1.578,2.074-4.592,4.999-5c1.783,2.689-4.403,1.933-1,3
		C407.352,170.742,410.203,162.774,410.129,164.451z M381.133,196.447c4.94-7.396,15.115-14.872,17.997-20.997
		C394.339,182.983,382.299,189.227,381.133,196.447z M392.131,179.449c-3.47,6.205-13.841,10.811-13.998,16.998
		C381.72,190.359,391.581,185.243,392.131,179.449z M370.134,199.447c-0.718,3.279-10.162,7.381-5.999,8.998
		C364.679,204.623,372.724,203.082,370.134,199.447z M355.136,140.454c4.701-0.923,1.588-3.152,1-5.999
		c2.938,3.428,6.812-0.897,4.999,0c-1.122-0.102-1.557,1.453-2,0c2.306,0.306,1.111-2.889,3-3c4.473,3.193,5.44-6.434,4.999-5.999
		c2.037-2.008,5.579-1.42,6.999-3c-0.38,0.424-2.159-1.61-1.999-1.999c1.29-3.139,13.6-11.254,12.998-13.999
		c-5.257,2.567-8.741,11.708-13.998,10.999c3.218,5.368-7.218,5.631-4,10.999c-4.373-1.442-6.286,4.92-8.999,3.999
		c4.418-3.581,8.418-7.581,11.999-11.998c-12.308,11.218-21.721,19.718-32.996,30.996c-0.224-0.776-0.027-1.973-1-2
		c3.168,2.08-4.779,8.442-3.999,7.999c2.067-1.175,13.577-10.154,13.998-11.998c0.204-0.893,1.369-3.657,4-5
		c-21.977,11.217,2.881,0.471,2.999,0c-0.067,0.271-2.621,1.82-2.999,2c-6.227,2.947,0.378,1.212-9.999,10.998
		c3.928-2.311,6.944-5.122,8.999-8.998c0.88-1.66,2.915-1.232,4.999-3c0.078-0.066,0.623-5.104,3-3
		C356.014,138.666,355.58,139.564,355.136,140.454z M376.133,120.457c2.273-1.504,7.45-5.955,7.999-7.999
		c0.024-0.092-3.241-1.426-1,0c-0.56,2.077-1.56,2.118-2.999,1c-1.382,2.951-4.618,4.048-6,6.999c2.951-1.382,4.049-4.618,7-5.999
		C380.098,117.089,377.168,117.825,376.133,120.457z M385.132,110.458c0.349-0.285,8.146-2.693,4.999-5.999
		c-0.211,1.208-1.109,0.615-1.999,0C388.609,107.347,381.921,108.141,385.132,110.458z M468.122,107.458c0.137-2.276,6.02-3.874,3-6
		C470.986,103.735,465.103,105.333,468.122,107.458z M452.124,122.456c2.843-0.866,6.949-5.657,6-6.999
		C456.742,118.408,453.505,119.506,452.124,122.456z M427.127,148.453C430.697,157.123,424.737,142.647,427.127,148.453
		L427.127,148.453z M419.128,159.452c-0.052-1.834,5.124-3.386,1.999-5C421.179,156.286,416.004,157.838,419.128,159.452z
		 M415.128,166.451c2.489-3.058,9.874-11.164,8.999-10.999C420.842,158.188,414.867,163.495,415.128,166.451z M419.128,164.451
		c-7.865,5.703,5.13-0.788,1.999-3.999C421.115,162.438,418.4,161.724,419.128,164.451z M423.127,149.453
		c-0.136,2.276-6.019,3.874-2.999,5.999C420.264,153.177,426.147,151.579,423.127,149.453z M414.128,161.451
		c-0.286-1.763,4.709-3.096,2-3.999C415.607,158.407,411.642,160.771,414.128,161.451z M414.128,169.45
		C406.974,174.562,416.229,167.95,414.128,169.45L414.128,169.45z M447.125,179.449c3.414,0.501,11.528-7.613,10.999-10.998
		C455.2,169.564,449.22,174.374,447.125,179.449z M443.125,182.449C440.088,185.817,446.822,185.48,443.125,182.449L443.125,182.449
		z M426.127,201.446c-2.416-0.004-6.392,3.501-4,5c4.615-6.233,16.532-17.395,17.998-19.998
		C435.085,191.073,429.547,195.201,426.127,201.446z"/>
	<path fill-rule="evenodd" clip-rule="evenodd" fill="#B9E0F7" d="M497.119,101.459c10.672,7.238,2.366,36.315-3,51.993
		c-6.97,20.361-16.368,37.617-30.996,48.994c-16.434,12.782-46.097,19.306-69.991,17.998c-38.186-2.089-63.775-25.159-71.991-61.992
		c6.867,22.062,17.794,37.924,34.996,48.994c2.031,1.307,4.013,4.121,5.999,4.999c14.612,6.458,33.542,7.034,47.994,5.999
		c16.949-1.214,33.846-7.017,45.994-13.998c27.675-15.905,41.785-54.499,43.994-84.989
		C500.611,112.657,500.839,105.766,497.119,101.459z"/>
	<path fill-rule="evenodd" clip-rule="evenodd" fill="#B9E0F7" d="M375.133,204.446c1.854,2.245-4.246,5.043-4.999,7.999
		C368.592,210.512,373.951,206.973,375.133,204.446z"/>
	<path fill-rule="evenodd" clip-rule="evenodd" d="M468.122,154.452C470.222,152.952,460.967,159.563,468.122,154.452
		L468.122,154.452z"/>
	<path fill-rule="evenodd" clip-rule="evenodd" d="M454.124,87.461c14.575-0.724,46.794-0.902,50.994,22.997
		c1.713,9.747-2.844,25.625-6,36.995c-5.213,18.783-11.079,31.899-20.997,43.995c-24.929,30.402-85.519,42.824-122.984,21.997
		c-11.729-6.521-24.025-20.984-30.996-34.996c-4.065-8.172-8.401-18.875-5.999-31.996c3.119-17.04,27.84-33.138,39.994-38.995
		c12.522-6.035,29.073-9.608,43.995-12.999C419.785,90.448,435.428,88.39,454.124,87.461z M394.131,100.459
		c2.039-1.745,1.961,0.745,3.999-1c-3.19,3.923-3.273,4.622-4.999,5c5.391-1.181-1.935-3.536-2-2c0.059-1.371,1.409-1.227,2-2
		c4.259-5.57-4.945-0.963-7.999,0c-13.22,4.169-34.755,9.966-39.995,20.998c-0.274-2.425-4.621-1.261-4.999-1
		c-3.062,2.104-14.936,14.459-11.999,13.998c4.406-0.691,9.078-14.327,12.999-11.999c-3.879,2.604-7.671,7.418-6.999,7
		c3.359-2.093,4.797-5.147,9.998-8.999c-0.558,2.038-3.008,1.96-1,3.999c-8.226,3.106-12.146,10.517-18.997,14.998
		c-0.512,5.622-4.022,19.903,2.999,20.998c0.979-2.404,4.379-7.554,6-6c-3.049,5.436-7.433,5.2-6.999,8.999
		c-0.31-2.712,6.358-4.214,5.999-3.999c3.407-2.029,5.451-7.982,8.999-8.999c-0.757,2.991-7.4,4.755-3,6.999
		c-5.762-2.272-6.126,7.285-11.998,7.999c5.015,16.724,16.528,35.41,33.995,42.994c0.435-2.231,1.768-3.564,4-3.999
		c-1.317,2.276-4.581,3.873-1,5.999c2.914-3.751,6.247-7.084,9.999-9.999c-1.838,3.19-7.845,7.451-7,9.999
		c3.407-3.607,8.592-10.718,11.999-10.998c-3.386,3.297-10.652,7.988-9.999,11.998c3.2-4.058,6.218-8.07,10.999-7.999
		c-0.7-3.078-0.7-1.922,0-4.999c9.648-7.35,16.15-17.846,25.996-24.997c-8.448,9.549-17.852,18.144-25.996,27.996
		c3.278-0.104,4.736-7.194,6.999-4.999c-3.867,5.808-13.571,11.08-13.998,16.998c4.656-7.185,11.897-11.746,16.998-16.998
		c5.715-5.885,11.156-15.658,18.997-19.997c-2.047,5.151-13.604,9.657-9.999,13.998c-6.693-1.867-5.013,8.545-11.998,10.998
		c-0.102-1.121,1.453-1.557,0-1.999c-3.407,4.925-8.592,8.072-11.999,12.998c-2.153,2.128,3.689-2.228,4-4
		c2.951-1.381,4.048-4.617,6.999-5.999c-2.933,3.596-5.061,4.979-3.999,7.999c-1.322-0.012-0.914-1.752-2-2
		c0.164,2.576-5.087,4.806-3,6c0.294-0.889,2.706-4.378,3-2c-1.122,0.211-1.557,1.109-2,2
		c66.495,12.76,112.025-24.755,117.985-78.99c-2.56,5.212-10.397,8.99-11.999,11.998c-0.211-1.208-1.109-0.614-1.999,0
		c0.873-1.763,3.346-3.096,0-3.999c-2.271,3.055-1.715,3.134-1,6.999c-3.878,2.788-6.911,6.42-9.999,9.999
		c-0.224-0.776-0.027-1.973-1-2c-3.248,3.776-6.914,8.941-10.998,8.999c2.062-2.304,4.249-5.078,3.999-6.999
		c2.651,0.429,6.067,1.095,4-1c-2.93,0.001,2.294-2.636,5.999-7.999c-0.361,0.522-0.714-1.933,0-3c4.341-6.492,2.233,2.512,1,3
		c-0.004-0.556,0.81-1.136,1,0c-1.087,0.239-2.401,1.646-1,1.999c0.344-4.175,5.891-5.672,4.999-5.999c-1.003-0.003-1.189,0.811-2,1
		c2.539-3.794,6.408-6.257,8.999-9.999c2.304-0.603,8.017-0.205,6.999-3.999c-9.889,2.5,1.807-1.026,5-6.999
		c-0.354,0.663,1.105-2.763,0-3c-6.869,5.405-10.093,12.552-16.998,16.998c0.833-3.361,2.344-2.636,2.999-3
		c2.225-1.234,6.317-7.863,5-5.999c-1.763-0.286-3.096,4.708-4,2c5.898-4.216,4.6-7.183,8.999-9.999c-0.52-0.318-1.55-3.095,0-3.999
		c-0.616,4.054,7.197-4.298,5-5c-0.24,1.087-1.647,2.401-2,1c2.596-1.649,2.604-1.55,2.999-3.999
		c3.217-19.944-24.792-27.146-50.993-23.997c-16.017,1.925-39.421,4.234-48.994,8.999c0.556-0.003,1.136,0.81,0,1
		c-0.239-1.875-1.646,0.567-1.999-1c0.555,0.003,1.135-0.81,0-1C393.519,98.213,394.022,104.868,394.131,100.459z M463.123,163.451
		C455.968,168.562,465.223,161.951,463.123,163.451L463.123,163.451z M500.118,119.457c-2.209,30.49-16.319,69.084-43.994,84.989
		c-12.148,6.981-29.045,12.784-45.994,13.998c-14.452,1.035-33.382,0.459-47.994-5.999c-1.986-0.878-3.968-3.692-5.999-4.999
		c-17.202-11.07-28.129-26.933-34.996-48.994c8.216,36.833,33.806,59.903,71.991,61.992c23.895,1.308,53.558-5.216,69.991-17.998
		c14.628-11.377,24.026-28.633,30.996-48.994c5.366-15.678,13.672-44.755,3-51.993C500.839,105.766,500.611,112.657,500.118,119.457
		z M370.134,212.445c0.753-2.956,6.854-5.754,4.999-7.999C373.951,206.973,368.592,210.512,370.134,212.445z M321.14,156.452
		c0.132-1.314,0.151-7.234-1-3.999C320.008,153.768,319.989,159.688,321.14,156.452z"/>
	<path fill-rule="evenodd" clip-rule="evenodd" d="M406.129,172.45c-3.403-1.067,2.783-0.311,1-3c-2.925,0.408-3.244,3.422-4.999,5
		c-1.546-3.578,5.43-7.211,7.999-9.999C410.203,162.774,407.352,170.742,406.129,172.45z"/>
	<path fill-rule="evenodd" clip-rule="evenodd" d="M399.13,175.45c-2.882,6.125-13.057,13.601-17.997,20.997
		C382.299,189.227,394.339,182.983,399.13,175.45z"/>
	<path fill-rule="evenodd" clip-rule="evenodd" d="M378.133,196.447c0.157-6.188,10.528-10.793,13.998-16.998
		C391.581,185.243,381.72,190.359,378.133,196.447z"/>
	<path fill-rule="evenodd" clip-rule="evenodd" d="M357.136,138.454c-2.377-2.104-2.922,2.934-3,3c-2.084,1.768-4.119,1.34-4.999,3
		c-2.055,3.876-5.071,6.688-8.999,8.998c10.377-9.786,3.772-8.051,9.999-10.998c0.378-0.18,2.932-1.729,2.999-2
		c-0.118,0.471-24.976,11.217-2.999,0c-2.631,1.343-3.796,4.107-4,5c-0.421,1.844-11.931,10.823-13.998,11.998
		c-0.78,0.443,7.167-5.919,3.999-7.999c0.973,0.027,0.776,1.224,1,2c11.275-11.278,20.688-19.778,32.996-30.996
		c-3.581,4.417-7.581,8.417-11.999,11.998c2.713,0.921,4.626-5.441,8.999-3.999c-3.218-5.368,7.218-5.631,4-10.999
		c5.257,0.709,8.741-8.432,13.998-10.999c0.602,2.744-11.708,10.86-12.998,13.999c-0.16,0.389,1.619,2.423,1.999,1.999
		c-1.42,1.58-4.962,0.992-6.999,3c0.441-0.435-0.526,9.192-4.999,5.999c-1.889,0.111-0.694,3.306-3,3c0.443,1.453,0.878-0.102,2,0
		c1.812-0.897-2.061,3.428-4.999,0c0.588,2.847,3.701,5.076-1,5.999C355.58,139.564,356.014,138.666,357.136,138.454z"/>
	<path fill-rule="evenodd" clip-rule="evenodd" d="M381.133,114.458c-2.951,1.381-4.049,4.617-7,5.999
		c1.382-2.951,4.618-4.048,6-6.999c1.439,1.118,2.439,1.077,2.999-1c-2.241-1.426,1.024-0.092,1,0
		c-0.549,2.044-5.726,6.495-7.999,7.999C377.168,117.825,380.098,117.089,381.133,114.458z"/>
	<path fill-rule="evenodd" clip-rule="evenodd" d="M39.176,130.455C33.633,92.267,71.76,91.219,111.167,93.46
		c36.14,2.056,78.752,12.529,101.987,31.996c9.582,8.028,19.237,25.649,13.998,42.995c-9.258,30.654-32.813,55.146-66.991,57.992
		c-61.187,5.096-95.594-20.88-110.986-64.992c0.169-3.952-1.536,0.32-3-1.999c4.996-1.329-0.882-5.195-1-6.999
		c-0.136-2.082-0.664-8.479-3-7.999c0.898-1.717,0.898-6.3,0-2c-3.024-1.514,0.829-4.389,0-6.999
		c-2.433,8.817-4.968-13.054-6.999-16.998C36.886,118.12,38.515,126.42,39.176,130.455z M70.172,108.458
		c2.858-3.968,11.52-12.259,10.999-12.998C77.661,99.297,69.546,103.813,70.172,108.458z M75.171,96.46
		c-0.951,1.527-8.18,7.184-11.998,10.999c-1.158,1.479-1.158,2.52,0,4c-3.043,1.857-5.8,1.838-6,4.999
		c-3.191-1.971-10.547,10.497-9.999,8.999c3.603-2.062,5.396-5.937,8.999-7.999c-3.254,4.078-6.745,7.92-9.999,11.999
		c11.676-10.654,21.95-22.711,32.996-33.996c-6.691,3.641-9.699,10.965-15.998,14.998C67.315,102.657,72.046,101.478,75.171,96.46z
		 M59.173,104.459c2.631-1.035,3.367-3.965,5.999-5c8.688-10.614-10.494,9.254-9.999,6.999c0.833-3.792,11.431-6.596,7.999-9.999
		c-4.788,5.498-15.864,16.58-16.998,18.997c3.086-0.951,5.752-7.527,7.999-5.999c-1.814,2.794-9.467,9.487-7.999,8.999
		c3.086-0.951,5.752-7.528,7.999-5.999c-3.819,2.848-10.434,8.943-7.999,11.998c7.723-9.944,21.544-19.113,25.997-28.996
		c-8.28,8.388-17.582,21.075-25.997,25.997c4.814-3.8,6.897-8.912,9.999-11.999c3.533-3.516,8.974-6.41,13.999-11.999
		c0.224-1.7-1.127-2.474-1,0c-4.417,2.266-8.417,10.225-11.999,9.999C58.43,107.048,59.217,106.169,59.173,104.459z M47.175,112.458
		c2.94-5.404,12.13-9.852,11.999-14.999C56.634,103.265,47.191,107.459,47.175,112.458z M200.155,118.457
		c-27.936-14.392-62.451-22.205-102.987-23.997c-4.599,6.7-12.729,3.657-13.999,10.999c1.382-1.675,4.618-6.637,6-4.999
		c-2.577,2.85-5.113,5.954-7.999,5.999c-0.969-4.046,9.528-9.274,7.999-10.999c0.881-2.681-6.394,7.938-7.999,5.999
		c2.262-2.404,5.251-4.081,6.999-6.999c-7.852,4.48-11.497,13.167-18.998,17.998c-3.259,3.388-7.677,8.826-3,4.999
		c2.321-1.899,5.698-8.277,8.999-7.999c-4.37,6.178-8.429,7.93-12.998,11.999c-1.854,1.65-5.978,5.571-5,7.999
		c-3.541-1.751-2.458,0.665-5.999,0.999c1.205-3.812,7.572-6.561,9.999-8.998c3.755-3.774,6.844-9.437,10.999-13.999
		c3.832-4.208,10.511-7.129,10.999-12.999c-3.807,3.076-7.098,12.572-13.998,14.998c0.05-0.018-1.057-1.775-2-1
		c-1.723,1.417-4.408,6.408-7.999,9.999c-3.948,3.948-8.527,7.029-9.999,8.999c-2.118,2.834-0.615,5.398,1,0
		c6.622-4.051,12.333-14.319,17.998-15.998c-7.275,7.057-14.008,14.654-20.997,21.997c5.226,24.437,14.262,45.063,27.996,60.992
		c12.394-0.122,12.866-12.513,20.998-13.998c-0.012,1.321-1.752,0.914-2,2c6.63-3.377,11.381-13.938,16.998-14.998
		c-6.721,9.195-14.794,13.671-20.997,19.997c-2.79,2.846-5,8.771-9.999,10.999c1.371-2.627,8.848-8.696,6.999-7.999
		c-2.045,2.4-10.298,6.599-5.999,8.999c28.157-27.503,53.875-57.444,81.99-84.989c-10.977,14.353-25.331,25.329-35.996,39.994
		c-1.479,0.521-2.52,1.479-4,2c-5.964,7.701-11.91,15.42-19.998,20.997c-1.729,4.986-7.162,8.162-10.999,11.999
		c-3.685,3.685-8.678,7.668-8.999,11.998c19.608-20.56,40.525-43.594,58.993-60.992c-0.745,2.356-3.718,3.588-5.999,5.999
		c-1.466,1.55-5.591,5.438-6,6c-0.89,1.224-0.795,4.781-1,4.999c-0.207,0.221-1.956-0.744-3,0
		c-6.625,4.723-12.462,14.321-18.998,20.997c-6.708,6.854-14.11,15.796-17.998,17.998c14.78-8.372,24.975-29.773,36.995-35.995
		c-4.083,5.513-15.525,15.68-22.997,22.997c-5.712,5.595-17.072,22.856-16.998,14.998c-5.176,14.638,17.913-16.292,20.997-15.998
		c-4.384,5.948-10.023,10.641-14.998,15.998c0.776,0.224,1.972,0.027,2,1c-3.015-2.382-6.718,4.122-6,4.999
		c0.56-1.44,1.56-2.439,3-3c-0.309,2.358-3.472,1.86-3,5c12.402,7.91,28.524,13.738,46.994,14.998
		c16.667,1.137,39.313,0.463,50.994-7.999c1.923-1.394,2.417-4.227,4-5.999c6.435-7.206,15.924-13.205,19.998-17.998
		c2.399-2.824,3-8.105,5.999-10.999c-5.729,3.603-8.607,10.058-14.998,12.999c1.656-4.263,9.582-6.736,7.999-10.999
		c2.695,2.681,9.371-7.938,7.999-5.999c-2.422,0.311-4.422,6.153-5.999,3.999c1.854-3.322,11.768-8.28,6.999-8.999
		c9.845-11.574,3.284-34.785-6-41.994c-4.993,1.244-7.11,7.665-5.999,2c-5.173,5.492-9.673,11.657-15.998,15.998
		c2.017-3.761,7.465-7.119,10.999-10.999c2.532-2.78,7.568-7.737,5-9.999c-1.745,2.039,0.745,1.961-1,4
		c-6.587-0.782-11.41,8.354-17.998,12.998c5.446-8.062,12.446-12.128,17.998-17.998c-3.182-0.909-5.92,3.036-7.999,5
		c-15.774,14.895-29.034,33.665-44.994,46.994c6.485-11.248,22.496-19.079,25.997-28.997c1.011-2.863,0.382-0.262,3-1.999
		c5.477-3.635,11.235-12.302,14.998-16.998c-4.597,4.412-10.457,12.859-14.998,13.998c3.045-4.621,9.505-5.826,9.999-12.998
		c4.084,0.941,7.75-6.47,10.999-6.999c-3.419-2.927-6.418,7.204-8.999,4.999C194.939,123.239,199.735,123.036,200.155,118.457z
		 M205.155,195.447c8.46-9.47-11.52,9.002-8.999,9.999C198.503,201.821,203.574,197.217,205.155,195.447z M197.156,208.445
		c-18.978,15.858-50.584,18.133-76.99,12.999c-48.22-9.375-71.769-55.022-76.99-104.987c-0.055-1.052-1.282-0.786-1,1
		c2.662,34.018,15.401,67.743,37.995,87.989c16.4,14.695,52.68,20.947,77.99,18.997c35.843-2.761,59.041-28.842,65.992-60.992
		C217.022,180.211,210.151,197.587,197.156,208.445z M225.152,159.452c0.161-0.696-0.349-5.819-1-3
		C223.274,160.259,224.689,161.46,225.152,159.452z"/>
	<path fill-rule="evenodd" clip-rule="evenodd" fill="#FFFFFF" d="M81.17,95.46c0.521,0.739-8.14,9.03-10.999,12.998
		C69.546,103.813,77.661,99.297,81.17,95.46z"/>
	<path fill-rule="evenodd" clip-rule="evenodd" fill="#FFFFFF" d="M57.173,107.458c3.582,0.226,7.581-7.733,11.999-9.999
		c-0.127-2.474,1.224-1.7,1,0c-5.024,5.589-10.465,8.483-13.999,11.999c-3.102,3.087-5.184,8.199-9.999,11.999
		c8.415-4.922,17.717-17.609,25.997-25.997c-4.453,9.883-18.273,19.052-25.997,28.996c-2.435-3.055,4.18-9.15,7.999-11.998
		c-2.247-1.529-4.913,5.048-7.999,5.999c-1.468,0.488,6.185-6.205,7.999-8.999c-2.247-1.528-4.913,5.048-7.999,5.999
		c1.134-2.417,12.21-13.5,16.998-18.997c3.432,3.403-7.166,6.207-7.999,9.999c-0.496,2.255,18.687-17.613,9.999-6.999
		c-2.632,1.035-3.368,3.965-5.999,5C59.217,106.169,58.43,107.048,57.173,107.458z"/>
	<path fill-rule="evenodd" clip-rule="evenodd" fill="#FFFFFF" d="M59.173,97.459c0.131,5.147-9.059,9.594-11.999,14.999
		C47.191,107.459,56.634,103.265,59.173,97.459z"/>
	<path fill-rule="evenodd" clip-rule="evenodd" fill="#FFFFFF" d="M193.156,126.456c2.581,2.205,5.58-7.926,8.999-4.999
		c-3.248,0.529-6.914,7.94-10.999,6.999c-0.494,7.172-6.954,8.377-9.999,12.998c4.541-1.139,10.401-9.586,14.998-13.998
		c-3.763,4.696-9.521,13.363-14.998,16.998c-2.618,1.737-1.989-0.864-3,1.999c-3.5,9.918-19.512,17.749-25.997,28.997
		c15.96-13.329,29.22-32.1,44.994-46.994c2.079-1.964,4.817-5.909,7.999-5c-5.551,5.87-12.551,9.936-17.998,17.998
		c6.587-4.644,11.41-13.78,17.998-12.998c1.745-2.039-0.745-1.961,1-4c2.568,2.262-2.467,7.219-5,9.999
		c-3.533,3.88-8.982,7.238-10.999,10.999c6.325-4.341,10.825-10.506,15.998-15.998c-1.111,5.665,1.006-0.756,5.999-2
		c9.284,7.209,15.845,30.42,6,41.994c4.769,0.719-5.145,5.677-6.999,8.999c1.577,2.154,3.577-3.688,5.999-3.999
		c1.372-1.938-5.304,8.68-7.999,5.999c1.583,4.263-6.343,6.736-7.999,10.999c6.391-2.941,9.269-9.396,14.998-12.999
		c-2.999,2.894-3.6,8.175-5.999,10.999c-4.073,4.793-13.562,10.792-19.998,17.998c-1.583,1.772-2.077,4.605-4,5.999
		c-11.68,8.462-34.327,9.136-50.994,7.999c-18.47-1.26-34.592-7.088-46.994-14.998c-0.473-3.14,2.691-2.642,3-5
		c-1.44,0.561-2.439,1.56-3,3c-0.718-0.877,2.984-7.381,6-4.999c-0.028-0.973-1.224-0.776-2-1
		c4.975-5.357,10.614-10.05,14.998-15.998c-3.084-0.294-26.173,30.636-20.997,15.998c-0.075,7.858,11.285-9.403,16.998-14.998
		c7.472-7.317,18.914-17.484,22.997-22.997c-12.021,6.222-22.215,27.623-36.995,35.995c3.887-2.202,11.289-11.144,17.998-17.998
		c6.535-6.676,12.372-16.274,18.998-20.997c1.044-0.744,2.793,0.221,3,0c0.205-0.218,0.109-3.775,1-4.999
		c0.409-0.562,4.534-4.45,6-6c2.281-2.411,5.254-3.643,5.999-5.999c-18.468,17.398-39.385,40.433-58.993,60.992
		c0.321-4.33,5.314-8.313,8.999-11.998c3.837-3.837,9.27-7.013,10.999-11.999c8.088-5.577,14.034-13.296,19.998-20.997
		c1.479-0.521,2.52-1.479,4-2c10.665-14.665,25.019-25.642,35.996-39.994c-28.114,27.545-53.833,57.486-81.99,84.989
		c-4.299-2.4,3.954-6.599,5.999-8.999c1.849-0.697-5.628,5.372-6.999,7.999c4.999-2.228,7.209-8.153,9.999-10.999
		c6.203-6.326,14.276-10.802,20.997-19.997c-5.617,1.061-10.367,11.621-16.998,14.998c0.247-1.086,1.988-0.679,2-2
		c-8.132,1.485-8.604,13.876-20.998,13.998c-13.734-15.929-22.77-36.556-27.996-60.992c6.989-7.343,13.722-14.94,20.997-21.997
		c-5.664,1.679-11.375,11.947-17.998,15.998c-1.615,5.398-3.118,2.834-1,0c1.472-1.97,6.051-5.051,9.999-8.999
		c3.591-3.591,6.276-8.582,7.999-9.999c0.942-0.775,2.05,0.982,2,1c6.9-2.426,10.191-11.922,13.998-14.998
		c-0.488,5.87-7.167,8.791-10.999,12.999c-4.154,4.562-7.243,10.224-10.999,13.999c-2.426,2.438-8.793,5.187-9.999,8.998
		c3.541-0.334,2.458-2.75,5.999-0.999c-0.979-2.428,3.146-6.349,5-7.999c4.569-4.069,8.628-5.821,12.998-11.999
		c-3.3-0.278-6.677,6.1-8.999,7.999c-4.678,3.827-0.259-1.611,3-4.999c7.5-4.832,11.146-13.518,18.998-17.998
		c-1.748,2.918-4.737,4.595-6.999,6.999c1.605,1.938,8.88-8.68,7.999-5.999c1.529,1.724-8.968,6.953-7.999,10.999
		c2.886-0.045,5.422-3.149,7.999-5.999c-1.382-1.638-4.618,3.324-6,4.999c1.27-7.342,9.399-4.298,13.999-10.999
		c40.536,1.792,75.051,9.605,102.987,23.997C199.735,123.036,194.939,123.239,193.156,126.456z M154.161,177.449
		c2.439-3.911,9.419-8.553,8.999-11.998C161.167,169.809,153.473,173.736,154.161,177.449z M172.159,160.452
		c-1.028,0.711-5.771,1.776-7,2.999c-1.327,1.321,0.384,2.174,0,3c-1.681,3.614-6.782,5.691-8.999,9.999
		c10.903-10.202,19.708-16.765,29.996-27.997c0.224,0.776,0.027,1.973,1,2c-3.39-3.591,6.785-8.555,4-7.999
		c-2.632,1.034-3.368,3.965-6,4.999c-0.003-1.003,0.81-1.189,1-1.999c-3.657,0.342-4.576,3.423-5.999,5.999
		c-3.838,1.983-8.927,9.062-6,6.999c2.788-1.965,4.726-6.715,9.999-9.999C179.586,153.354,177.333,156.869,172.159,160.452z
		 M194.156,201.446c7.029-3.112,16.254-16.337,17.998-17.997C205.737,189.031,199.738,195.03,194.156,201.446z M86.17,187.448
		c-3.504,1.619-4.68,3.345-6,5C81.552,194.086,84.788,189.123,86.17,187.448z M72.171,114.458c2.002-3.571,8.489-3.952,6.999-6
		C77.8,107.483,70.323,115.735,72.171,114.458z M129.165,203.446c8.037-7.22,15.348-19.626,23.997-22.997
		c-1.295-1.06-4.07-2.835-4-1C146.458,186.754,131.159,195.432,129.165,203.446z M168.16,162.451
		c6.181-5.532,10.697-13.396,16.998-17.997c0.674-0.493,1.505,1.289,2,1c1.309-0.768,2.186-4.014,5-5
		c3.522-1.234,9.732-8.875,10.999-10.998C191.54,140.977,175.715,147.493,168.16,162.451z M193.156,137.455
		c2.167-0.952,7.846-7.528,6-6C196.989,132.407,191.31,138.983,193.156,137.455z M203.155,124.456
		C196,129.566,205.255,122.956,203.155,124.456L203.155,124.456z"/>
	<path fill-rule="evenodd" clip-rule="evenodd" fill="#FFFFFF" d="M196.156,205.446c-2.521-0.997,17.459-19.469,8.999-9.999
		C203.574,197.217,198.503,201.821,196.156,205.446z"/>
	<path fill-rule="evenodd" clip-rule="evenodd" d="M184.158,148.453c-5.273,3.284-7.211,8.034-9.999,9.999
		c-2.927,2.062,2.162-5.016,6-6.999c1.423-2.576,2.342-5.657,5.999-5.999c-0.19,0.81-1.003,0.996-1,1.999
		c2.632-1.034,3.368-3.965,6-4.999c2.786-0.556-7.389,4.408-4,7.999c-0.973-0.027-0.776-1.224-1-2
		c-10.289,11.232-19.093,17.795-29.996,27.997c2.217-4.308,7.318-6.385,8.999-9.999c0.384-0.826-1.327-1.679,0-3
		c1.229-1.223,5.972-2.288,7-2.999C177.333,156.869,179.586,153.354,184.158,148.453z"/>
	<path fill-rule="evenodd" clip-rule="evenodd" d="M80.17,192.448c1.319-1.655,2.495-3.381,6-5
		C84.788,189.123,81.552,194.086,80.17,192.448z"/>
	<path fill-rule="evenodd" clip-rule="evenodd" d="M79.17,108.458c1.49,2.048-4.997,2.429-6.999,6
		C70.323,115.735,77.8,107.483,79.17,108.458z"/>
	<path fill-rule="evenodd" clip-rule="evenodd" fill="#B9E0F7" d="M18.178,95.46c1.974,2.359,2.355,6.31,3,9.999
		C19.205,103.099,18.823,99.148,18.178,95.46z"/>
	<path fill-rule="evenodd" clip-rule="evenodd" fill="#B9E0F7" d="M324.14,97.459c-0.693-2.682,2.902,5.978,2.999,8.999
		C324.393,105.206,324.548,101.05,324.14,97.459z"/>
	<path fill-rule="evenodd" clip-rule="evenodd" fill="#FFFFFF" d="M63.173,110.458c6.299-4.033,9.307-11.357,15.998-14.998
		c-11.045,11.285-21.319,23.342-32.996,33.996c3.254-4.079,6.745-7.921,9.999-11.999c-3.603,2.062-5.396,5.937-8.999,7.999
		c-0.549,1.498,6.807-10.97,9.999-8.999c0.199-3.161,2.956-3.142,6-4.999c-1.158-1.479-1.158-2.52,0-4
		c3.818-3.814,11.047-9.471,11.998-10.999C72.046,101.478,67.315,102.657,63.173,110.458z"/>
	<path fill-rule="evenodd" clip-rule="evenodd" fill="#B9E0F7" d="M235.151,114.458c-1.987-2.379,1.783-7.507,2-10.999
		C238.819,105.519,235.841,111.438,235.151,114.458z"/>
	<path fill-rule="evenodd" clip-rule="evenodd" fill="#B9E0F7" d="M232.151,105.458c2.002,3.7,2.228-0.229,3-3
		c2.544,2.935-2.078,7.21-2,10.999C230.849,115.211,234.636,107.601,232.151,105.458z"/>
	<path fill-rule="evenodd" clip-rule="evenodd" fill="#B9E0F7" d="M309.142,106.458c2.209-2.345-0.989,3.324,0,6
		c-1.876-2.458-1.816-6.85-3-9.999c-2.804,2.87,2.474,6.143,1,10.999c-11.706-0.408-23.099,13.857-41.995,11.998
		c-5.194-0.511-14.405-2.418-18.998-4.999c-1.784-1.003-0.074-4.175-4-2c-0.769-3.769,1.22-4.779,1-7.999
		c-1.546,1.453-2.099,3.9-2,6.999c-1.904-0.429-2.512-2.154-5-2c1.789-2.877,1.389-7.943,3-10.998c1.342,0.202,1.862,4.152,2,0
		c2.909,3,2.299,1.862,8.999,3.999c5.579,1.779,12.376,4.867,21.997,4c6.745-0.608,12.03-5.121,17.998-6
		c1.718-0.253,1.874,0.692,2,2c-1.445-2.086,5.737-7.517,5.999-1c2.077-0.257,0.273-4.393,2-5c4.385-0.518,3.284-0.312,6.999-1
		C307.042,103.341,308.365,108.747,309.142,106.458z M306.142,112.458c-0.645-3.688-1.026-7.64-2.999-9.999
		C303.837,106.097,303.19,111.078,306.142,112.458z"/>
	<path fill-rule="evenodd" clip-rule="evenodd" d="M32.176,106.458c2.05,1.95,1.286,6.713,3,8.999
		C33.712,116.855,31.75,110.268,32.176,106.458z"/>
	<path fill-rule="evenodd" clip-rule="evenodd" fill="#B9E0F7" d="M230.152,106.458c0.934,0.733,1.515,1.818,2,3
		C231.723,111.971,229.998,107.795,230.152,106.458z"/>
	<path fill-rule="evenodd" clip-rule="evenodd" fill="#B9E0F7" d="M224.152,163.451c-6.951,32.15-30.148,58.231-65.992,60.992
		c-25.311,1.95-61.59-4.302-77.99-18.997c-22.594-20.246-35.333-53.972-37.995-87.989c-0.282-1.786,0.945-2.052,1-1
		c5.222,49.965,28.77,95.612,76.99,104.987c26.406,5.134,58.012,2.859,76.99-12.999
		C210.151,197.587,217.022,180.211,224.152,163.451z"/>
	<path fill-rule="evenodd" clip-rule="evenodd" d="M458.124,115.457c0.949,1.342-3.157,6.133-6,6.999
		C453.505,119.506,456.742,118.408,458.124,115.457z"/>
	<path fill-rule="evenodd" clip-rule="evenodd" fill="#B9E0F7" d="M516.116,120.457c2.303-1.754-1.484,5.856,1,7.999
		c-0.776,1.824-1.075-0.6-1-2c-0.972,0.027-0.775,1.224-1,2C512.308,126.541,516.49,123.243,516.116,120.457z"/>
	<path fill-rule="evenodd" clip-rule="evenodd" d="M203.155,124.456C205.255,122.956,196,129.566,203.155,124.456L203.155,124.456z"
		/>
	<path fill-rule="evenodd" clip-rule="evenodd" fill="#B9E0F7" d="M25.177,126.456C23.442,119.846,27.729,134.546,25.177,126.456
		L25.177,126.456z"/>
	<path fill-rule="evenodd" clip-rule="evenodd" d="M203.155,129.456c-1.266,2.123-7.477,9.764-10.999,10.998
		c-2.814,0.986-3.691,4.232-5,5c-0.495,0.289-1.326-1.493-2-1c-6.3,4.602-10.817,12.465-16.998,17.997
		C175.715,147.493,191.54,140.977,203.155,129.456z"/>
	<path fill-rule="evenodd" clip-rule="evenodd" d="M199.156,131.455c1.846-1.528-3.833,5.048-6,6
		C191.31,138.983,196.989,132.407,199.156,131.455z"/>
	<path fill-rule="evenodd" clip-rule="evenodd" d="M37.176,139.454c2.102,3.898,3.42,8.578,4,13.998
		C39.074,149.555,37.755,144.875,37.176,139.454z"/>
	<path fill-rule="evenodd" clip-rule="evenodd" d="M427.127,148.453C424.737,142.647,430.697,157.123,427.127,148.453
		L427.127,148.453z"/>
	<path fill-rule="evenodd" clip-rule="evenodd" d="M424.127,155.452c0.875-0.165-6.51,7.941-8.999,10.999
		C414.867,163.495,420.842,158.188,424.127,155.452z"/>
	<path fill-rule="evenodd" clip-rule="evenodd" d="M421.127,160.452c3.131,3.211-9.864,9.702-1.999,3.999
		C418.4,161.724,421.115,162.438,421.127,160.452z"/>
	<path fill-rule="evenodd" clip-rule="evenodd" fill="#B9E0F7" d="M35.176,155.452c-0.973,0.027-0.776,1.225-1,2
		c-2.934-0.85,1.3-2.517,0-4.999c2.709,2.29,2.736,7.263,4,10.998C37.057,164.826,35.439,158.246,35.176,155.452z"/>
	<path fill-rule="evenodd" clip-rule="evenodd" d="M506.118,152.453c-0.799,1.868-1.671,3.662-2,5.999
		C502.713,158.254,503.481,151.911,506.118,152.453z"/>
	<path fill-rule="evenodd" clip-rule="evenodd" d="M416.128,157.452c2.709,0.903-2.286,2.236-2,3.999
		C411.642,160.771,415.607,158.407,416.128,157.452z"/>
	<path fill-rule="evenodd" clip-rule="evenodd" fill="#B9E0F7" d="M506.118,160.452c2.335-1.754-0.823,5.856-1,7.999
		C502.782,170.204,505.94,162.594,506.118,160.452z"/>
	<path fill-rule="evenodd" clip-rule="evenodd" fill="#B9E0F7" d="M463.123,163.451
		C465.223,161.951,455.968,168.562,463.123,163.451L463.123,163.451z"/>
	<path fill-rule="evenodd" clip-rule="evenodd" d="M163.16,165.451c0.42,3.445-6.56,8.087-8.999,11.998
		C153.473,173.736,161.167,169.809,163.16,165.451z"/>
	<path fill-rule="evenodd" clip-rule="evenodd" d="M414.128,169.45C416.229,167.95,406.974,174.562,414.128,169.45L414.128,169.45z"
		/>
	<path fill-rule="evenodd" clip-rule="evenodd" d="M458.124,168.451c0.529,3.385-7.585,11.499-10.999,10.998
		C449.22,174.374,455.2,169.564,458.124,168.451z"/>
	<path fill-rule="evenodd" clip-rule="evenodd" d="M406.129,173.45c3.306,2.629-1.11,1.971-1.999,3
		c-3.23,3.735-7.251,10.311-11.999,12.998c-0.311,1.771-6.153,6.128-3.999,3.999C393.411,186.061,400.758,180.743,406.129,173.45z"
		/>
	<path fill-rule="evenodd" clip-rule="evenodd" d="M149.162,179.449c-0.07-1.835,2.705-0.06,4,1
		c-8.649,3.371-15.96,15.777-23.997,22.997C131.159,195.432,146.458,186.754,149.162,179.449z"/>
	<path fill-rule="evenodd" clip-rule="evenodd" d="M212.154,183.449c-1.744,1.66-10.968,14.885-17.998,17.997
		C199.738,195.03,205.737,189.031,212.154,183.449z"/>
	<path fill-rule="evenodd" clip-rule="evenodd" d="M440.125,186.448c-1.466,2.604-13.383,13.765-17.998,19.998
		c-2.392-1.499,1.584-5.004,4-5C429.547,195.201,435.085,191.073,440.125,186.448z"/>
	<path fill-rule="evenodd" clip-rule="evenodd" d="M364.135,208.445c-4.163-1.617,5.281-5.719,5.999-8.998
		C372.724,203.082,364.679,204.623,364.135,208.445z"/>
	<path fill-rule="evenodd" clip-rule="evenodd" fill="#B9E0F7" d="M469.122,68.463c2.23-4.111,14.496-1.416,20.998-1
		c17.945,1.149,37.133,3.056,49.993,7.999c-9.73,13.973-27.993,4.556-47.994,3c-16.604-1.292-34.598,0.02-47.993,2
		c0-1.333,0-2.667,0-4c-3.402,8-0.861-1.926-1-7c2.012,6.977,2.942-6.236,2.999,4c2.169,0.168,0.453-3.547,1-5
		c2.187,0.147,2.146,2.519,2,5c2.208-0.125,0.425-4.242,1-6c1.229,0.437,2.054,1.279,1.999,3c0.018-2.59,10.292-3.94,13.999-4
		C468.133,66.432,469.247,66.435,469.122,68.463z M449.125,77.462c0.666,0,1.333,0,2,0c0-0.667,0-1.333,0-2c-0.667,0-1.334,0-2,0
		C449.125,76.129,449.125,76.795,449.125,77.462z"/>
	<path fill-rule="evenodd" clip-rule="evenodd" fill="#B9E0F7" d="M334.139,94.46c18.647-1.871,37.501-10.782,55.992-15.998
		c0,1,0,2,0,3c2.521-6.478,12.85-5.148,19.998-6.999c-0.022,2.355,1.722,2.944,1,6c3.023-1.513-0.829-4.389,0-6.999
		c3.553,1.958,3.634-1.305,7.999-1c0.318,2.347,1.579,3.753,1,6.999c3.142-1.706-1.121-7.015,0.999-7.999
		c1.948,1.718,2.155,5.177,2,8.999c1.65-0.444,1.65-7.555,0-7.999c2.854-2.463,3.144,6.146,3,9.999c-1.953,0.187-6.032-0.696-5,0
		c-0.43,2.767-3.145,0.052-1.999-2c-1.85,0.15-0.614,3.386-2,4c-1.459-4.273-3.24,2.874-4.999-2c-0.934,0.733-1.516,1.818-2,3
		c-0.973-0.027-0.776-1.224-1-2c-1.763,3.24-10.236,3.025-16.998,5c-16.014,4.675-35.812,14.92-49.993,13.998
		c-1.018,0.649-1.034,2.299-3,2c-0.296-3.371-0.502-6.83-2-8.999c-2.665,0.639,4.089,9.063-1,8.999
		C334.777,101.821,334.957,97.642,334.139,94.46z"/>
	<path fill-rule="evenodd" clip-rule="evenodd" fill="#B9E0F7" d="M66.172,77.462c2.396,0.396-0.555-4.554,3-3
		c4.141-0.142,1.042,6.958,2,9.999c-7.353-1.002-14.877,3.095-20.997,0c-1.086,0.247-0.678,1.988-2,2
		c-17.579-0.945-33.417,12.013-44.994,0c8.723-5.021,26.693-9.127,41.995-10.999c5.843-0.714,14.048-2.314,18.998-1
		C66.05,74.961,66.271,75.16,66.172,77.462z M61.173,82.461c0.161-0.696-0.349-5.819-1-3C59.294,83.269,60.709,84.47,61.173,82.461z
		"/>
	<path fill-rule="evenodd" clip-rule="evenodd" fill="#B9E0F7" d="M72.171,73.463c1.333,0,2.667,0,4,0c0,3.333,0,6.666,0,9.999
		c2.921-1.078-0.921-8.92,2-9.999c3.801-0.802,1.271,4.728,2,6.999c2.656-1.344-1.464-9.463,5-6.999
		c-0.281,3.385-1.591,5.742-1,9.999c1.55-2.45,1.491-6.508,2-9.999c2.492,0.841,5.357,1.309,8.999,1
		c0.591,4.257-0.719,6.613-1,9.999c-5.849-2.488-11.976,1.291-21.998,0C72.171,80.795,72.171,77.129,72.171,73.463z M93.169,82.461
		c-0.12-1.662,0.546-9.056-1-5.999C92.289,78.125,91.623,85.518,93.169,82.461z"/>
	<path fill-rule="evenodd" clip-rule="evenodd" fill="#B9E0F7" d="M141.163,84.461c1.483-0.85,2.149-2.517,2-5
		c0.89,0.776,2.258,1.075,4,1c-0.529,0.804-1.043,1.623-1,3c1.23-0.437,2.054-1.279,2-3c0.85-0.184,0.943,0.39,1,1
		c0.667,0,1.333,0,2,0c-0.658,3.675-1.942,6.723-2,10.999c-5.872-1.461-11.598-3.067-17.998-4c-0.321-4.654,1.993-6.672,2-10.999
		c4.055,2.358,0.712,2.519,5.999,1c-1.365,1.968-0.955,5.711-2,7.999c3.119-0.547,1.533-5.799,3-7.999
		C143.46,79.04,141.597,82.238,141.163,84.461z M145.163,87.461c-0.069,0.012,0.062,0.929,0,1
		C140.415,93.887,149.964,86.614,145.163,87.461z"/>
	<path fill-rule="evenodd" clip-rule="evenodd" fill="#B9E0F7" d="M156.161,87.461c-0.277-2.559,5.334-7.341,4.999-1
		c3.884-4.583,17.805,4.365,30.997,6.999c8.107,1.619,13.832-0.669,15.998,4c1.017-0.649,1.034-2.299,3-2
		c-0.405,4.594-2.381,7.618-3,11.999c-1.932-1.068-5.305-0.694-4-5c-1.357,0.31-0.829,2.503-1,4
		c-20.34-1.99-34.696-9.965-52.994-13.998c0.057-4.276,1.342-7.324,2-10.999c1.16,0.839,2.681,1.319,4.999,1
		C156.322,83.622,155.842,85.142,156.161,87.461z"/>
	<path fill-rule="evenodd" clip-rule="evenodd" fill="#B9E0F7" d="M265.147,127.456c1.993,5.832,1.378-2.262,7.999,0
		c0.512,6.845-1.774,10.891-1,17.998c-1.833-0.389-3.386-1.588-5,0C265.573,140.361,265.184,134.085,265.147,127.456z
		 M270.147,137.455c0.73,18.354,1.453-15.892,0-7.999C269.286,134.13,270.237,139.721,270.147,137.455z M269.147,133.455
		c0.272-1.361-0.619-3.903-1-2C267.875,132.816,268.766,135.358,269.147,133.455z"/>
</g>
</svg>
