<?xml version="1.0" encoding="UTF-8" standalone="no"?>
<!-- Created with Inkscape (http://www.inkscape.org/) -->
<svg
   xmlns:dc="http://purl.org/dc/elements/1.1/"
   xmlns:cc="http://creativecommons.org/ns#"
   xmlns:rdf="http://www.w3.org/1999/02/22-rdf-syntax-ns#"
   xmlns:svg="http://www.w3.org/2000/svg"
   xmlns="http://www.w3.org/2000/svg"
   xmlns:xlink="http://www.w3.org/1999/xlink"
   xmlns:sodipodi="http://sodipodi.sourceforge.net/DTD/sodipodi-0.dtd"
   xmlns:inkscape="http://www.inkscape.org/namespaces/inkscape"
   id="svg2644"
   sodipodi:version="0.32"
   inkscape:version="0.46"
   width="358.57059"
   height="821.59705"
   sodipodi:docbase="C:\Documents and Settings\Im\Plocha\12.Elektrospotrebice"
   sodipodi:docname="Machovka_Telephone_ok.svg"
   version="1.0"
   inkscape:output_extension="org.inkscape.output.svg.inkscape">
  <metadata
     id="metadata2649">
    <rdf:RDF>
      <cc:Work
         rdf:about="">
        <dc:format>image/svg+xml</dc:format>
        <dc:type
           rdf:resource="http://purl.org/dc/dcmitype/StillImage" />
        <dc:title>telefon</dc:title>
        <dc:creator>
          <cc:Agent>
            <dc:title />
          </cc:Agent>
        </dc:creator>
        <dc:publisher>
          <cc:Agent>
            <dc:title>ZS a MS Machovo nam.</dc:title>
          </cc:Agent>
        </dc:publisher>
        <dc:language>cz</dc:language>
        <dc:subject>
          <rdf:Bag>
            <rdf:li>telef</rdf:li>
          </rdf:Bag>
        </dc:subject>
        <dc:coverage>telefon, phone</dc:coverage>
        <cc:license
           rdf:resource="http://web.resource.org/cc/PublicDomain" />
      </cc:Work>
      <cc:License
         rdf:about="http://web.resource.org/cc/PublicDomain">
        <cc:permits
           rdf:resource="http://web.resource.org/cc/Reproduction" />
        <cc:permits
           rdf:resource="http://web.resource.org/cc/Distribution" />
        <cc:permits
           rdf:resource="http://web.resource.org/cc/DerivativeWorks" />
      </cc:License>
    </rdf:RDF>
  </metadata>
  <defs
     id="defs2647">
    <inkscape:perspective
       sodipodi:type="inkscape:persp3d"
       inkscape:vp_x="0 : 410.79852 : 1"
       inkscape:vp_y="0 : 1000 : 0"
       inkscape:vp_z="445.64609 : 410.79852 : 1"
       inkscape:persp3d-origin="222.82304 : 273.86568 : 1"
       id="perspective96" />
    <linearGradient
       inkscape:collect="always"
       id="linearGradient25364">
      <stop
         style="stop-color: rgb(0, 0, 0); stop-opacity: 1;"
         offset="0"
         id="stop25366" />
      <stop
         style="stop-color: rgb(0, 0, 0); stop-opacity: 0;"
         offset="1"
         id="stop25368" />
    </linearGradient>
    <linearGradient
       inkscape:collect="always"
       id="linearGradient7236">
      <stop
         style="stop-color: rgb(0, 0, 0); stop-opacity: 1;"
         offset="0"
         id="stop7238" />
      <stop
         style="stop-color: rgb(0, 0, 0); stop-opacity: 0;"
         offset="1"
         id="stop7240" />
    </linearGradient>
    <linearGradient
       inkscape:collect="always"
       xlink:href="#linearGradient7236"
       id="linearGradient2658"
       gradientUnits="userSpaceOnUse"
       gradientTransform="matrix(0.865047,0,0,1.15601,-89.7562,-98.31231)"
       x1="259.3736"
       y1="308.05801"
       x2="987.61194"
       y2="16.204695" />
    <linearGradient
       inkscape:collect="always"
       xlink:href="#linearGradient25364"
       id="linearGradient2660"
       gradientUnits="userSpaceOnUse"
       gradientTransform="matrix(0.892288,0,0,1.00567,-89.1241,-49.50111)"
       x1="250.14835"
       y1="318.5535"
       x2="726.50159"
       y2="24.055145" />
  </defs>
  <sodipodi:namedview
     id="base"
     pagecolor="#ffffff"
     bordercolor="#666666"
     borderopacity="1.0"
     inkscape:pageopacity="0.0"
     inkscape:pageshadow="2"
     inkscape:window-width="1016"
     inkscape:window-height="693"
     inkscape:zoom="0.49222597"
     inkscape:cx="276.7704"
     inkscape:cy="437.19164"
     inkscape:window-x="132"
     inkscape:window-y="73"
     inkscape:current-layer="svg2644"
     showguides="true"
     inkscape:guide-bbox="true"
     showgrid="false" />
  <path
     style="fill:none;fill-opacity:0.75;fill-rule:evenodd;stroke:#000000;stroke-width:1px;stroke-linecap:butt;stroke-linejoin:miter;stroke-opacity:1"
     d="M -86.57549,756.30041 L -86.57549,756.30041 z"
     id="path2559" />
  <g
     id="g2598"
     transform="translate(-87.07549,0)">
    <path
       style="fill:#cfd2ca;fill-opacity:0.66451596;stroke:#000000;stroke-opacity:1"
       d="M 87.57549,33.40548 C 147.17059,3.24212 206.76569,0.5 266.36079,0.5 C 325.95589,0.5 400.08637,3.24212 445.14608,33.40548 L 445.14608,757.32611 C 445.14608,839.58976 87.5755,845.07406 87.57549,757.32611 L 87.57549,33.40548 z"
       id="rect2661"
       sodipodi:nodetypes="cccccc" />
    <path
       style="fill:#cfd2ca;fill-opacity:0.68627499;stroke:#000000;stroke-opacity:1"
       d="M 110.76951,62.78224 C 163.11778,34.96683 215.46605,32.43816 267.81432,32.43816 C 320.16258,32.43816 385.27873,34.96683 424.85918,62.78224 L 424.85918,730.35201 C 424.85918,806.21211 110.76959,811.26951 110.76951,730.35201 L 110.76951,62.78224 z"
       id="path4182"
       sodipodi:nodetypes="cccccc" />
    <path
       id="rect4960"
       d="M 154.35586,61.508451 L 378.36566,61.508451 C 397.69191,61.508451 413.25059,77.067131 413.25059,96.393384 L 413.25059,419.2162 C 413.25059,438.54245 397.69191,454.10113 378.36566,454.10113 L 154.35586,454.10113 C 135.02961,454.10113 119.47093,438.54245 119.47093,419.2162 L 119.47093,96.393384 C 119.47093,77.067131 135.02961,61.508451 154.35586,61.508451 z"
       style="fill:url(#linearGradient2658);fill-opacity:1;stroke:none;stroke-opacity:1" />
    <path
       id="rect8022"
       d="M 168.61332,121.87771 L 366.45942,121.87771 C 385.78567,121.87771 401.34435,137.43639 401.34435,156.76264 L 401.34435,386.93926 C 401.34435,406.26551 385.78567,421.82419 366.45942,421.82419 L 168.61332,421.82419 C 149.28707,421.82419 133.72839,406.26551 133.72839,386.93926 L 133.72839,156.76264 C 133.72839,137.43639 149.28707,121.87771 168.61332,121.87771 z"
       style="fill:#ffffff;fill-opacity:1;stroke:#000000;stroke-opacity:1" />
    <path
       id="rect10328"
       d="M 168.9653,120.42341 L 366.14399,120.42341 C 385.47024,120.42341 401.02892,135.98209 401.02892,155.30834 L 401.02892,386.40672 C 401.02892,405.73296 385.47024,421.29164 366.14399,421.29164 L 168.9653,421.29164 C 149.63905,421.29164 134.08037,405.73296 134.08037,386.40672 L 134.08037,155.30834 C 134.08037,135.98209 149.63905,120.42341 168.9653,120.42341 z"
       style="fill:url(#linearGradient2660);fill-opacity:1;stroke:none;stroke-opacity:1" />
    <path
       id="text12682"
       d="M 196.81098,103.297 L 196.81098,83.629928 L 199.80096,83.629928 L 199.80096,93.382975 L 211.02108,83.629928 L 215.0745,83.629928 L 205.59597,91.598715 L 215.49063,103.297 L 211.54509,103.297 L 203.4999,93.342727 L 199.80096,96.481943 L 199.80096,103.297 L 196.81098,103.297 z M 232.84483,83.629928 L 235.8348,83.629928 L 235.8348,94.992823 C 235.83479,96.969376 235.57791,98.538984 235.06419,99.701657 C 234.55044,100.86433 233.62313,101.81012 232.28228,102.53903 C 230.9414,103.26793 229.18183,103.63238 227.00358,103.63238 C 224.88696,103.63238 223.15566,103.31489 221.80966,102.67989 C 220.46365,102.04489 219.50295,101.12594 218.92757,99.923005 C 218.35217,98.720093 218.06448,97.076705 218.06448,94.992823 L 218.06448,83.629928 L 221.05445,83.629928 L 221.05445,94.979416 C 221.05445,96.687655 221.23682,97.946471 221.60159,98.755863 C 221.96634,99.565265 222.59311,100.18909 223.48188,100.62732 C 224.37065,101.06556 225.45721,101.28468 226.74157,101.28468 C 228.94038,101.28468 230.50729,100.85091 231.44231,99.983378 C 232.37731,99.115852 232.84482,97.447861 232.84483,94.979416 L 232.84483,83.629928 z M 240.70507,103.297 L 240.70507,83.629928 L 249.18181,83.629928 C 250.90798,83.629948 252.29251,83.828944 253.33542,84.226917 C 254.3783,84.624928 255.19515,85.237567 255.78597,86.064835 C 256.37675,86.892139 256.67215,87.757436 256.67218,88.660727 C 256.67215,89.501444 256.41014,90.292955 255.88614,91.035265 C 255.36211,91.777598 254.57095,92.376822 253.51266,92.832937 C 254.87919,93.181749 255.9298,93.776504 256.66447,94.617198 C 257.3991,95.457901 257.76642,96.450651 257.76644,97.59543 C 257.76642,98.51663 257.54294,99.372979 257.096,100.16449 C 256.64903,100.956 256.09676,101.5664 255.43919,101.9957 C 254.78159,102.42499 253.95703,102.7492 252.96553,102.96832 C 251.97399,103.18744 250.75899,103.297 249.32053,103.297 L 240.70507,103.297 z M 243.69506,91.893855 L 248.58073,91.893855 C 249.90618,91.893866 250.8566,91.817845 251.432,91.665792 C 252.19233,91.469043 252.76514,91.142601 253.15047,90.686462 C 253.53577,90.23035 253.72842,89.657958 253.72843,88.969284 C 253.72842,88.316412 253.54861,87.741784 253.189,87.245396 C 252.82937,86.74904 252.31563,86.409183 251.64777,86.225821 C 250.9799,86.042493 249.83426,85.950821 248.21084,85.950804 L 243.69506,85.950804 L 243.69506,91.893855 z M 243.69506,100.97613 L 249.32053,100.97613 C 250.28635,100.97613 250.96448,100.94483 251.35495,100.88221 C 252.04335,100.77489 252.61873,100.59602 253.08111,100.3456 C 253.54347,100.09518 253.92363,99.730728 254.22163,99.252234 C 254.51958,98.773758 254.66856,98.221483 254.66857,97.59543 C 254.66856,96.862056 254.45279,96.224825 254.02127,95.683728 C 253.5897,95.14264 252.9912,94.762537 252.22573,94.543409 C 251.46024,94.3243 250.35827,94.214741 248.91981,94.214731 L 243.69506,94.214731 L 243.69506,100.97613 z M 261.97398,103.297 L 261.97398,83.629928 L 278.31098,83.629928 L 278.31098,85.950804 L 264.96397,85.950804 L 264.96397,91.974347 L 277.4633,91.974347 L 277.4633,94.281803 L 264.96397,94.281803 L 264.96397,100.97613 L 278.83499,100.97613 L 278.83499,103.297 L 261.97398,103.297 z M 282.96548,103.297 L 282.96548,83.629928 L 286.03252,83.629928 L 297.89994,99.071125 L 297.89994,83.629928 L 300.76663,83.629928 L 300.76663,103.297 L 297.69959,103.297 L 285.83216,87.842385 L 285.83216,103.297 L 282.96548,103.297 z M 304.78923,96.978314 L 307.60967,96.763664 C 307.74324,97.747476 308.05405,98.554639 308.54211,99.185162 C 309.03016,99.815685 309.78793,100.32548 310.81542,100.71452 C 311.8429,101.10357 312.99881,101.2981 314.28318,101.2981 C 315.42367,101.2981 316.4306,101.15053 317.30398,100.85538 C 318.17733,100.56025 318.8272,100.15555 319.25363,99.641284 C 319.68001,99.127029 319.89322,98.565816 319.89324,97.957648 C 319.89322,97.340541 319.68772,96.801683 319.27674,96.341083 C 318.86574,95.880492 318.18759,95.493681 317.24233,95.18064 C 316.6361,94.974947 315.29523,94.655216 313.21973,94.221439 C 311.14421,93.787681 309.69032,93.378506 308.85807,92.993923 C 307.7792,92.502033 306.9752,91.89163 306.44604,91.162711 C 305.91688,90.433818 305.65231,89.617711 305.65231,88.714389 C 305.65231,87.721661 305.97597,86.793759 306.62329,85.930681 C 307.2706,85.067637 308.21589,84.412517 309.45915,83.965315 C 310.70238,83.518153 312.08435,83.294562 313.60504,83.294542 C 315.27982,83.294562 316.75683,83.529332 318.03606,83.998854 C 319.31526,84.468414 320.29908,85.15931 320.98751,86.071543 C 321.6759,86.983811 322.04579,88.016801 322.09719,89.170515 L 319.23051,89.358332 C 319.07637,88.115181 318.55492,87.176099 317.66616,86.541084 C 316.77738,85.906103 315.46476,85.588604 313.72834,85.588586 C 311.91995,85.588604 310.60221,85.877037 309.77509,86.453884 C 308.94796,87.030765 308.5344,87.726132 308.5344,88.539988 C 308.5344,89.246551 308.82723,89.827886 309.41291,90.283999 C 309.98829,90.740137 311.49098,91.207442 313.92099,91.685915 C 316.35097,92.164411 318.01806,92.582526 318.92227,92.940261 C 320.23742,93.467941 321.20839,94.136483 321.83519,94.945875 C 322.46192,95.755277 322.77531,96.687655 322.77533,97.742998 C 322.77531,98.789404 322.4311,99.775446 321.74271,100.70111 C 321.05427,101.62678 320.06532,102.34674 318.77585,102.861 C 317.48634,103.37525 316.03503,103.63238 314.42189,103.63238 C 312.37719,103.63238 310.66386,103.37302 309.2819,102.85429 C 307.89993,102.33556 306.81593,101.55523 306.02991,100.51329 C 305.24389,99.471361 304.83033,98.293033 304.78923,96.978314 L 304.78923,96.978314 z"
       style="font-size:29.44868279px;font-style:normal;font-variant:normal;font-weight:normal;font-stretch:normal;line-height:100%;text-anchor:start;fill:#ffffff;fill-opacity:1;stroke:none;stroke-width:1px;stroke-linecap:butt;stroke-linejoin:miter;stroke-opacity:1;font-family:Anklepants" />
    <path
       id="text13444"
       d="M 256.44578,441.86941 L 258.30983,442.40066 C 257.91907,444.12812 257.21605,445.44541 256.20077,446.3525 C 255.18547,447.2596 253.94437,447.71314 252.47749,447.71314 C 250.95934,447.71314 249.72465,447.3644 248.77341,446.66691 C 247.82217,445.96942 247.09833,444.95933 246.6019,443.63663 C 246.10546,442.31393 245.85724,440.89366 245.85724,439.3758 C 245.85724,437.72063 246.13749,436.27686 246.69798,435.0445 C 247.25847,433.81216 248.05598,432.87616 249.0905,432.23648 C 250.125,431.59683 251.26361,431.27699 252.50631,431.27697 C 253.91555,431.27699 255.10059,431.68175 256.06144,432.49126 C 257.02228,433.3008 257.69168,434.43918 258.06962,435.90642 L 256.2344,436.39431 C 255.9077,435.23786 255.43369,434.39581 254.81234,433.86816 C 254.19098,433.34055 253.4095,433.07673 252.46787,433.07672 C 251.38531,433.07673 250.48052,433.36946 249.75348,433.95491 C 249.02643,434.54037 248.51558,435.3264 248.22093,436.313 C 247.92626,437.29961 247.77893,438.31693 247.77894,439.36496 C 247.77893,440.71657 247.95349,441.89652 248.3026,442.9048 C 248.65171,443.9131 249.19458,444.6666 249.93124,445.16533 C 250.66788,445.66405 251.46538,445.91341 252.32374,445.91341 C 253.36786,445.91341 254.25184,445.57369 254.97569,444.89427 C 255.69952,444.21486 256.18955,443.20657 256.44578,441.86941 L 256.44578,441.86941 z M 260.02975,433.62965 L 260.02975,431.75402 L 269.14819,431.75402 L 269.14819,433.27187 C 268.25139,434.34884 267.36261,435.77995 266.48184,437.56522 C 265.60106,439.35051 264.92046,441.18639 264.44004,443.07286 C 264.09413,444.40278 263.87313,445.85919 263.77705,447.4421 L 261.99949,447.4421 C 262.0187,446.19167 262.23649,444.68106 262.65286,442.91023 C 263.06923,441.13941 263.66655,439.43182 264.44485,437.78747 C 265.22313,436.14314 266.05105,434.75721 266.92864,433.62965 L 260.02975,433.62965 z M 270.86811,443.27885 L 272.68411,443.10538 C 272.81863,444.10283 273.1309,444.85272 273.62094,445.35505 C 274.11097,445.85739 274.70189,446.10855 275.3937,446.10855 C 276.22643,446.10855 276.93106,445.75439 277.50757,445.04606 C 278.08407,444.33773 278.37233,443.39812 278.37234,442.2272 C 278.37233,441.11411 278.09528,440.23592 277.5412,439.59264 C 276.98711,438.94936 276.26167,438.62773 275.36489,438.62772 C 274.80758,438.62773 274.30474,438.77047 273.85635,439.05597 C 273.40795,439.34148 273.05564,439.7119 272.79942,440.16726 L 271.17559,439.92873 L 272.53999,431.76486 L 279.54457,431.76486 L 279.54457,433.62965 L 273.92361,433.62965 L 273.16454,437.90131 C 274.01008,437.23636 274.89726,436.90388 275.82609,436.90387 C 277.05597,436.90388 278.09368,437.38453 278.93923,438.34583 C 279.78478,439.30715 280.20754,440.54311 280.20755,442.05372 C 280.20754,443.49207 279.83602,444.73527 279.09297,445.78331 C 278.18977,447.06986 276.95668,447.71314 275.3937,447.71314 C 274.11257,447.71314 273.06685,447.30839 272.25654,446.49886 C 271.44622,445.68934 270.98342,444.61601 270.86811,443.27885 L 270.86811,443.27885 z"
       style="font-size:20.90296745px;font-style:normal;font-variant:normal;font-weight:normal;font-stretch:normal;line-height:100%;text-anchor:start;fill:#fcf9f9;fill-opacity:1;stroke:none;stroke-width:1px;stroke-linecap:butt;stroke-linejoin:miter;stroke-opacity:1;font-family:Zekton" />
    <path
       style="fill:#000000;fill-opacity:1;stroke:#000000;stroke-opacity:1"
       d="M 201.50684,34.33233 L 229.55573,33.32912 L 264.43889,32.32591 L 303.45107,32.87312 L 325.94715,34.14993 L 325.94715,39.62198 L 301.74251,37.43316 L 264.43889,36.88595 L 231.54907,38.07157 L 201.50684,39.80438 L 201.50684,34.33233 z"
       id="rect14278"
       sodipodi:nodetypes="ccccccccccc" />
    <path
       id="rect15039"
       d="M 146.68426,678.06817 L 196.79411,678.06817 C 203.93339,678.06817 209.68089,683.09723 209.68089,689.3441 L 209.68089,699.26263 C 209.68089,705.5095 203.93339,710.53856 196.79411,710.53856 L 146.68426,710.53856 C 139.54498,710.53856 133.79748,705.5095 133.79748,699.26263 L 133.79748,689.3441 C 133.79748,683.09723 139.54498,678.06817 146.68426,678.06817 z"
       style="fill:#d6cfcf;fill-opacity:1;stroke:#000000;stroke-opacity:1" />
    <path
       id="rect16559"
       d="M 241.7243,742.50207 L 291.83414,742.50207 C 298.97342,742.50207 304.72093,747.53113 304.72093,753.778 L 304.72093,763.69653 C 304.72093,769.94339 298.97342,774.97246 291.83414,774.97246 L 241.7243,774.97246 C 234.58502,774.97246 228.83752,769.94339 228.83752,763.69653 L 228.83752,753.778 C 228.83752,747.53113 234.58502,742.50207 241.7243,742.50207 z"
       style="fill:#d6cfcf;fill-opacity:1;stroke:#000000;stroke-opacity:1" />
    <path
       id="rect16561"
       d="M 331.93179,570.14129 L 382.04163,570.14129 C 389.18091,570.14129 394.92842,575.17035 394.92842,581.41722 L 394.92842,591.33575 C 394.92842,597.58262 389.18091,602.61168 382.04163,602.61168 L 331.93179,602.61168 C 324.79251,602.61168 319.045,597.58262 319.045,591.33575 L 319.045,581.41722 C 319.045,575.17035 324.79251,570.14129 331.93179,570.14129 z"
       style="fill:#d6cfcf;fill-opacity:1;stroke:#000000;stroke-opacity:1" />
    <path
       id="rect16563"
       d="M 331.93179,628.13183 L 382.04163,628.13183 C 389.18091,628.13183 394.92842,633.16089 394.92842,639.40776 L 394.92842,649.32629 C 394.92842,655.57316 389.18091,660.60222 382.04163,660.60222 L 331.93179,660.60222 C 324.79251,660.60222 319.045,655.57316 319.045,649.32629 L 319.045,639.40776 C 319.045,633.16089 324.79251,628.13183 331.93179,628.13183 z"
       style="fill:#d6cfcf;fill-opacity:1;stroke:#000000;stroke-opacity:1" />
    <path
       id="rect16565"
       d="M 241.7243,583.02813 L 291.83414,583.02813 C 298.97342,583.02813 304.72093,588.0572 304.72093,594.30407 L 304.72093,604.22259 C 304.72093,610.46946 298.97342,615.49853 291.83414,615.49853 L 241.7243,615.49853 C 234.58502,615.49853 228.83752,610.46946 228.83752,604.22259 L 228.83752,594.30407 C 228.83752,588.0572 234.58502,583.02813 241.7243,583.02813 z"
       style="fill:#d6cfcf;fill-opacity:1;stroke:#000000;stroke-opacity:1" />
    <path
       id="rect16567"
       d="M 335.1535,682.90069 L 385.26334,682.90069 C 392.40262,682.90069 398.15013,687.92975 398.15013,694.17662 L 398.15013,704.09515 C 398.15013,710.34202 392.40262,715.37108 385.26334,715.37108 L 335.1535,715.37108 C 328.01422,715.37108 322.26672,710.34202 322.26672,704.09515 L 322.26672,694.17662 C 322.26672,687.92975 328.01422,682.90069 335.1535,682.90069 z"
       style="fill:#d6cfcf;fill-opacity:1;stroke:#000000;stroke-opacity:1" />
    <path
       id="rect16569"
       d="M 240.11346,690.95489 L 290.2233,690.95489 C 297.36258,690.95489 303.11009,695.98395 303.11009,702.23082 L 303.11009,712.14934 C 303.11009,718.39621 297.36258,723.42528 290.2233,723.42528 L 240.11346,723.42528 C 232.97418,723.42528 227.22668,718.39621 227.22668,712.14934 L 227.22668,702.23082 C 227.22668,695.98395 232.97418,690.95489 240.11346,690.95489 z"
       style="fill:#d6cfcf;fill-opacity:1;stroke:#000000;stroke-opacity:1" />
    <path
       id="rect16571"
       d="M 243.33517,636.18609 L 293.44502,636.18609 C 300.58429,636.18609 306.3318,641.21515 306.3318,647.46202 L 306.3318,657.38055 C 306.3318,663.62742 300.58429,668.65648 293.44502,668.65648 L 243.33517,668.65648 C 236.19589,668.65648 230.44839,663.62742 230.44839,657.38055 L 230.44839,647.46202 C 230.44839,641.21515 236.19589,636.18609 243.33517,636.18609 z"
       style="fill:#d6cfcf;fill-opacity:1;stroke:#000000;stroke-opacity:1" />
    <path
       id="rect16573"
       d="M 145.07342,624.91015 L 195.18327,624.91015 C 202.32255,624.91015 208.07005,629.93921 208.07005,636.18608 L 208.07005,646.10461 C 208.07005,652.35148 202.32255,657.38054 195.18327,657.38054 L 145.07342,657.38054 C 137.93414,657.38054 132.18664,652.35148 132.18664,646.10461 L 132.18664,636.18608 C 132.18664,629.93921 137.93414,624.91015 145.07342,624.91015 z"
       style="fill:#d6cfcf;fill-opacity:1;stroke:#000000;stroke-opacity:1" />
    <path
       id="rect16575"
       d="M 145.07342,571.75213 L 195.18327,571.75213 C 202.32255,571.75213 208.07005,576.78119 208.07005,583.02806 L 208.07005,592.94659 C 208.07005,599.19346 202.32255,604.22252 195.18327,604.22252 L 145.07342,604.22252 C 137.93414,604.22252 132.18664,599.19346 132.18664,592.94659 L 132.18664,583.02806 C 132.18664,576.78119 137.93414,571.75213 145.07342,571.75213 z"
       style="fill:#d6cfcf;fill-opacity:1;stroke:#000000;stroke-opacity:1" />
    <path
       style="fill:#d6cfcf;fill-opacity:1;stroke:#000000;stroke-opacity:1"
       d="M 327.03896,726.06809 L 378.86135,725.53945 C 384.74574,725.83103 396.32533,724.41403 390.24978,729.26178 L 377.1488,743.23549 C 370.70541,750.28781 364.15248,758.53851 357.0132,758.53851 L 327.03896,758.53851 C 319.89968,758.53851 314.15217,753.50951 314.15217,747.26261 L 314.15217,737.34409 C 314.15217,731.09719 319.89968,726.06809 327.03896,726.06809 z"
       id="path16580"
       sodipodi:nodetypes="ccccccccc" />
    <path
       style="fill:#d6cfcf;fill-opacity:1;stroke:#000000;stroke-opacity:1"
       d="M 202.52519,726.06805 L 150.7028,725.53945 C 144.81841,725.83105 133.23881,724.41405 139.31437,729.26175 L 152.41535,743.23549 C 158.85874,750.28781 165.41167,758.53851 172.55095,758.53851 L 202.52519,758.53851 C 209.66447,758.53851 215.41197,753.50951 215.41197,747.26261 L 215.41197,737.34405 C 215.41197,731.09715 209.66447,726.06805 202.52519,726.06805 z"
       id="path16583"
       sodipodi:nodetypes="ccccccccc" />
    <path
       style="fill:#eae0e0;fill-opacity:1;stroke:#000000;stroke-opacity:0.27096797"
       d="M 145.58352,476.28157 C 145.58352,476.28157 211.07775,476.86027 226.28585,476.98437 L 226.98774,544.33127 L 145.58352,542.47867 C 135.30258,542.47867 127.02587,534.29477 127.02587,524.12917 L 127.02587,494.63107 C 127.02587,484.46547 135.30258,476.28157 145.58352,476.28157 z"
       id="rect21313"
       sodipodi:nodetypes="ccccccc" />
    <path
       style="fill:#eae0e0;fill-opacity:1;stroke:#000000;stroke-opacity:0.27096797"
       d="M 392.12648,475.60377 C 392.12648,475.60377 325.36491,474.84367 310.79048,476.30657 L 311.35594,542.98397 L 392.12648,541.80087 C 402.40742,541.80087 410.68413,533.61697 410.68413,523.45137 L 410.68413,493.95327 C 410.68413,483.78767 402.40742,475.60377 392.12648,475.60377 z"
       id="path22074"
       sodipodi:nodetypes="ccccccc" />
    <path
       id="rect22085"
       d="M 186.77002,495.41417 L 358.25517,495.41417 C 370.84297,495.41417 380.97683,501.36022 380.97683,508.74611 C 380.97683,516.13201 370.84297,522.07805 358.25517,522.07805 L 186.77002,522.07805 C 174.18222,522.07805 164.04836,516.13201 164.04836,508.74611 C 164.04836,501.36022 174.18222,495.41417 186.77002,495.41417 z"
       style="fill:#e1dddd;fill-opacity:0.79354799;stroke:#000000;stroke-opacity:0.14193498" />
    <path
       style="fill:#cabcbc;fill-opacity:0.42580596;fill-rule:evenodd;stroke:#000000;stroke-width:0.97291499px;stroke-linecap:butt;stroke-linejoin:miter;stroke-opacity:0.27096797"
       d="M 164.52697,508.74607 L 380.94628,509.21947 L 164.52697,508.74607 z"
       id="path22087" />
    <path
       style="fill:#e1dddd;fill-opacity:1;stroke:#000000;stroke-opacity:1"
       d="M 227.45967,476.10047 L 312.06539,476.10047 L 312.06539,544.51967 L 227.45967,544.51967 L 227.45967,476.10047 z"
       id="path22091" />
    <path
       style="fill:#e1dddd;fill-opacity:0.79354799;stroke:#000000;stroke-opacity:0.14193498"
       d="M 237.48663,485.67236 L 302.98893,485.67236 L 302.98893,536.28667 L 237.48663,536.28667 L 237.48663,485.67236 z"
       id="path22093" />
    <path
       style="fill:#d5caca;fill-opacity:1;stroke:#000000;stroke-opacity:1"
       d="M 259.33187,500.98303 L 281.42211,500.98303 L 281.42211,521.53067 L 259.33187,521.53067 L 259.33187,500.98303 z"
       id="path22095" />
    <path
       id="rect22110"
       d="M 164.42715,485.38909 L 185.00731,485.38909 L 185.00731,490.04117 L 164.42715,490.04117 L 164.42715,485.38909 z"
       style="fill:#000000;fill-opacity:1;stroke:#000000;stroke-opacity:1" />
    <path
       id="rect23644"
       d="M 354.42715,485.38909 L 375.00731,485.38909 L 375.00731,490.04117 L 354.42715,490.04117 L 354.42715,485.38909 z"
       style="fill:#000000;fill-opacity:1;stroke:#000000;stroke-opacity:1" />
    <path
       id="text23800"
       d="M 154.01091,597.63534 L 150.53309,597.63534 L 150.53309,580.84956 C 149.69583,581.45447 148.59773,582.05937 147.23882,582.66424 C 145.87988,583.26915 144.65943,583.72282 143.57745,584.02525 L 143.57745,581.47885 C 145.52245,580.78616 147.22271,579.94712 148.67826,578.96171 C 150.13377,577.97634 151.16423,577.02022 151.76964,576.09335 L 154.01091,576.09335 L 154.01091,597.63534 z"
       style="font-size:34.4378624px;font-style:normal;font-variant:normal;font-weight:normal;font-stretch:normal;line-height:100%;text-anchor:start;fill:#000000;fill-opacity:1;stroke:none;stroke-width:1px;stroke-linecap:butt;stroke-linejoin:miter;stroke-opacity:1;font-family:Sans" />
    <path
       id="text23804"
       d="M 258.57112,606.762 L 258.57112,609.2939 L 239.84783,609.2939 C 239.82207,608.65971 239.95732,608.0499 240.25359,607.46449 C 240.73021,606.49857 241.49344,605.54727 242.54328,604.6106 C 243.59312,603.67395 245.10992,602.59094 247.09368,601.36157 C 250.17236,599.44923 252.25272,597.93447 253.33477,596.8173 C 254.41681,595.70015 254.95783,594.64397 254.95785,593.64875 C 254.95783,592.60478 254.46511,591.72423 253.47969,591.00708 C 252.49424,590.28996 251.20931,589.9314 249.62489,589.93138 C 247.95029,589.9314 246.61062,590.31192 245.60587,591.07293 C 244.6011,591.83399 244.09228,592.88773 244.07941,594.23416 L 240.50478,593.95609 C 240.74953,591.93643 241.67056,590.39729 243.26786,589.33865 C 244.86518,588.28005 247.00994,587.75074 249.70219,587.75072 C 252.42017,587.75074 254.57138,588.32152 256.15583,589.46305 C 257.74023,590.60462 258.53245,592.01937 258.53246,593.7073 C 258.53245,594.56591 258.30058,595.40988 257.83687,596.2392 C 257.37311,597.06855 256.60344,597.94179 255.52785,598.85892 C 254.45223,599.77608 252.66492,601.03472 250.16592,602.63483 C 248.0791,603.96178 246.73943,604.86185 246.14689,605.33505 C 245.55434,605.80826 245.06483,606.28391 244.67839,606.762 L 258.57112,606.762 z"
       style="font-size:34.43976212px;font-style:normal;font-variant:normal;font-weight:normal;font-stretch:normal;line-height:100%;text-anchor:start;fill:#000000;fill-opacity:1;stroke:none;stroke-width:1px;stroke-linecap:butt;stroke-linejoin:miter;stroke-opacity:1;font-family:Sans" />
    <path
       id="text23808"
       d="M 329.0848,590.13955 L 332.56275,589.7883 C 332.96207,591.28108 333.64155,592.35676 334.60122,593.01533 C 335.56086,593.67391 336.72984,594.0032 338.10814,594.0032 C 339.74405,594.0032 341.12558,593.5739 342.2527,592.71531 C 343.3798,591.85673 343.94336,590.79325 343.94337,589.52488 C 343.94336,588.31505 343.42167,587.31742 342.3783,586.532 C 341.33489,585.7466 340.00812,585.35389 338.39797,585.35388 C 337.74102,585.35389 336.92305,585.45145 335.94409,585.64658 L 336.33053,583.33424 C 336.56238,583.35376 336.74916,583.36352 336.89086,583.36351 C 338.3722,583.36352 339.70541,583.07082 340.8905,582.48541 C 342.07556,581.90002 342.6681,580.99752 342.66813,579.77792 C 342.6681,578.81202 342.23659,578.01197 341.37355,577.37777 C 340.51049,576.74361 339.39627,576.42651 338.03086,576.42649 C 336.67831,576.42651 335.5512,576.74848 334.64952,577.3924 C 333.74783,578.03637 333.16817,579.00228 332.91055,580.29015 L 329.4326,579.82183 C 329.85768,578.05588 330.82377,576.6875 332.33089,575.71669 C 333.83799,574.74592 335.71222,574.26052 337.95357,574.2605 C 339.49931,574.26052 340.92269,574.51176 342.22372,575.01421 C 343.52471,575.5167 344.51979,576.2021 345.20896,577.07043 C 345.89808,577.9388 346.24266,578.86081 346.24269,579.83646 C 346.24266,580.76337 345.91419,581.60732 345.25726,582.36832 C 344.6003,583.12936 343.62777,583.73428 342.33964,584.18308 C 344.0142,584.47579 345.31521,585.08314 346.24269,586.00514 C 347.17012,586.92716 347.63384,588.08089 347.63386,589.46633 C 347.63384,591.33962 346.73215,592.92753 344.92879,594.23005 C 343.12539,595.53256 340.84541,596.18382 338.08882,596.18382 C 335.60273,596.18382 333.5385,595.62281 331.89614,594.50079 C 330.25378,593.37877 329.31666,591.92502 329.0848,590.13955 L 329.0848,590.13955 z"
       style="font-size:34.43916321px;font-style:normal;font-variant:normal;font-weight:normal;font-stretch:normal;line-height:100%;text-anchor:start;fill:#000000;fill-opacity:1;stroke:none;stroke-width:1px;stroke-linecap:butt;stroke-linejoin:miter;stroke-opacity:1;font-family:Sans" />
    <path
       id="text23812"
       d="M 152.38032,651.21037 L 152.38032,646.07353 L 140.09175,646.07353 L 140.09175,643.65878 L 153.01794,629.75567 L 155.85821,629.75567 L 155.85821,643.65878 L 159.6839,643.65878 L 159.6839,646.07353 L 155.85821,646.07353 L 155.85821,651.21037 L 152.38032,651.21037 z M 152.38032,643.65878 L 152.38032,633.98515 L 143.51168,643.65878 L 152.38032,643.65878 z"
       style="font-size:34.43866348px;font-style:normal;font-variant:normal;font-weight:normal;font-stretch:normal;line-height:100%;text-anchor:start;fill:#000000;fill-opacity:1;stroke:none;stroke-width:1px;stroke-linecap:butt;stroke-linejoin:miter;stroke-opacity:1;font-family:Sans" />
    <path
       id="text23816"
       d="M 242.73726,657.12838 L 246.38896,656.89422 C 246.65945,658.2406 247.28739,659.25282 248.27278,659.93088 C 249.25816,660.60895 250.44641,660.94798 251.83754,660.94798 C 253.51203,660.94798 254.92892,660.46992 256.08821,659.5138 C 257.24747,658.55768 257.8271,657.28936 257.82712,655.70883 C 257.8271,654.20636 257.27001,653.02097 256.15584,652.15264 C 255.04163,651.28434 253.58288,650.85018 251.77958,650.85017 C 250.65894,650.85018 249.64779,651.04287 248.74616,651.42823 C 247.84449,651.81362 247.13604,652.31364 246.62082,652.92827 L 243.35554,652.60631 L 246.09915,641.58652 L 260.18431,641.58652 L 260.18431,644.10366 L 248.8814,644.10366 L 247.35503,649.86966 C 249.05528,648.97209 250.83927,648.5233 252.70699,648.52328 C 255.1801,648.5233 257.26679,649.17209 258.96707,650.46967 C 260.66732,651.76727 261.51745,653.43561 261.51747,655.47467 C 261.51745,657.4162 260.77036,659.09428 259.27621,660.50895 C 257.46,662.24557 254.98045,663.11389 251.83754,663.11389 C 249.26138,663.11389 247.15859,662.56754 245.52917,661.47482 C 243.89975,660.38212 242.96911,658.9333 242.73726,657.12838 L 242.73726,657.12838 z"
       style="font-size:34.4378624px;font-style:normal;font-variant:normal;font-weight:normal;font-stretch:normal;line-height:100%;text-anchor:start;fill:#000000;fill-opacity:1;stroke:none;stroke-width:1px;stroke-linecap:butt;stroke-linejoin:miter;stroke-opacity:1;font-family:Sans" />
    <path
       id="text23820"
       d="M 348.17657,638.20663 L 344.71807,638.41151 C 344.40892,637.37736 343.97097,636.62612 343.40424,636.1578 C 342.46392,635.40658 341.30465,635.03095 339.92641,635.03094 C 338.81865,635.03095 337.84616,635.26511 337.00891,635.73339 C 335.91403,636.33831 335.05102,637.22125 334.41987,638.38224 C 333.78871,639.54326 333.46024,641.19696 333.43449,643.34334 C 334.27173,642.37747 335.29575,641.66039 336.50656,641.19207 C 337.71735,640.72377 338.9861,640.48962 340.31284,640.48961 C 342.63137,640.48962 344.60535,641.13598 346.23479,642.42868 C 347.8642,643.72141 348.6789,645.39218 348.67892,647.441 C 348.6789,648.78738 348.2957,650.03863 347.52931,651.19475 C 346.76288,652.35088 345.70987,653.23626 344.37029,653.85092 C 343.03068,654.46556 341.51074,654.77289 339.81049,654.77289 C 336.9123,654.77289 334.54867,653.96555 332.7196,652.35088 C 330.89052,650.73621 329.97599,648.07517 329.97599,644.36775 C 329.97599,640.22133 330.98713,637.20662 333.00942,635.32363 C 334.77409,633.68458 337.1506,632.86505 340.13895,632.86503 C 342.36731,632.86505 344.19316,633.33823 345.6165,634.28458 C 347.03982,635.23096 347.89317,636.53831 348.17657,638.20663 L 348.17657,638.20663 z M 333.97548,647.45564 C 333.97547,648.36298 334.22988,649.2313 334.73867,650.06058 C 335.24745,650.88987 335.95912,651.5216 336.87366,651.95575 C 337.78819,652.38991 338.7478,652.60698 339.75252,652.60698 C 341.22092,652.60698 342.48324,652.15819 343.53947,651.26061 C 344.59569,650.36303 345.1238,649.14348 345.12381,647.60198 C 345.1238,646.11902 344.60212,644.95071 343.5588,644.09702 C 342.51544,643.24335 341.2016,642.81651 339.61727,642.8165 C 338.04581,642.81651 336.71265,643.24335 335.61778,644.09702 C 334.52291,644.95071 333.97547,646.07024 333.97548,647.45564 L 333.97548,647.45564 z"
       style="font-size:34.4378624px;font-style:normal;font-variant:normal;font-weight:normal;font-stretch:normal;line-height:100%;text-anchor:start;fill:#000000;fill-opacity:1;stroke:none;stroke-width:1px;stroke-linecap:butt;stroke-linejoin:miter;stroke-opacity:1;font-family:Sans" />
    <path
       id="text23824"
       d="M 148.56794,685.53366 L 148.56794,683.00188 L 166.90377,683.00188 L 166.90377,685.05071 C 165.10044,686.50443 163.31322,688.43618 161.54212,690.84598 C 159.771,693.25581 158.40242,695.73392 157.43637,698.28031 C 156.7408,700.07548 156.2964,702.04138 156.10321,704.17802 L 152.52879,704.17802 C 152.56742,702.49017 153.00537,700.4511 153.84262,698.06079 C 154.67987,695.6705 155.881,693.36556 157.44604,691.14599 C 159.01104,688.92644 160.67588,687.05566 162.44057,685.53366 L 148.56794,685.53366 z"
       style="font-size:34.4378624px;font-style:normal;font-variant:normal;font-weight:normal;font-stretch:normal;line-height:100%;text-anchor:start;fill:#000000;fill-opacity:1;stroke:none;stroke-width:1px;stroke-linecap:butt;stroke-linejoin:miter;stroke-opacity:1;font-family:Sans" />
    <path
       id="text23828"
       d="M 246.55529,705.91933 C 245.11264,705.51933 244.04353,704.94859 243.34797,704.2071 C 242.65241,703.46563 242.30463,702.5778 242.30463,701.54361 C 242.30463,699.98261 243.04528,698.67039 244.52657,697.60693 C 246.00786,696.54351 247.97862,696.01179 250.43886,696.01176 C 252.91196,696.01179 254.90204,696.55571 256.40912,697.64352 C 257.91615,698.73137 258.66968,700.05579 258.66969,701.61679 C 258.66968,702.61195 258.32511,703.47782 257.63601,704.21441 C 256.94687,704.95102 255.90031,705.51933 254.49632,705.91933 C 256.2352,706.34862 257.5587,707.04132 258.46682,707.99743 C 259.3749,708.95356 259.82895,710.09505 259.82897,711.4219 C 259.82895,713.2561 258.97238,714.7976 257.25924,716.04641 C 255.54609,717.29523 253.29195,717.91963 250.49683,717.91963 C 247.70168,717.91963 245.44755,717.29278 243.7344,716.0391 C 242.02125,714.78541 241.16467,713.22196 241.16468,711.34873 C 241.16467,709.95359 241.6316,708.78526 242.56547,707.84377 C 243.49932,706.90229 244.82926,706.26082 246.55529,705.91933 L 246.55529,705.91933 z M 245.85973,701.45581 C 245.85972,702.47048 246.29124,703.29977 247.15426,703.94367 C 248.01726,704.5876 249.13789,704.90956 250.51614,704.90955 C 251.85574,704.90956 252.95383,704.59004 253.81041,703.95099 C 254.66697,703.31196 255.09526,702.52901 255.09527,701.60215 C 255.09526,700.63629 254.65409,699.82408 253.77177,699.16551 C 252.88942,698.50697 251.79133,698.17769 250.4775,698.17768 C 249.15077,698.17769 248.04946,698.49966 247.17357,699.14355 C 246.29767,699.78749 245.85972,700.55824 245.85973,701.45581 L 245.85973,701.45581 z M 244.73911,711.36337 C 244.73909,712.11461 244.97417,712.84146 245.44433,713.54391 C 245.91447,714.24637 246.61325,714.79028 247.54068,715.17566 C 248.46808,715.56104 249.46635,715.75372 250.53547,715.75372 C 252.19708,715.75372 253.56889,715.34884 254.65088,714.53905 C 255.73285,713.72929 256.27384,712.69999 256.27387,711.45117 C 256.27384,710.18286 255.71675,709.13405 254.60258,708.30476 C 253.48837,707.47548 252.09403,707.06084 250.41953,707.06082 C 248.78367,707.06084 247.42797,707.47059 246.35242,708.29012 C 245.27687,709.10966 244.73909,710.13408 244.73911,711.36337 L 244.73911,711.36337 z"
       style="font-size:34.4378624px;font-style:normal;font-variant:normal;font-weight:normal;font-stretch:normal;line-height:100%;text-anchor:start;fill:#000000;fill-opacity:1;stroke:none;stroke-width:1px;stroke-linecap:butt;stroke-linejoin:miter;stroke-opacity:1;font-family:Sans" />
    <path
       id="text23832"
       d="M 334.706,704.25077 L 338.04857,704.01661 C 338.33194,705.20689 338.87293,706.07032 339.67155,706.60692 C 340.47015,707.14352 341.49417,707.41182 342.74362,707.41182 C 343.81271,707.41182 344.7498,707.22645 345.55486,706.85571 C 346.3599,706.48497 347.02003,705.98984 347.53528,705.3703 C 348.0505,704.75078 348.482,703.91418 348.8298,702.86049 C 349.17756,701.80681 349.35145,700.73362 349.35148,699.6409 C 349.35145,699.52383 349.34502,699.34821 349.33215,699.11406 C 348.63657,699.95311 347.68661,700.63361 346.48228,701.15557 C 345.27791,701.67754 343.97372,701.93852 342.56972,701.93851 C 340.22541,701.93852 338.24177,701.2946 336.61879,700.00676 C 334.99581,698.71893 334.18433,697.02133 334.18433,694.91395 C 334.18433,692.7383 335.03124,690.98704 336.72507,689.66016 C 338.41888,688.33332 340.54099,687.66989 343.0914,687.66986 C 344.93334,687.66989 346.61751,688.04551 348.1439,688.79673 C 349.67026,689.54798 350.82953,690.61874 351.62171,692.009 C 352.41386,693.3993 352.80995,695.41154 352.80997,698.04573 C 352.80995,700.78727 352.41709,702.97025 351.63138,704.59468 C 350.84563,706.21911 349.6767,707.45572 348.12458,708.30452 C 346.57242,709.15332 344.75301,709.57773 342.66633,709.57773 C 340.45083,709.57773 338.64108,709.11186 337.23707,708.18013 C 335.83306,707.24841 334.98937,705.93861 334.706,704.25077 L 334.706,704.25077 z M 348.94572,694.78224 C 348.94571,693.27002 348.41438,692.06999 347.35173,691.18215 C 346.28905,690.29434 345.01062,689.85042 343.51647,689.85041 C 341.97076,689.85042 340.62472,690.32849 339.47834,691.28459 C 338.33194,692.24073 337.75874,693.47978 337.75875,695.00176 C 337.75874,696.36766 338.30296,697.47744 339.39139,698.3311 C 340.47982,699.18479 341.82263,699.61164 343.41986,699.61163 C 345.02995,699.61164 346.35345,699.18479 347.39037,698.3311 C 348.42726,697.47744 348.94571,696.29448 348.94572,694.78224 L 348.94572,694.78224 z"
       style="font-size:34.4378624px;font-style:normal;font-variant:normal;font-weight:normal;font-stretch:normal;line-height:100%;text-anchor:start;fill:#000000;fill-opacity:1;stroke:none;stroke-width:1px;stroke-linecap:butt;stroke-linejoin:miter;stroke-opacity:1;font-family:Sans" />
    <path
       id="text23836"
       d="M 238.41808,757.46372 C 238.41808,754.92709 238.76264,752.88558 239.45177,751.33917 C 240.14088,749.79281 241.16491,748.6001 242.52384,747.76104 C 243.88275,746.92201 245.59268,746.50249 247.65362,746.50247 C 249.17355,746.50249 250.5067,746.7342 251.65311,747.19761 C 252.79949,747.66106 253.74623,748.32937 254.49333,749.20254 C 255.24039,750.07575 255.82647,751.13919 256.25155,752.39286 C 256.67661,753.64656 256.88913,755.33685 256.88915,757.46372 C 256.88913,759.98087 256.54779,762.01262 255.86514,763.55899 C 255.18243,765.10538 254.16163,766.30052 252.80272,767.14445 C 251.44378,767.98837 249.72742,768.41033 247.65362,768.41033 C 244.92288,768.41033 242.77823,767.66885 241.21965,766.18589 C 239.35194,764.40048 238.41808,761.49309 238.41808,757.46372 L 238.41808,757.46372 z M 241.99251,757.46372 C 241.9925,760.98577 242.53671,763.32973 243.62515,764.4956 C 244.71356,765.66148 246.05639,766.24442 247.65362,766.24442 C 249.25083,766.24442 250.59364,765.65905 251.68209,764.48829 C 252.7705,763.31752 253.31472,760.97601 253.31473,757.46372 C 253.31472,753.93194 252.7705,751.58554 251.68209,750.42452 C 250.59364,749.26354 249.23795,748.68303 247.61498,748.68302 C 246.01775,748.68303 244.74255,749.19524 243.78938,750.21964 C 242.59146,751.527 241.9925,753.94169 241.99251,757.46372 L 241.99251,757.46372 z"
       style="font-size:34.4378624px;font-style:normal;font-variant:normal;font-weight:normal;font-stretch:normal;line-height:100%;text-anchor:start;fill:#000000;fill-opacity:1;stroke:none;stroke-width:1px;stroke-linecap:butt;stroke-linejoin:miter;stroke-opacity:1;font-family:Sans" />
    <path
       id="text23840"
       d="M 158.26054,745.18291 L 159.77364,740.78871 L 156.83441,740.78871 L 156.83441,739.25177 L 160.2954,739.25177 L 161.5824,735.50742 L 156.83441,735.50742 L 156.83441,733.97048 L 162.10416,733.97048 L 163.61725,729.54533 L 166.22603,729.54533 L 164.71294,733.97048 L 170.19139,733.97048 L 171.70449,729.54533 L 174.33067,729.54533 L 172.81757,733.97048 L 175.82638,733.97048 L 175.82638,735.50742 L 172.29581,735.50742 L 170.99142,739.25177 L 175.82638,739.25177 L 175.82638,740.78871 L 170.46967,740.78871 L 168.95656,745.18291 L 166.34778,745.18291 L 167.84348,740.78871 L 162.38243,740.78871 L 160.86934,745.18291 L 158.26054,745.18291 z M 162.90419,739.25177 L 168.36524,739.25177 L 169.66964,735.50742 L 164.19118,735.50742 L 162.90419,739.25177 z"
       style="font-size:27.43081284px;font-style:normal;font-variant:normal;font-weight:normal;font-stretch:normal;line-height:100%;text-anchor:start;fill:#000000;fill-opacity:1;stroke:none;stroke-width:1px;stroke-linecap:butt;stroke-linejoin:miter;stroke-opacity:1;font-family:Sans" />
    <path
       id="text23844"
       d="M 322.27858,737.74623 L 323.48726,734.74569 C 326.27247,735.5346 328.29569,736.21782 329.55692,736.79535 C 329.22409,734.24563 329.04891,732.4918 329.03141,731.53386 L 332.84137,731.53386 C 332.7888,732.9285 332.58735,734.67529 332.23703,736.77422 C 334.04127,736.04173 336.10827,735.36555 338.43806,734.74569 L 339.64673,737.74623 C 337.42205,738.33791 335.24118,738.73234 333.10412,738.92954 C 334.17264,739.67617 335.67911,741.00739 337.62352,742.9232 L 334.47044,744.71929 C 333.45445,743.60644 332.25452,742.09209 330.87069,740.17623 C 329.57443,742.16252 328.43582,743.67687 327.45488,744.71929 L 324.35436,742.9232 C 326.38632,740.90878 327.84024,739.57756 328.7161,738.92954 C 326.4564,738.57739 324.31055,738.18294 322.27858,737.74623 L 322.27858,737.74623 z"
       style="font-size:48.25706863px;font-style:normal;font-variant:normal;font-weight:normal;font-stretch:normal;line-height:100%;text-anchor:start;fill:#000000;fill-opacity:1;stroke:none;stroke-width:1px;stroke-linecap:butt;stroke-linejoin:miter;stroke-opacity:1;font-family:Sans" />
    <path
       id="text1754"
       d="M 271.06264,602.82262 C 270.25686,603.29496 269.4813,603.62836 268.73596,603.82285 C 267.99062,604.01733 267.19088,604.11458 266.33676,604.11458 C 264.92665,604.11458 263.84288,603.87702 263.08546,603.40192 C 262.32802,602.92682 261.94931,602.31974 261.94931,601.58069 C 261.94931,601.14726 262.09234,600.75133 262.37839,600.39292 C 262.66443,600.03451 263.03912,599.74695 263.50244,599.53023 C 263.96577,599.31352 264.48751,599.14959 265.06766,599.03845 C 265.49473,598.96066 266.13934,598.88565 267.00153,598.8134 C 268.75811,598.66893 270.05138,598.49667 270.88134,598.29662 C 270.88939,598.09102 270.89341,597.96044 270.89343,597.90486 C 270.89341,597.29362 270.68794,596.86298 270.27701,596.61291 C 269.72101,596.27395 268.8951,596.10448 267.79925,596.10447 C 266.7759,596.10448 266.02049,596.22811 265.533,596.47538 C 265.0455,596.72267 264.68492,597.16026 264.45125,597.78817 L 262.324,597.58813 C 262.51738,596.96022 262.83566,596.45316 263.27884,596.06696 C 263.72201,595.68076 264.36261,595.38348 265.20062,595.17509 C 266.03862,594.96672 267.00958,594.86253 268.1135,594.86252 C 269.20934,594.86253 270.09973,594.95143 270.78465,595.12925 C 271.46955,595.30708 271.97315,595.53074 272.29548,595.80023 C 272.61778,596.06974 272.8434,596.41009 272.97233,596.82129 C 273.04483,597.07691 273.0811,597.53812 273.08112,598.20493 L 273.08112,600.20538 C 273.0811,601.60013 273.12743,602.48227 273.2201,602.8518 C 273.31275,603.22132 273.49607,603.57557 273.77005,603.91454 L 271.49776,603.91454 C 271.27213,603.60336 271.12709,603.23938 271.06264,602.82262 L 271.06264,602.82262 z M 270.88134,599.47188 C 270.09168,599.69416 268.90719,599.88309 267.32787,600.03867 C 266.43345,600.12758 265.80092,600.22761 265.43027,600.33874 C 265.05961,600.44988 264.77355,600.61242 264.57211,600.82634 C 264.37066,601.04029 264.26995,601.27784 264.26995,601.53901 C 264.26995,601.9391 264.48952,602.2725 264.92867,602.53923 C 265.36782,602.80596 266.01042,602.93932 266.85649,602.93932 C 267.69449,602.93932 268.43983,602.8129 269.09252,602.56007 C 269.74518,602.30723 270.22462,601.96132 270.53083,601.52234 C 270.76449,601.18337 270.88134,600.68326 270.88134,600.022 L 270.88134,599.47188 z M 278.47176,603.91454 L 276.45328,603.91454 L 276.45328,591.69515 L 278.62888,591.69515 L 278.62888,596.05445 C 279.54746,595.25984 280.71986,594.86253 282.14609,594.86252 C 282.93575,594.86253 283.68311,594.97228 284.38816,595.19176 C 285.09322,595.41126 285.67337,595.71966 286.12864,596.11696 C 286.5839,596.51429 286.94046,596.99355 287.19831,597.55479 C 287.45615,598.11603 287.58507,598.71616 287.58508,599.35519 C 287.58507,600.87219 287.04118,602.04467 285.95338,602.87264 C 284.86558,603.7006 283.56022,604.11458 282.03732,604.11458 C 280.52245,604.11458 279.33394,603.67837 278.47176,602.80596 L 278.47176,603.91454 z M 278.44758,599.42187 C 278.44758,600.48322 278.65708,601.25006 279.07608,601.72238 C 279.76099,602.49478 280.68764,602.88097 281.85602,602.88097 C 282.80682,602.88097 283.62872,602.59619 284.32169,602.02661 C 285.01464,601.45704 285.36114,600.60825 285.36114,599.48021 C 285.36114,598.32441 285.02874,597.47144 284.364,596.92131 C 283.69922,596.37119 282.89546,596.09614 281.95271,596.09613 C 281.00188,596.09614 280.18,596.38092 279.48704,596.95049 C 278.79406,597.52007 278.44758,598.34386 278.44758,599.42187 L 278.44758,599.42187 z M 298.62019,600.67215 L 300.75953,600.86386 C 300.52585,601.88075 299.92756,602.67676 298.96466,603.25189 C 298.00175,603.82702 296.81927,604.11458 295.41724,604.11458 C 293.66064,604.11458 292.24852,603.71866 291.18086,602.92682 C 290.11321,602.13497 289.57938,601 289.57938,599.52189 C 289.57938,598.56613 289.80903,597.72983 290.26832,597.013 C 290.72761,596.29618 291.42662,595.75856 292.36535,595.40014 C 293.30407,595.04174 294.3254,594.86253 295.42931,594.86252 C 296.8233,594.86253 297.96347,595.10564 298.84984,595.59185 C 299.73619,596.07808 300.30425,596.76851 300.55406,597.66314 L 298.43889,597.8882 C 298.23744,597.29362 297.88088,596.8463 297.36923,596.54623 C 296.85754,596.24617 296.23912,596.09614 295.51392,596.09613 C 294.41806,596.09614 293.52768,596.36703 292.84277,596.90881 C 292.15787,597.4506 291.81541,598.30774 291.81541,599.48021 C 291.81541,600.66937 292.14578,601.53345 292.80651,602.07246 C 293.46724,602.61147 294.32943,602.88097 295.39306,602.88097 C 296.24718,602.88097 296.96029,602.70038 297.5324,602.33919 C 298.10448,601.978 298.46709,601.42231 298.62019,600.67215 L 298.62019,600.67215 z"
       style="font-size:20.55609131px;font-style:normal;font-variant:normal;font-weight:normal;font-stretch:normal;line-height:100%;text-anchor:start;fill:#000000;fill-opacity:1;stroke:none;stroke-width:1px;stroke-linecap:butt;stroke-linejoin:miter;stroke-opacity:1;font-family:Sans" />
    <path
       id="text1758"
       d="M 361.09253,592.98498 L 361.09253,591.69319 C 360.15221,592.70862 358.76968,593.21634 356.94492,593.21634 C 355.76254,593.21634 354.67559,592.9914 353.68407,592.54153 C 352.69255,592.09165 351.92447,591.46343 351.37984,590.65686 C 350.8352,589.8503 350.56289,588.92324 350.56289,587.87566 C 350.56289,586.8538 350.8096,585.92674 351.30304,585.09446 C 351.79646,584.26219 352.53661,583.62433 353.52348,583.18088 C 354.51033,582.73743 355.61357,582.51571 356.8332,582.51571 C 357.72695,582.51571 358.52295,582.64586 359.22122,582.90613 C 359.91946,583.16643 360.48737,583.50544 360.92495,583.92317 L 360.92495,578.85242 L 363.4247,578.85242 L 363.4247,592.98498 L 361.09253,592.98498 z M 353.14642,587.87566 C 353.14642,589.18673 353.54675,590.16682 354.34742,590.81593 C 355.14807,591.46504 356.09304,591.78959 357.18232,591.78958 C 358.2809,591.78959 359.21422,591.47949 359.98232,590.85931 C 360.75037,590.23912 361.13441,589.29277 361.13443,588.02026 C 361.13441,586.61923 360.74339,585.59094 359.96136,584.9354 C 359.17932,584.27987 358.21573,583.9521 357.0706,583.95209 C 355.95339,583.9521 355.02005,584.26702 354.2706,584.89684 C 353.52114,585.52667 353.14642,586.51961 353.14642,587.87566 L 353.14642,587.87566 z M 377.54337,589.68802 L 380.14087,589.90975 C 379.73121,590.95731 378.97245,591.77031 377.86456,592.34872 C 376.75665,592.92713 375.34154,593.21634 373.61919,593.21634 C 371.44994,593.21634 369.72991,592.75521 368.4591,591.83297 C 367.18828,590.91072 366.55287,589.61733 366.55287,587.95278 C 366.55287,586.23041 367.19526,584.89363 368.48005,583.94246 C 369.76483,582.99129 371.43132,582.51571 373.47954,582.51571 C 375.46257,582.51571 377.0825,582.98165 378.33937,583.91353 C 379.59622,584.84543 380.22464,586.15649 380.22466,587.84674 C 380.22464,587.94957 380.21999,588.10382 380.21069,588.30947 L 369.15037,588.30947 C 369.24347,589.43417 369.70431,590.29536 370.53291,590.89305 C 371.3615,591.49074 372.39491,591.78959 373.63315,591.78958 C 374.55483,591.78959 375.34154,591.62249 375.99324,591.2883 C 376.64494,590.95411 377.16164,590.42068 377.54337,589.68802 L 377.54337,589.68802 z M 369.29003,586.88272 L 377.57129,586.88272 C 377.45956,586.02153 377.14302,585.37564 376.62167,584.94503 C 375.821,584.27666 374.78293,583.94246 373.50747,583.94246 C 372.35301,583.94246 371.38244,584.20918 370.59575,584.74259 C 369.80905,585.27603 369.37381,585.9894 369.29003,586.88272 L 369.29003,586.88272 z M 383.91143,592.98498 L 383.91143,584.0967 L 381.69098,584.0967 L 381.69098,582.74706 L 383.91143,582.74706 L 383.91143,581.65772 C 383.91142,580.97007 383.99987,580.45914 384.17676,580.12493 C 384.41882,579.67507 384.84476,579.31034 385.45457,579.03077 C 386.06438,578.75121 386.91856,578.61143 388.01715,578.61141 C 388.72471,578.61143 389.50675,578.66927 390.36328,578.78494 L 389.98623,580.29845 C 389.46486,580.2342 388.97143,580.20207 388.50593,580.20205 C 387.7425,580.20207 387.20252,580.31453 386.88598,580.53946 C 386.56944,580.76441 386.41117,581.18537 386.41118,581.80232 L 386.41118,582.74706 L 389.30194,582.74706 L 389.30194,584.0967 L 386.41118,584.0967 L 386.41118,592.98498 L 383.91143,592.98498 z"
       style="font-size:23.76263237px;font-style:normal;font-variant:normal;font-weight:normal;font-stretch:normal;line-height:100%;text-anchor:start;fill:#000000;fill-opacity:1;stroke:none;stroke-width:1px;stroke-linecap:butt;stroke-linejoin:miter;stroke-opacity:1;font-family:Sans" />
    <path
       id="text1762"
       d="M 163.25438,647.41301 L 165.6793,647.64269 C 165.78091,648.11974 166.06267,648.46721 166.52456,648.68511 C 167.14349,648.97958 167.98875,649.12682 169.06034,649.12682 C 170.21506,649.12682 171.10651,648.97958 171.73469,648.68511 C 172.36286,648.39064 172.78779,647.97839 173.00951,647.44835 C 173.13883,647.12443 173.19887,646.4442 173.18965,645.40767 C 172.09957,646.2263 170.74161,646.63561 169.11577,646.63561 C 167.09268,646.63561 165.52687,646.17035 164.41834,645.23982 C 163.3098,644.3093 162.75553,643.19326 162.75553,641.8917 C 162.75553,640.99652 163.00957,640.17053 163.51765,639.41374 C 164.02573,638.65696 164.76244,638.07244 165.72779,637.66017 C 166.69315,637.24792 167.82709,637.04179 169.12963,637.04179 C 170.86633,637.04179 172.2982,637.48939 173.42521,638.38456 L 173.42521,637.25381 L 175.72543,637.25381 L 175.72543,645.3635 C 175.72541,646.82407 175.49216,647.85913 175.02566,648.46868 C 174.55915,649.07823 173.82012,649.55969 172.80859,649.91305 C 171.79704,650.26641 170.55225,650.4431 169.07421,650.4431 C 167.319,650.4431 165.901,650.19133 164.82018,649.68778 C 163.73935,649.18424 163.21742,648.42598 163.25438,647.41301 L 163.25438,647.41301 z M 165.31903,641.77686 C 165.31902,643.00775 165.7024,643.90587 166.46914,644.47126 C 167.23587,645.03664 168.1966,645.31933 169.35133,645.31933 C 170.49682,645.31933 171.45755,645.03811 172.23353,644.47567 C 173.00951,643.91324 173.39749,643.0313 173.39751,641.82987 C 173.39749,640.68144 172.99796,639.8157 172.19889,639.23264 C 171.39981,638.6496 170.43678,638.35807 169.30976,638.35806 C 168.20122,638.35807 167.25896,638.64518 166.48299,639.21939 C 165.70702,639.79361 165.31902,640.6461 165.31903,641.77686 L 165.31903,641.77686 z M 179.50832,646.63561 L 179.50832,633.68483 L 182.00254,633.68483 L 182.00254,638.33156 C 183.1665,637.47172 184.63531,637.04179 186.40897,637.04179 C 187.49903,637.04179 188.4459,637.17872 189.24961,637.45258 C 190.05328,637.72644 190.62833,638.10483 190.97476,638.58776 C 191.32117,639.07069 191.49438,639.77153 191.49439,640.69026 L 191.49439,646.63561 L 189.00017,646.63561 L 189.00017,640.69026 C 189.00017,639.8952 188.72996,639.31657 188.18956,638.95437 C 187.64914,638.59218 186.88471,638.41108 185.89627,638.41107 C 185.15724,638.41108 184.4621,638.53328 183.81084,638.77768 C 183.15956,639.0221 182.69536,639.35338 182.41824,639.77152 C 182.14109,640.18967 182.00252,640.76683 182.00254,641.503 L 182.00254,646.63561 L 179.50832,646.63561 z M 195.31885,635.51349 L 195.31885,633.68483 L 197.81306,633.68483 L 197.81306,635.51349 L 195.31885,635.51349 z M 195.31885,646.63561 L 195.31885,637.25381 L 197.81306,637.25381 L 197.81306,646.63561 L 195.31885,646.63561 z"
       style="font-size:22.65902519px;font-style:normal;font-variant:normal;font-weight:normal;font-stretch:normal;line-height:100%;text-anchor:start;fill:#000000;fill-opacity:1;stroke:none;stroke-width:1px;stroke-linecap:butt;stroke-linejoin:miter;stroke-opacity:1;font-family:Sans" />
    <path
       id="text1766"
       d="M 269.47725,645.21381 L 269.47725,642.92403 L 272.49537,642.92403 L 272.49537,645.21381 L 269.47725,645.21381 z M 265.6543,663.49916 L 266.2244,661.82291 C 266.82802,661.92517 267.3031,661.9763 267.64961,661.9763 C 268.26442,661.9763 268.72272,661.84299 269.02453,661.5764 C 269.32634,661.30981 269.47725,660.64333 269.47725,659.57696 L 269.47725,647.3502 L 272.49537,647.3502 L 272.49537,659.62078 C 272.49536,661.05234 272.21031,662.04933 271.64023,662.61174 C 270.91365,663.34212 269.7064,663.70731 268.01849,663.70732 C 267.20248,663.70731 266.41442,663.63793 265.6543,663.49916 L 265.6543,663.49916 z M 277.15667,658.98534 L 277.15667,642.92403 L 280.1748,642.92403 L 280.1748,652.08314 L 287.31768,647.3502 L 291.22446,647.3502 L 284.41693,651.66682 L 291.91192,658.98534 L 288.18957,658.98534 L 282.30424,653.0363 L 280.1748,654.37292 L 280.1748,658.98534 L 277.15667,658.98534 z M 294.24257,658.98534 L 294.24257,642.92403 L 297.26068,642.92403 L 297.26068,658.98534 L 294.24257,658.98534 z"
       style="font-size:27.75780678px;font-style:normal;font-variant:normal;font-weight:normal;font-stretch:normal;line-height:100%;text-anchor:start;fill:#000000;fill-opacity:1;stroke:none;stroke-width:1px;stroke-linecap:butt;stroke-linejoin:miter;stroke-opacity:1;font-family:Sans" />
    <path
       id="text1770"
       d="M 352.08154,652.15337 L 352.08154,638.26276 L 353.66891,638.26276 L 353.66891,640.21163 C 353.99755,639.5315 354.43465,638.98433 354.98022,638.57013 C 355.52577,638.15596 356.14691,637.94886 356.84365,637.94884 C 357.61925,637.94886 358.25519,638.1625 358.75145,638.58976 C 359.24771,639.01703 359.59771,639.61434 359.80149,640.38167 C 360.62967,638.75979 361.70763,637.94886 363.03538,637.94884 C 364.0739,637.94886 364.87251,638.33035 365.43123,639.09332 C 365.98991,639.85631 366.26926,641.0313 366.26928,642.61829 L 366.26928,652.15337 L 364.50444,652.15337 L 364.50444,643.40307 C 364.50442,642.46135 364.44691,641.78339 364.3319,641.36918 C 364.21686,640.95501 364.00817,640.62147 363.70582,640.36859 C 363.40346,640.11572 363.04852,639.98929 362.64101,639.98928 C 361.90482,639.98929 361.29353,640.3141 360.80715,640.96372 C 360.32074,641.61335 360.07754,642.65318 360.07755,644.08322 L 360.07755,652.15337 L 358.30285,652.15337 L 358.30285,643.1284 C 358.30284,642.08203 358.15823,641.29725 357.86903,640.77405 C 357.57982,640.25089 357.10656,639.98929 356.44927,639.98928 C 355.94972,639.98929 355.48797,640.16368 355.06402,640.51247 C 354.64006,640.86126 354.33278,641.37137 354.14216,642.04279 C 353.95154,642.71421 353.85623,643.68212 353.85624,644.94647 L 353.85624,652.15337 L 352.08154,652.15337 z M 368.92147,652.15337 L 368.92147,638.26276 L 370.5187,638.26276 L 370.5187,640.23779 C 371.28773,638.71185 372.39856,637.94886 373.85119,637.94884 C 374.48219,637.94886 375.06226,638.09928 375.59138,638.40009 C 376.1205,638.70094 376.51652,639.09551 376.77945,639.58381 C 377.04236,640.07213 377.2264,640.652 377.33157,641.32341 C 377.3973,641.7594 377.43016,642.52238 377.43017,643.61234 L 377.43017,652.15337 L 375.65547,652.15337 L 375.65547,643.70391 C 375.65547,642.74474 375.58645,642.02754 375.44842,641.5523 C 375.31039,641.07707 375.06554,640.69777 374.71389,640.41437 C 374.36223,640.13099 373.94979,639.98929 373.47654,639.98928 C 372.72064,639.98929 372.06828,640.30757 371.51943,640.94409 C 370.97059,641.58065 370.69617,642.78833 370.69617,644.56716 L 370.69617,652.15337 L 368.92147,652.15337 z M 379.50066,645.20806 C 379.50066,642.63574 380.03964,640.73047 381.1176,639.49225 C 382.0181,638.46332 383.11579,637.94886 384.41066,637.94884 C 385.85014,637.94886 387.02669,638.57451 387.94034,639.82578 C 388.85397,641.07707 389.31079,642.80578 389.31081,645.01187 C 389.31079,646.79943 389.10868,648.2055 388.70445,649.23007 C 388.30021,650.25464 387.71192,651.05032 386.93961,651.61711 C 386.16728,652.1839 385.3243,652.46728 384.41066,652.46728 C 382.94489,652.46728 381.76011,651.84382 380.85633,650.5969 C 379.95254,649.34997 379.50066,647.55369 379.50066,645.20806 L 379.50066,645.20806 z M 381.32466,645.20806 C 381.32466,646.98691 381.61715,648.31886 382.20214,649.20391 C 382.78713,650.08897 383.52331,650.5315 384.41066,650.5315 C 385.29143,650.5315 386.02432,650.08679 386.60932,649.19737 C 387.1943,648.30795 387.4868,646.95203 387.48681,645.12959 C 387.4868,643.4118 387.19266,642.11038 386.60439,641.22531 C 386.0161,640.34025 385.28486,639.89773 384.41066,639.89771 C 383.52331,639.89773 382.78713,640.33808 382.20214,641.21877 C 381.61715,642.09947 381.32466,643.42924 381.32466,645.20806 L 381.32466,645.20806 z"
       style="font-size:23.25705528px;font-style:normal;font-variant:normal;font-weight:normal;font-stretch:normal;line-height:100%;text-anchor:start;fill:#000000;fill-opacity:1;stroke:none;stroke-width:1px;stroke-linecap:butt;stroke-linejoin:miter;stroke-opacity:1;font-family:Sans" />
    <path
       id="text1774"
       d="M 173.53015,705.73402 L 173.53015,685.29201 L 174.88154,685.29201 L 174.88154,687.21236 C 175.20016,686.46094 175.55997,685.89735 175.961,685.52162 C 176.36202,685.14592 176.84819,684.95806 177.41952,684.95803 C 178.16662,684.95806 178.82583,685.28276 179.39716,685.93213 C 179.96847,686.58154 180.39971,687.49764 180.69087,688.68047 C 180.98201,689.8633 181.12759,691.15976 181.1276,692.56987 C 181.12759,694.08203 180.96691,695.44344 180.64554,696.65409 C 180.32417,697.86475 179.85723,698.79246 179.24472,699.43721 C 178.63219,700.08197 177.98808,700.40434 177.31239,700.40434 C 176.81798,700.40434 176.37438,700.22808 175.98161,699.87556 C 175.58882,699.52302 175.26608,699.07773 175.01338,698.53965 L 175.01338,705.73402 L 173.53015,705.73402 z M 174.8733,692.76468 C 174.8733,694.66649 175.10127,696.07196 175.55723,696.98111 C 176.01319,697.89027 176.56528,698.34484 177.21351,698.34484 C 177.87272,698.34484 178.43717,697.87402 178.90687,696.93241 C 179.37655,695.99079 179.6114,694.53198 179.61141,692.55595 C 179.6114,690.67272 179.38204,689.26261 178.92335,688.32561 C 178.46463,687.38864 177.91667,686.92015 177.27943,686.92014 C 176.64768,686.92015 176.08872,687.41879 175.60255,688.41607 C 175.11638,689.41336 174.8733,690.8629 174.8733,692.76468 L 174.8733,692.76468 z M 188.50256,705.73402 L 188.50256,698.49791 C 188.27183,699.04525 187.94909,699.49983 187.53434,699.86164 C 187.11958,700.22344 186.67872,700.40434 186.21179,700.40434 C 185.17352,700.40434 184.27947,699.70393 183.52961,698.30309 C 182.77975,696.90226 182.40483,694.98191 182.40483,692.54204 C 182.40483,691.05771 182.55727,689.72646 182.86216,688.54827 C 183.16704,687.37008 183.60926,686.47717 184.18882,685.86952 C 184.76838,685.26188 185.40424,684.95806 186.09642,684.95803 C 187.17863,684.95806 188.03012,685.72805 188.65089,687.26803 L 188.65089,685.29201 L 189.98579,685.29201 L 189.98579,705.73402 L 188.50256,705.73402 z M 183.92926,692.63945 C 183.92926,694.54124 184.16548,695.96759 184.63791,696.91849 C 185.11035,697.86938 185.67618,698.34484 186.33539,698.34484 C 186.96713,698.34484 187.51099,697.89258 187.96695,696.98806 C 188.42289,696.08356 188.65088,694.70823 188.65089,692.86209 C 188.65088,690.89536 188.41054,689.41568 187.92986,688.42302 C 187.44919,687.43039 186.88473,686.93407 186.23651,686.93406 C 185.59377,686.93407 185.04854,687.39561 184.60083,688.31865 C 184.15311,689.24173 183.92926,690.682 183.92926,692.63945 L 183.92926,692.63945 z M 192.30128,700.07037 L 192.30128,685.29201 L 193.63619,685.29201 L 193.63619,687.53242 C 193.97678,686.48412 194.29128,685.79299 194.57969,685.459 C 194.8681,685.12504 195.18535,684.95806 195.53144,684.95803 C 196.03134,684.95806 196.53948,685.22709 197.05587,685.76514 L 196.54497,688.08904 C 196.1824,687.72726 195.81983,687.54635 195.45727,687.54634 C 195.13316,687.54635 194.842,687.71103 194.58382,688.04035 C 194.32562,688.36969 194.14159,688.82658 194.03172,689.41103 C 193.86691,690.30164 193.78451,691.27572 193.78452,692.33331 L 193.78452,700.07037 L 192.30128,700.07037 z M 197.36075,695.65913 L 198.82751,695.26949 C 198.90991,696.26214 199.13926,697.02285 199.51557,697.55165 C 199.89186,698.08044 200.41786,698.34484 201.09356,698.34484 C 201.77474,698.34484 202.28014,698.11059 202.60975,697.6421 C 202.93935,697.17361 203.10416,696.62394 203.10416,695.9931 C 203.10416,695.4272 202.95858,694.98191 202.66743,694.65721 C 202.46417,694.43456 201.95877,694.15161 201.15124,693.80835 C 200.06353,693.3445 199.30956,692.94328 198.88931,692.60466 C 198.46905,692.26606 198.15044,691.79756 197.93345,691.19918 C 197.71645,690.60082 197.60796,689.93983 197.60796,689.21621 C 197.60796,688.55754 197.69723,687.94759 197.87577,687.38631 C 198.0543,686.82507 198.29739,686.35889 198.60502,685.9878 C 198.83574,685.70022 199.15025,685.4567 199.54852,685.25722 C 199.94679,685.05779 200.37391,684.95806 200.82987,684.95803 C 201.51655,684.95806 202.11945,685.12504 202.63859,685.459 C 203.15772,685.79299 203.54089,686.24525 203.78809,686.81577 C 204.03529,687.38633 204.20559,688.14937 204.29898,689.10489 L 202.84872,689.43886 C 202.78279,688.67815 202.59189,688.08442 202.27603,687.65767 C 201.96015,687.23093 201.5138,687.01756 200.93699,687.01755 C 200.2558,687.01756 199.76963,687.20773 199.47848,687.58809 C 199.18733,687.96846 199.04175,688.41375 199.04175,688.92398 C 199.04175,689.24869 199.10217,689.54092 199.22303,689.80066 C 199.34389,690.06972 199.53341,690.29236 199.79161,690.46862 C 199.93993,690.56139 200.37666,690.77477 201.1018,691.10873 C 202.15104,691.58187 202.88304,691.96918 203.29781,692.27068 C 203.71255,692.5722 204.03804,693.01054 204.27427,693.58571 C 204.51048,694.16088 204.62859,694.87522 204.6286,695.7287 C 204.62859,696.56364 204.48438,697.34988 204.19598,698.08739 C 203.90757,698.82492 203.49145,699.39546 202.9476,699.79901 C 202.40374,700.20257 201.78848,700.40434 201.1018,700.40434 C 199.96465,700.40434 199.09806,700.00543 198.50202,699.2076 C 197.90598,698.40978 197.52556,697.22696 197.36075,695.65913 L 197.36075,695.65913 z"
       style="font-size:21.93053055px;font-style:normal;font-variant:normal;font-weight:normal;font-stretch:normal;line-height:100%;text-anchor:start;fill:#000000;fill-opacity:1;stroke:none;stroke-width:1px;stroke-linecap:butt;stroke-linejoin:miter;stroke-opacity:1;font-family:Sans" />
    <path
       id="text1778"
       d="M 269.11035,713.16968 L 269.50153,715.02254 C 268.73924,715.14685 268.0572,715.209 267.45541,715.209 C 266.47246,715.209 265.71019,715.08858 265.16857,714.84775 C 264.62695,714.60691 264.2458,714.29034 264.02516,713.89801 C 263.80448,713.50568 263.69416,712.68025 263.69417,711.4217 L 263.69417,704.30159 L 261.70822,704.30159 L 261.70822,702.67014 L 263.69417,702.67014 L 263.69417,699.60535 L 266.38721,698.3468 L 266.38721,702.67014 L 269.11035,702.67014 L 269.11035,704.30159 L 266.38721,704.30159 L 266.38721,711.53823 C 266.38721,712.13643 266.43485,712.52099 266.53014,712.6919 C 266.62543,712.86282 266.78089,712.99877 266.99654,713.09977 C 267.21217,713.20076 267.5206,713.25126 267.9218,713.25126 C 268.22269,713.25126 268.61888,713.22406 269.11035,713.16968 L 269.11035,713.16968 z M 282.21454,715.04585 L 282.21454,713.22795 C 280.97082,714.62634 279.28076,715.32552 277.14439,715.32552 C 276.20155,715.32552 275.32143,715.18569 274.50399,714.90601 C 273.68654,714.62634 273.07972,714.27479 272.68355,713.8514 C 272.28736,713.428 272.00903,712.90943 271.84854,712.29569 C 271.73821,711.88395 271.68305,711.23137 271.68305,710.33795 L 271.68305,702.67014 L 274.39115,702.67014 L 274.39115,709.53388 C 274.39115,710.62929 274.44631,711.36732 274.55664,711.74799 C 274.72715,712.29958 275.08824,712.73269 275.63988,713.04732 C 276.19153,713.36196 276.87357,713.51928 277.68601,713.51928 C 278.49842,713.51928 279.26071,713.35807 279.97284,713.03567 C 280.68496,712.71327 281.18897,712.27433 281.48487,711.71885 C 281.78074,711.1634 281.92868,710.35738 281.92869,709.30082 L 281.92869,702.67014 L 284.63679,702.67014 L 284.63679,715.04585 L 282.21454,715.04585 z M 293.3328,715.04585 L 287.25462,702.67014 L 290.11316,702.67014 L 293.54343,710.08158 C 293.91453,710.88178 294.25555,711.71304 294.56648,712.57537 C 294.8072,711.92279 295.1432,711.13815 295.5745,710.22142 L 299.12512,702.67014 L 301.90844,702.67014 L 295.86035,715.04585 L 293.3328,715.04585 z"
       style="font-size:27.11744499px;font-style:normal;font-variant:normal;font-weight:normal;font-stretch:normal;line-height:100%;text-anchor:start;fill:#000000;fill-opacity:1;stroke:none;stroke-width:1px;stroke-linecap:butt;stroke-linejoin:miter;stroke-opacity:1;font-family:Sans" />
    <path
       id="text1782"
       d="M 359.73397,709.07938 L 357.05591,689.85009 L 358.58859,689.85009 L 359.98118,700.94948 L 360.50031,705.0778 C 360.52228,704.8726 360.67335,703.55082 360.95352,701.11244 L 362.34611,689.85009 L 363.87054,689.85009 L 365.18073,701.0038 L 365.61747,704.67946 L 366.12011,700.96758 L 367.61983,689.85009 L 369.06186,689.85009 L 366.32612,709.07938 L 364.78521,709.07938 L 363.39261,697.56353 L 363.05477,694.28623 L 361.28313,709.07938 L 359.73397,709.07938 z M 369.32555,709.07938 L 372.52274,699.08449 L 369.56451,689.85009 L 371.41856,689.85009 L 372.76171,694.35866 C 373.0144,695.21572 373.21766,695.93395 373.37148,696.51334 C 373.61319,695.71667 373.83567,695.0105 374.03894,694.39487 L 375.51392,689.85009 L 377.28556,689.85009 L 374.26142,698.90342 L 377.51629,709.07938 L 375.69521,709.07938 L 373.89885,703.10417 L 373.42092,701.49268 L 371.12191,709.07938 L 369.32555,709.07938 z M 378.6864,716.48501 L 378.52159,713.42498 C 378.84571,713.61811 379.12862,713.71469 379.37033,713.71469 C 379.69994,713.71469 379.96362,713.59398 380.16139,713.35255 C 380.35915,713.11113 380.52121,712.77314 380.64756,712.33858 C 380.74095,712.01265 380.89202,711.2039 381.10077,709.91228 C 381.12823,709.73122 381.17218,709.46565 381.23261,709.11559 L 377.91182,689.85009 L 379.51042,689.85009 L 381.3315,700.9857 C 381.56771,702.39802 381.77921,703.88277 381.96599,705.43994 C 382.13628,703.94312 382.33954,702.48252 382.57576,701.05812 L 384.44629,689.85009 L 385.92952,689.85009 L 382.60048,709.4053 C 382.24341,711.51774 381.96599,712.97231 381.76823,713.769 C 381.50453,714.84333 381.2024,715.63096 380.8618,716.13193 C 380.52121,716.63287 380.11469,716.88334 379.64226,716.88336 C 379.3566,716.88334 379.03798,716.75057 378.6864,716.48501 L 378.6864,716.48501 z M 386.40745,709.07938 L 386.40745,706.4358 L 391.97781,692.38502 C 391.34606,692.45747 390.78848,692.49368 390.30506,692.49367 L 386.73706,692.49367 L 386.73706,689.85009 L 393.88954,689.85009 L 393.88954,692.00479 L 389.15143,704.20868 L 388.23677,706.4358 C 388.90147,706.32717 389.52498,706.27284 390.10729,706.27284 L 394.15322,706.27284 L 394.15322,709.07938 L 386.40745,709.07938 z"
       style="font-size:25.01599121px;font-style:normal;font-variant:normal;font-weight:normal;font-stretch:normal;line-height:100%;text-anchor:start;fill:#000000;fill-opacity:1;stroke:none;stroke-width:1px;stroke-linecap:butt;stroke-linejoin:miter;stroke-opacity:1;font-family:Sans" />
    <path
       id="path2547"
       d="M 158.84277,588.10749 L 158.84277,594.52995 L 176.27557,594.35869 L 176.15617,587.93622 L 176.03676,594.27306 L 159.08157,594.44432 L 158.84277,588.10749 z"
       style="fill:none;fill-opacity:0.75;fill-rule:evenodd;stroke:#000000;stroke-width:0.398182px;stroke-linecap:butt;stroke-linejoin:miter;stroke-opacity:1" />
    <path
       id="path2553"
       d="M 276.28797,750.71354 L 276.28797,766.45835 L 276.28797,757.8241 L 268.66952,757.8241 L 283.39852,757.8241 L 275.78007,757.8241 L 276.28797,750.71354 z"
       style="fill:none;fill-opacity:0.75;fill-rule:evenodd;stroke:#000000;stroke-width:1px;stroke-linecap:butt;stroke-linejoin:miter;stroke-opacity:1" />
    <path
       sodipodi:nodetypes="ccccccccccc"
       id="path2555"
       d="M 346.88562,742.0793 L 347.39352,738.52402 L 351.96459,738.52402 L 351.45669,742.0793 L 351.45669,738.52402 L 366.1857,739.03191 L 366.6936,744.11089 L 373.29625,743.60299 L 373.29625,734.46085 L 367.70939,732.93715 L 366.1857,738.52402"
       style="fill:none;fill-opacity:0.75;fill-rule:evenodd;stroke:#000000;stroke-width:1px;stroke-linecap:butt;stroke-linejoin:miter;stroke-opacity:1" />
    <path
       sodipodi:nodetypes="cccccccc"
       id="path2557"
       d="M 193.42669,731.92537 C 193.59599,733.27976 193.06585,733.7682 193.23515,735.12259 C 190.2633,736.02805 189.15051,736.71896 186.29523,740.52208 C 185.00879,742.37464 183.92218,747.59114 186.36604,747.54524 C 191.27571,747.54524 196.18538,747.54524 201.09505,747.54524 C 203.05562,747.51757 201.21987,742.70217 200.47463,741.0758 C 198.7554,736.56867 194.37157,735.39999 193.97619,735.16417 C 193.6376,733.64049 193.76529,733.44906 193.42669,731.92537 z"
       style="fill:none;fill-opacity:0.75;fill-rule:evenodd;stroke:#000000;stroke-width:1px;stroke-linecap:butt;stroke-linejoin:miter;stroke-opacity:1" />
    <path
       id="path2561"
       d="M 192.55066,747.70134 L 192.55066,750.24082 L 192.55066,747.70134 z"
       style="fill:none;fill-opacity:0.75;fill-rule:evenodd;stroke:#000000;stroke-width:4.33316994px;stroke-linecap:butt;stroke-linejoin:miter;stroke-opacity:1" />
    <path
       sodipodi:nodetypes="ccccccccc"
       id="rect2804"
       d="M 166.34736,519.31465 C 160.48814,520.52562 151.09594,528.61002 150.53618,534.53805 C 151.42245,537.85795 152.42648,539.69536 155.90359,540.72412 C 156.66739,539.42635 157.43118,538.12857 158.19498,536.83079 C 157.55251,536.07965 156.91003,535.3285 156.26756,534.57735 C 157.22691,532.1828 163.13241,525.74505 165.97601,526.04596 C 166.74045,526.94015 167.50489,527.83435 168.26934,528.72854 C 169.30731,527.56623 171.28742,526.94301 172.3254,525.7807 C 171.11782,522.72686 168.96812,520.21212 166.34736,519.31465 z"
       style="fill:#23d423;fill-opacity:1;stroke:#000000;stroke-opacity:1" />
    <path
       sodipodi:nodetypes="ccccccccc"
       id="path3586"
       d="M 392.79201,523.40891 C 387.44639,520.75414 375.32778,520.22113 371.45857,523.48951 C 370.24298,526.01377 369.9774,527.70781 372.14002,530.3421 C 373.49554,529.99744 374.85105,529.65277 376.20657,529.30811 C 376.13117,528.48139 376.05578,527.65467 375.98038,526.82795 C 378.1247,525.93178 386.52717,525.44613 388.60804,527.273 C 388.69749,528.25694 388.78695,529.24088 388.8764,530.22481 C 390.37105,530.1208 392.30122,530.88831 393.79587,530.7843 C 394.60294,528.23544 394.35149,525.46839 392.79201,523.40891 z"
       style="fill:#ec1f29;fill-opacity:1;stroke:#000000;stroke-opacity:1" />
    <path
       id="path4346"
       d="M 388.2,535.31914 C 388.2,538.13906 385.62025,540.42768 382.44163,540.42768 C 379.26301,540.42768 376.68327,538.13906 376.68327,535.31914 C 376.68327,532.49923 379.26301,530.2106 382.44163,530.2106 C 385.59761,530.2106 388.16434,532.46234 388.19964,535.262"
       style="fill:#ffffff;fill-opacity:0;stroke:#e9100e;stroke-width:0.05597053;stroke-opacity:1" />
    <path
       id="rect6626"
       d="M 381.98614,533.54351 L 382.89753,533.54351 L 382.89753,537.60136 L 381.98614,537.60136 L 381.98614,533.54351 z"
       style="fill:#ff0100;fill-opacity:1;stroke:#e9100e;stroke-opacity:1" />
  </g>
</svg>
