<?xml version="1.0" encoding="utf-8"?>
<!-- Generator: Adobe Illustrator 13.0.1, SVG Export Plug-In . SVG Version: 6.00 Build 14948)  -->
<!DOCTYPE svg PUBLIC "-//W3C//DTD SVG 1.1//EN" "http://www.w3.org/Graphics/SVG/1.1/DTD/svg11.dtd" [
	<!ENTITY ns_flows "http://ns.adobe.com/Flows/1.0/">
	<!ENTITY ns_extend "http://ns.adobe.com/Extensibility/1.0/">
	<!ENTITY ns_ai "http://ns.adobe.com/AdobeIllustrator/10.0/">
	<!ENTITY ns_graphs "http://ns.adobe.com/Graphs/1.0/">
]>
<svg version="1.1"
	 id="svg10438" xmlns:x="&ns_extend;" xmlns:i="&ns_ai;" xmlns:graph="&ns_graphs;" sodipodi:docname="handbag.svg" xmlns:cc="http://web.resource.org/cc/" xmlns:svg="http://www.w3.org/2000/svg" xmlns:rdf="http://www.w3.org/1999/02/22-rdf-syntax-ns#" xmlns:inkscape="http://www.inkscape.org/namespaces/inkscape" sodipodi:docbase="/home/theresa/pictures" xmlns:sodipodi="http://inkscape.sourceforge.net/DTD/sodipodi-0.dtd" xmlns:dc="http://purl.org/dc/elements/1.1/" sodipodi:version="0.32" inkscape:version="0.43"
	 xmlns="http://www.w3.org/2000/svg" xmlns:xlink="http://www.w3.org/1999/xlink" xmlns:a="http://ns.adobe.com/AdobeSVGViewerExtensions/3.0/"
	 x="0px" y="0px" width="410.186px" height="328.81px" viewBox="151.822 366.241 410.186 328.81"
	 enable-background="new 151.822 366.241 410.186 328.81" xml:space="preserve">
<sodipodi:namedview  id="base" inkscape:pageopacity="0.0" inkscape:window-x="170" inkscape:current-layer="layer1" inkscape:window-y="25" pagecolor="#ffffff" inkscape:document-units="px" inkscape:cy="953.45225" borderopacity="1.0" bordercolor="#666666" inkscape:cx="122.33969" inkscape:window-height="543" inkscape:window-width="791" inkscape:pageshadow="2" inkscape:zoom="0.98994949">
	</sodipodi:namedview>
<g id="layer1" inkscape:groupmode="layer" inkscape:label="Layer 1">
	<path id="path2393" sodipodi:nodetypes="cssssssssssssssssssssssssssssccsssssssssssc" fill="#FF1E17" d="M225.758,693.007
		c-0.358-0.289-13.217-0.802-28.576-1.141c-25.505-0.561-28.432-0.816-33.766-2.94c-7.395-2.942-10.682-7.829-11.501-17.095
		c-0.656-7.416,2.243-25.521,6.219-38.831c3.328-11.144,9.221-35.651,14.87-61.849c2.568-11.905,5.507-24.663,6.531-28.347
		c1.024-3.686,3.916-15.86,6.425-27.055c2.51-11.194,5.207-21.306,5.994-22.47c0.786-1.163,3.004-2.591,4.929-3.173
		c4.053-1.224,8.262-0.821,34.37,3.292c10.538,1.659,20.068,3.018,21.178,3.018c2.655,0,3.61-2.197,7.621-17.531
		c13.077-49.992,20.829-74.242,26.891-84.122c8.098-13.196,19.988-21.785,36.115-26.089c6.169-1.646,11.291-2.141,22.173-2.141
		c15.911,0,24.862,1.832,34.382,7.036c5.691,3.111,9.176,4.814,16.869,10.162c3.858,2.681,9.493,7.723,14.457,11.887
		c7.827,6.562,16.779,20.664,25.012,39.394c18.806,42.782,26.4,58.157,29.48,59.697c1.376,0.687,5.827,0.263,14.222-1.356
		c18.05-3.48,35.931-5.997,37.422-5.266c2.449,1.198,3.943,6.111,9.168,30.168c2.872,13.218,12.058,50.241,20.412,82.273
		c13.187,50.548,15.213,59.627,15.341,68.726c0.16,11.575-1.319,14.504-9.101,18.021c-5.775,2.609-72.249,4.102-197.66,4.436
		c-58.688,0.156-111.684,0.63-117.767,1.053S226.115,693.295,225.758,693.007z M430.387,499.671c3.45-1.101,3.578-1.413,3.578-8.752
		c0-10.44-4.624-34.552-8.487-44.256c-4.233-10.634-12.183-25.365-21.671-40.156c-5.766-8.988-9.28-13.151-13.727-16.251
		c-7.521-5.245-19.584-9.962-29.432-11.51c-20.839-3.275-48.479,7.742-59.091,23.555c-8.732,13.012-22.085,49.226-25.179,68.291
		c-0.788,4.849-2.251,12.342-3.253,16.651c-2.365,10.167-2.298,12.025,0.455,12.619c1.252,0.27,20.083,0.528,41.844,0.573
		c21.762,0.046,39.915,0.373,40.341,0.726C357.114,502.282,426.545,500.896,430.387,499.671z"/>
	
		<path id="path8684" sodipodi:nodetypes="ccssssssc" opacity="0.173" stroke="#000000" stroke-width="0.9041" enable-background="new    " d="
		M262.831,497.534l7.666,0.972c0,0,6.132-45.905,17.784-72.138c7.146-16.09,14.104-29.389,26.062-36.433
		c11.958-7.043,22.689-10.201,25.143-10.687c2.453-0.486-5.826-5.101-11.652-3.643c-5.825,1.457-26.982,12.63-29.128,16.759
		c-2.147,4.129-20.543,60.722-22.69,67.037C273.869,465.716,262.831,498.02,262.831,497.534z"/>
	<path id="path2391" opacity="0.5405" fill="#B90000" enable-background="new    " d="M206.988,695.051
		c-15.464-4.537-36.605,4.297-48.142-7.778c-7.972-13.795,21.797-21.849,16.935-36.959c-0.93-24.819,4.591-49.645,9.542-74.133
		c5.659-25.068,12.579-50.064,13.893-75.595c23.076-2.111,37.599,17.079,50.327,29.098c9.151,17.137-10.028,33.099-4.392,50.393
		c2.228,16.309-15.514,37.494,7.25,48.671c13.379,7.882,30.766,11.924,46.852,7.075c15.614-3.938,31.384-8.394,48.05-7.565
		c21.712,1.592,41.818-4.911,56.354-17.553c13.229-9.509,36.23-10.246,42.093-25.451c3.077-7.801-0.149-13.585,11.135-16.269
		c8.441-12.898,11.692-27.221,15.06-41.417c5.207-14.763,24.116-27.044,43.202-28.164c11.772,9.442,5.917,27.634,12.232,40.428
		c9.666,41.482,21.941,82.555,31.234,124.095c-9.421,11.15-5.409,19.871,2.452,13.262c-0.751,16.215-23.67,16.188-38.905,15.809
		C417.135,694.816,312.025,693.755,206.988,695.051z M193.673,688.586c29.146-1.711,58.378,3.145,87.458-0.128
		c48.802-0.388,97.747,1.847,146.418-1.519c8.251,2.146,29.311-3.882,9.825-4.765c-37.384,0.143-74.903-5.031-112.082,0.009
		c-20.795,0.707-41.464-1.758-62.35-1.261c-22.936-2.013-45.672,0.437-67.857,5.109c-8.05-0.584-33.628,6.494-11.921,3.76
		C186.681,689.472,190.188,689.083,193.673,688.586z M495.854,685.431c-4.48-6.559-34.983-4.536-26.112-0.748
		C478.425,685.133,487.15,686.412,495.854,685.431z"/>
	<path id="path3329" sodipodi:nodetypes="ccccccccccccccccc" opacity="0.2324" fill="#FFFFFF" enable-background="new    " d="
		M269.882,505.063c7.987,2.362,16.85,2.346,25.229,3.383c22.83-0.713,45.699-0.43,68.549-0.556
		c10.597,0.04,58.603,1.484,72.678,1.241c7.996-1.187,21.756-4.58,21.594,5.634c0.092,6.329-6.095,11.277-7.803,17.335
		c-4.11,6.235-9.603,12.942-18.415,15.309c-4.947,4.788-5.154,11.786-11.543,15.875c-6.58,4.578-8.048,11.518-9.08,18.03
		c-3.14,10.071-16.487,14.647-23.861,22.504c-6.234,6.431-81.876,20.853-93.205,17.087c-5.831-3.423,8.139-18.631,0.049-19.068
		c-34.237,4.939-13.665-8.582-20.912-12.479c-8.773-6.357,11.815-23.875,7.131-31.727c-4.415-9.105-7.123-18.688-12.747-27.436
		c-2.275-5.603-7.927-11.474-5.671-17.509C263.766,509.688,267.299,507.652,269.882,505.063z"/>
	<path id="path5111" opacity="0.8595" fill-opacity="0.4086" enable-background="new    " d="M510.347,492.172
		c-18.067,1.664-35.755,9.059-54.086,5.541c-16.487,0.351-31.091,8.328-47.82,7.333c-39.788,1.454-79.649-0.732-119.413-0.906
		c-24.788-2.838-49.681-3.993-74.053-8.902c-6.708-0.861-18.632-3.938-21.452,3.247c-5.603,27.676-13.095,55.142-19.016,82.799
		c-5.933,27.438-14.192,54.624-18.6,82.228c-1.396,8.364-0.326,20.32,12.2,22.678c13.028,2.914,26.906,0.132,40.136,2.04
		c48.212,1.248,96.422-1.42,144.648-0.705c64.908-0.383,130.046,0.503,194.746-3.75c10.899-3.305,7.805-14.46,6.714-21.526
		c-8.082-44.572-22.987-88.177-32.173-132.62c-2.975-12.597-5.882-25.208-9.431-37.714l-1.291,0.139L510.347,492.172z
		 M505.305,503.801c9.073,41.048,20.107,81.805,30.586,122.642c3.671,15.297,7.417,30.659,9.346,46.057
		c0.295,5.04-8.774,2.243-12.601,3.493c-89.554,5.156-179.42,1.436-269.088,3.929c-26.95,0.783-53.891-0.628-80.802-0.851
		c-6.267,0.303-16.246,0.055-16.51-6.604c-1.398-11.654,3.595-23.154,5.427-34.694c10.231-44.462,21.416-88.906,30.969-133.392
		c-1.297-5.691,6.901-0.639,10.238-1.012c36.097,5.635,72.634,9.38,109.478,9.33c31.742,0.773,63.652,1.3,95.324,0.187
		c15.283-1.266,29.415-8.85,45.056-6.249c14.31,0.556,28.057-3.083,41.846-5.541C504.818,501.997,505.06,502.899,505.305,503.801z"
		/>
	<path id="path4223" opacity="0.8595" fill="#FFFFFF" enable-background="new    " d="M510.717,494.206
		c-16.101,1.651-31.85,7.224-48.188,6.571c-11.59-4.246-35.854,6.579-44.772,5.863c-41.94,2.543-84.09-0.6-126.103-0.161
		c-9.091-0.896-33.087-3.665-41.316-3.93c-14.281-1.272-28.353-4.358-42.496-6.25c-4.708-0.51-11.986-1.296-11.915,3.898
		c-3.213,17.357-8.572,34.731-12.118,52.185c-7.78,35.029-16.649,69.944-24.603,104.916c-0.599,8.087-3.595,18.297,3.985,24.772
		c11.619,6.119,26.792,1.752,39.852,3.897c42.878,1.847,85.796-1.086,128.706-0.418c71.066-0.396,142.492,0.433,213.29-3.448
		c9.778-0.864,8.172-11.004,7.198-16.524c-6.13-38.422-19.201-75.972-27.571-114.13
		C520.079,532.371,515.912,513.123,510.717,494.206z M506.612,498.652c1.674,6.364,3.271,12.746,4.797,19.134
		c9.692,47.06,24.813,93.296,34.281,140.384c-0.2,6.146,5.004,13.459,0.202,19.005c-62.588,4.688-126.104,3.437-189.093,3.93
		c-54.447-0.858-109.008,2.715-163.353,0c-8.882-0.641-19.97,1.829-27.327-3.027c-6.461-8.898-0.509-19.763,0.325-29.314
		c10.845-46.713,22.155-93.375,32.776-140.125c1.763-2.73-0.989-10.258,5.409-8.859c26.617,5.028,54.004,7.474,81.167,9.986
		c40.125,0.829,80.36,2.446,120.531,1.289c17.008,1.361,32.11-5.943,48.516-7.312c17.031,2.918,34.093-2.08,50.547-4.896
		L506.612,498.652z"/>
	
		<radialGradient id="path5115_1_" cx="-613.8804" cy="-73.2661" r="67.0278" gradientTransform="matrix(0.2224 0.0492 0.3462 -1.4549 345.3982 539.0094)" gradientUnits="userSpaceOnUse">
		<stop  offset="0" style="stop-color:#FFFFFF"/>
		<stop  offset="1" style="stop-color:#FFFFFF"/>
		<a:midPointStop  offset="0" style="stop-color:#FFFFFF"/>
		<a:midPointStop  offset="0.5" style="stop-color:#FFFFFF"/>
		<a:midPointStop  offset="1" style="stop-color:#FFFFFF"/>
	</radialGradient>
	<path id="path5115" sodipodi:nodetypes="cssssssssssc" opacity="0.8378" fill="url(#path5115_1_)" enable-background="new    " d="
		M192.011,475.949c0.043,7.092,2.904,22.19,2.93,34.502c0.029,13.533,0.032,25.617-2.417,39.913
		c-2.169,12.661-5.869,17.06-7.799,28.328c-1.813,10.586-6.483,20.653-8.504,32.448c-1.819,10.619-8.224,23.112-11.364,31.935
		c-3.84,10.793-0.649,22.234,1.13,27.809c5.271,16.513,16.376-5.467,23.892-19.067c5.338-9.659,6.388-19.772,6.37-28.585
		c-0.02-9.408,8.843-41.36,8.822-51.503c-0.027-12.955-4.105-62.587-5.506-71.064C197.65,489.09,201.233,487.256,192.011,475.949z"
		/>
	
		<linearGradient id="path6918_1_" gradientUnits="userSpaceOnUse" x1="287.0034" y1="112.3657" x2="309.1818" y2="103.4467" gradientTransform="matrix(1.0158 0 0 -0.8046 -17.0652 518.9858)">
		<stop  offset="0" style="stop-color:#FFFFFE"/>
		<stop  offset="1" style="stop-color:#FFFFFE"/>
		<a:midPointStop  offset="0" style="stop-color:#FFFFFE"/>
		<a:midPointStop  offset="0.5" style="stop-color:#FFFFFE"/>
		<a:midPointStop  offset="1" style="stop-color:#FFFFFE"/>
	</linearGradient>
	<path id="path6918" sodipodi:nodetypes="csssscsssc" fill="url(#path6918_1_)" d="M325.457,370.733
		c0,0-23.404,11.363-29.444,17.344s-18.875,38.874-20.762,43.658c-1.888,4.784-8.306,39.472-11.325,46.35
		c-3.02,6.877-6.418,13.157-7.55,17.941c-0.63,2.662,7.172,0,7.172,0s9.814-34.388,10.947-41.565
		c1.132-7.177,12.835-37.977,16.232-46.947c3.398-8.971,10.57-23.025,18.498-26.016
		C317.152,378.508,325.834,371.032,325.457,370.733z"/>
	
		<radialGradient id="path7801_1_" cx="271.7329" cy="230.8779" r="37.3507" gradientTransform="matrix(0.8754 -0.1799 -0.9739 -1.4021 404.3568 806.2115)" gradientUnits="userSpaceOnUse">
		<stop  offset="0" style="stop-color:#FFFFFF"/>
		<stop  offset="1" style="stop-color:#FFFFFF"/>
		<a:midPointStop  offset="0" style="stop-color:#FFFFFF"/>
		<a:midPointStop  offset="0.5" style="stop-color:#FFFFFF"/>
		<a:midPointStop  offset="1" style="stop-color:#FFFFFF"/>
	</radialGradient>
	<path id="path7801" sodipodi:nodetypes="cssssssc" fill="url(#path7801_1_)" d="M365.781,377.682c0,0,16.911,7.557,22.982,11.335
		c6.071,3.778,19.749,23.126,24.717,31.601c5.638,9.618,20.38,46.372,20.812,58.737c0.435,12.366,4.446,18.291,5.638,15.801
		c1.193-2.49-0.867-18.892-3.035-25.418c-2.168-6.527-21.439-54.402-29.486-64.92C390.063,382.148,365.347,376.652,365.781,377.682z
		"/>
	
		<path id="path9559" sodipodi:nodetypes="csssccsssc" opacity="0.2432" stroke="#000000" stroke-width="0.9041" enable-background="new    " d="
		M343.666,366.69c0,0,25.583,2.748,28.619,3.778c3.035,1.031,37.724,25.075,40.761,28.51c3.034,3.435,35.99,69.386,40.761,82.095
		c4.769,12.709-3.035,16.488-3.035,16.488l-8.673-0.343c0,0-5.637-35.037-7.807-40.876c-2.167-5.839-22.981-55.303-30.786-61.485
		c-7.807-6.183-36.858-21.984-45.097-23.014C350.17,370.812,344.533,367.034,343.666,366.69z"/>
</g>
</svg>
