<?xml version="1.0" encoding="UTF-8" standalone="no"?>
<!-- Creator: Corel DESIGNER -->
<svg
   xmlns:dc="http://purl.org/dc/elements/1.1/"
   xmlns:cc="http://web.resource.org/cc/"
   xmlns:rdf="http://www.w3.org/1999/02/22-rdf-syntax-ns#"
   xmlns:svg="http://www.w3.org/2000/svg"
   xmlns="http://www.w3.org/2000/svg"
   xmlns:xlink="http://www.w3.org/1999/xlink"
   xmlns:sodipodi="http://sodipodi.sourceforge.net/DTD/sodipodi-0.dtd"
   xmlns:inkscape="http://www.inkscape.org/namespaces/inkscape"
   xml:space="preserve"
   width="484.31833"
   height="406.83044"
   style="shape-rendering:geometricPrecision; text-rendering:geometricPrecision; image-rendering:optimizeQuality; fill-rule:evenodd; clip-rule:evenodd"
   viewBox="0 0 210 297"
   id="svg5662"
   sodipodi:version="0.32"
   inkscape:version="0.45.1"
   sodipodi:docname="Adressbuch.svg"
   sodipodi:docbase="/home/wipp/bilder/svg"
   inkscape:output_extension="org.inkscape.output.svg.inkscape"
   version="1.0"><metadata
   id="metadata5713"><rdf:RDF><cc:Work
       rdf:about=""><dc:format>image/svg+xml</dc:format><dc:type
         rdf:resource="http://purl.org/dc/dcmitype/StillImage" /></cc:Work></rdf:RDF></metadata><sodipodi:namedview
   inkscape:cy="311.38703"
   inkscape:cx="799.31888"
   inkscape:zoom="0.70867103"
   inkscape:window-height="954"
   inkscape:window-width="1280"
   inkscape:pageshadow="2"
   inkscape:pageopacity="0.0"
   guidetolerance="10.0"
   gridtolerance="10.0"
   objecttolerance="10.0"
   borderopacity="1.0"
   bordercolor="#666666"
   pagecolor="#ffffff"
   id="base"
   inkscape:window-x="0"
   inkscape:window-y="0"
   inkscape:current-layer="_550452072" />
 <defs
   id="defs5664">
  <style
   type="text/css"
   id="style5666">
   
    .str0 {stroke:#131516;stroke-width:0.0762}
    .str1 {stroke:#7E8387;stroke-width:0.7056}
    .str3 {stroke:#7E8387;stroke-width:0.706}
    .str2 {stroke:#005399;stroke-width:1.0583}
    .fil5 {fill:none}
    .fil8 {fill:#00873B}
    .fil0 {fill:#131516}
    .fil7 {fill:#2A1970}
    .fil13 {fill:#3FAD38}
    .fil2 {fill:#42494C}
    .fil11 {fill:#6C488D}
    .fil1 {fill:#C0C1C5}
    .fil10 {fill:#E4719D}
    .fil9 {fill:#E77470}
    .fil6 {fill:#F1E900}
    .fil3 {fill:white}
    .fil12 {fill:#FFD75F}
    .fil4 {fill:url(#id0)}
   
  </style>
  <linearGradient
   id="id0"
   gradientUnits="userSpaceOnUse"
   x1="50.531101"
   y1="101.722"
   x2="143.506"
   y2="101.722">
   <stop
   offset="0"
   style="stop-color:white"
   id="stop5669" />
   <stop
   offset="0"
   style="stop-color:white"
   id="stop5671" />
   <stop
   offset="0.368627"
   style="stop-color:white"
   id="stop5673" />
   <stop
   offset="0.529412"
   style="stop-color:#A0A3A7"
   id="stop5675" />
   <stop
   offset="0.678431"
   style="stop-color:white"
   id="stop5677" />
   <stop
   offset="1"
   style="stop-color:white"
   id="stop5679" />
  </linearGradient>
 <linearGradient
   inkscape:collect="always"
   xlink:href="#id0"
   id="linearGradient5771"
   gradientUnits="userSpaceOnUse"
   x1="50.531101"
   y1="101.722"
   x2="143.506"
   y2="101.722"
   gradientTransform="matrix(2.5867341,0,0,2.5867341,-116.49723,-75.061718)" /></defs>
 <g
   id="Ebene_x0020_1"
   transform="translate(-28.832149,-49.244578)">
  <metadata
   id="CorelCorpID_0Corel-Layer" />
  <g
   id="_550452072">
   
   
   
   
   
   
   
   
   
   
   
   
   
   
   
   
   
   
   
   
   
   
   
   
   
   
   
   
  <rect
   style="fill:#131516;fill-rule:evenodd;stroke:#131516;stroke-width:0.19710915"
   id="rect5715"
   class="fil0 str0"
   x="-27.874161"
   y="99.428513"
   width="335.80722"
   height="246.71751" /><path
   style="fill:#c0c1c5;fill-rule:evenodd;stroke:#7e8387;stroke-width:1.8251996"
   id="path5717"
   class="fil1 str1"
   d="M -34.744534,93.571358 C -34.744534,174.83336 -34.744534,256.09535 -34.744534,337.35708 C 15.490876,337.35708 65.772066,337.35708 116.05301,337.35708 C 116.05301,337.35708 116.05301,337.35708 116.05301,337.35708 C 125.17849,332.15568 134.30397,337.67655 143.47498,332.47514 C 152.91992,337.67655 162.36461,332.15568 171.85507,337.35708 C 171.85507,337.35708 171.85507,337.35708 171.85507,337.35708 C 214.92704,337.35708 257.99901,337.35708 301.07098,337.35708 C 301.07098,256.09535 301.07098,174.83336 301.07098,93.571358 C 189.14791,93.571358 77.224576,93.571358 -34.744024,93.571358 L -34.744534,93.571358 z " /><path
   style="fill:#42494c;fill-rule:evenodd"
   id="path5719"
   class="fil2"
   d="M -14.166554,94.529484 C -14.166554,172.18687 -14.166554,249.84425 -14.166554,327.54741 C -14.166554,327.54741 -14.166554,327.54741 -14.166554,327.54741 C -14.166554,327.54741 74.441246,326.58903 115.04936,328.50554 C 155.70299,330.46732 143.47498,333.43327 143.47498,333.43327 C 143.47498,333.43327 129.96938,330.46732 165.96922,328.50554 C 201.96906,326.58903 292.26496,327.54741 292.26496,327.54741 C 292.26496,327.54741 292.26496,327.54741 292.26496,327.54741 C 292.26496,249.89003 292.26496,172.23265 292.26496,94.529484 C 292.26496,94.529484 292.26496,94.529484 292.26496,94.529484 C 292.26496,94.529484 202.28852,92.841382 166.42552,94.210281 C 130.56252,95.624708 142.92763,100.09614 142.92763,100.09614 C 142.92763,100.09614 156.2506,95.624708 115.50566,94.210281 C 74.760716,92.841382 -14.166554,94.529484 -14.166554,94.529484 L -14.166554,94.529484 z " /><path
   style="fill:#ffffff;fill-rule:evenodd;stroke:#7e8387;stroke-width:1.8251996"
   id="path5721"
   class="fil3 str1"
   d="M -19.505054,83.122763 C -19.368214,163.92846 -19.231374,244.73415 -19.048754,325.58537 C -19.048754,325.58537 -19.048754,325.58537 -19.048754,325.58537 C -19.048754,325.58537 75.399376,324.62725 116.05301,326.58903 C 156.66137,328.50554 143.47498,333.43327 143.47498,333.43327 C 143.47498,333.43327 130.97329,328.50554 166.97313,326.58903 C 202.92718,324.62725 287.38302,325.58537 287.38302,325.58537 C 287.38302,325.58537 287.38302,325.58537 287.38302,325.58537 C 287.24618,244.77968 287.10908,163.97399 286.92672,83.122763 C 286.92672,83.122763 286.92672,83.122763 286.92672,83.122763 C 286.92672,83.122763 202.83587,81.388875 166.97313,82.80356 C 131.06435,84.172201 143.47498,88.64363 143.47498,88.64363 C 143.47498,88.64363 156.79821,84.172201 116.05301,82.80356 C 75.308066,81.388875 -19.505054,83.122763 -19.505054,83.122763 L -19.505054,83.122763 z " /><path
   style="fill:#42494c;fill-rule:evenodd"
   id="path5723"
   class="fil2"
   d="M -7.3225741,87.685503 C -7.1857341,164.70422 -7.0488941,241.72268 -6.8662741,318.74139 C -6.8662741,318.74139 -6.8662741,318.74139 -6.8662741,318.74139 C -6.8662741,318.74139 66.775726,318.74139 105.28521,320.70317 C 105.28521,320.70317 105.28521,320.70317 105.28521,320.70317 C 118.01505,324.26226 130.74514,327.86661 143.47498,331.47123 C 156.52428,327.9124 169.57383,324.30779 182.62313,320.70317 C 182.62313,320.70317 182.62313,320.70317 182.62313,320.70317 C 216.70646,318.74139 283.45894,318.74139 283.45894,318.74139 C 283.45894,318.74139 283.45894,318.74139 283.45894,318.74139 C 283.45894,241.72268 283.45894,164.70422 283.45894,87.685503 C 283.45894,87.685503 283.45894,87.685503 283.45894,87.685503 C 283.45894,87.685503 215.97648,84.491663 182.07552,88.369953 C 148.17456,92.202717 142.92763,102.05818 142.92763,102.05818 C 142.92763,102.05818 142.42554,92.202717 103.73369,88.369953 C 65.087616,84.491663 -7.3225741,87.685503 -7.3225741,87.685503 L -7.3225741,87.685503 z " /><path
   style="fill:#ffffff;fill-rule:evenodd;stroke:#7e8387;stroke-width:1.8251996"
   id="path5725"
   class="fil3 str1"
   d="M -11.246644,70.392927 C -11.109544,151.19837 -10.972714,232.00406 -10.790344,312.85528 C -10.790344,312.85528 -10.790344,312.85528 -10.790344,312.85528 C -10.790344,312.85528 66.775726,311.89715 105.28521,313.85919 C 105.28521,313.85919 105.28521,313.85919 105.28521,313.85919 C 118.01505,319.69952 130.74514,325.58537 143.47498,331.47123 C 156.52428,325.6309 169.57383,319.74505 182.62313,313.85919 C 182.62313,313.85919 182.62313,313.85919 182.62313,313.85919 C 216.70646,311.89715 279.53512,312.85528 279.53512,312.85528 C 279.53512,312.85528 279.53512,312.85528 279.53512,312.85528 C 279.39829,232.04985 279.26145,151.24415 279.12435,70.392927 C 279.12435,70.392927 279.12435,70.392927 279.12435,70.392927 C 279.12435,70.392927 216.52409,68.202739 182.62313,72.035503 C 148.72217,75.868009 143.47498,85.723466 143.47498,85.723466 C 143.47498,85.723466 142.97315,75.868009 104.2813,72.035503 C 65.635236,68.202739 -11.246644,70.392927 -11.246644,70.392927 L -11.246644,70.392927 z " /><path
   style="fill:#42494c;fill-rule:evenodd"
   id="path5727"
   class="fil2"
   d="M 3.4454859,72.035503 C 3.4454859,150.33155 3.4454859,228.6276 3.4454859,306.96942 C 3.4454859,306.96942 3.4454859,306.96942 3.4454859,306.96942 C 3.4454859,306.96942 67.916476,305.78315 104.2813,312.85528 C 140.64613,319.9732 143.47498,330.46732 143.47498,330.46732 C 143.47498,330.46732 150.04528,319.9732 181.61922,312.85528 C 213.19315,305.78315 275.61105,307.97334 275.61105,307.97334 C 275.61105,307.97334 275.61105,307.97334 275.61105,307.97334 C 275.47421,229.35783 275.33737,150.69654 275.20053,72.035503 C 275.20053,72.035503 275.20053,72.035503 275.20053,72.035503 C 275.20053,72.035503 210.18194,68.841663 178.47116,72.674168 C 146.71461,76.506932 142.88184,97.175972 142.88184,97.175972 C 142.88184,97.175972 141.33058,76.506932 105.14837,72.674168 C 68.920386,68.841663 3.4454859,72.035503 3.4454859,72.035503 L 3.4454859,72.035503 z " /><path
   style="fill:#ffffff;fill-rule:evenodd;stroke:#7e8387;stroke-width:1.8251996"
   id="path5729"
   class="fil3 str1"
   d="M -2.4403641,59.62487 C -2.3035241,140.43057 -2.1666941,221.236 -2.0298541,302.08748 C -2.0298541,302.08748 -2.0298541,302.08748 -2.0298541,302.08748 C -2.0298541,302.08748 68.920386,299.89729 105.28521,306.96942 C 141.65004,314.08734 143.47498,330.46732 143.47498,330.46732 C 143.47498,330.46732 151.0492,314.08734 182.62313,306.96942 C 214.19707,299.89729 269.77098,302.08748 269.77098,302.08748 C 269.77098,302.08748 269.77098,302.08748 269.77098,302.08748 C 269.63414,221.28179 269.49704,140.4761 269.36021,59.62487 C 269.36021,59.62487 269.36021,59.62487 269.36021,59.62487 C 269.36021,59.62487 210.77508,57.434683 179.01852,61.267447 C 147.26196,65.100211 143.47498,85.723466 143.47498,85.723466 C 143.47498,85.723466 141.92371,65.100211 105.69573,61.267447 C 69.513526,57.434683 -2.4403641,59.62487 -2.4403641,59.62487 L -2.4403641,59.62487 z " /><path
   style="fill:#42494c;fill-rule:evenodd"
   id="path5731"
   class="fil2"
   d="M 21.696186,58.940421 C 21.787506,138.65115 21.924336,218.40715 22.061176,298.16341 C 22.061176,298.16341 22.061176,298.16341 22.061176,298.16341 C 22.061176,298.16341 70.562956,296.56636 104.09894,304.82502 C 137.58912,313.12921 143.79444,327.54741 143.79444,327.54741 C 143.79444,327.54741 147.35327,313.12921 176.41781,304.82502 C 205.43657,296.56636 261.92309,298.16341 261.92309,298.16341 C 261.92309,298.16341 261.92309,298.16341 261.92309,298.16341 C 261.83177,218.45294 261.69494,138.69668 261.5581,58.940421 C 261.5581,58.940421 261.5581,58.940421 261.5581,58.940421 C 261.5581,58.940421 205.66472,57.799671 176.41781,61.495597 C 147.17091,65.191264 143.79444,93.66267 143.79444,93.66267 C 143.79444,93.66267 142.24318,65.191264 108.88957,61.495597 C 75.581996,57.799671 21.696186,58.940421 21.696186,58.940421 L 21.696186,58.940421 z " /><path
   style="fill:url(#linearGradient5771);fill-rule:evenodd;stroke:#7e8387;stroke-width:1.8251996"
   id="path5733"
   class="fil4 str1"
   d="M 14.213286,50.773325 C 14.213286,131.53324 14.213286,212.29315 14.213286,293.05331 C 14.213286,293.05331 14.213286,293.05331 14.213286,293.05331 C 14.213286,293.05331 73.072346,290.58945 105.28521,299.16732 C 137.49781,307.6994 143.47498,327.54741 143.47498,327.54741 C 143.47498,327.54741 146.89697,307.6994 174.77524,299.16732 C 202.69903,290.58945 254.44018,291.68441 254.44018,291.68441 C 254.44018,291.68441 254.44018,291.68441 254.44018,291.68441 C 254.53149,211.38055 254.6228,131.07694 254.71386,50.773325 C 254.71386,50.773325 254.71386,50.773325 254.71386,50.773325 C 254.71386,50.773325 202.88166,48.583137 174.77524,52.461428 C 146.71461,56.294192 143.47498,85.723466 143.47498,85.723466 C 143.47498,85.723466 141.92371,56.294192 109.89348,52.461428 C 77.863246,48.583137 14.213286,50.773325 14.213286,50.773325 L 14.213286,50.773325 z " /><line
   style="fill:none;fill-rule:evenodd;stroke:#7e8387;stroke-width:1.8251996"
   id="line5735"
   class="fil5 str1"
   x1="143.47472"
   y1="82.803566"
   x2="143.47472"
   y2="327.54791" /><path
   style="fill:none;fill-rule:evenodd;stroke:#005399;stroke-width:2.73754072"
   id="path5737"
   class="fil5 str2"
   d="M 38.715086,119.98942 C 68.099096,120.17204 89.908886,121.44963 105.28521,123.9135 C 120.5247,126.37736 128.55496,129.89066 129.74123,134.68155" /><path
   style="fill:none;fill-rule:evenodd;stroke:#005399;stroke-width:2.73754072"
   id="path5739"
   class="fil5 str2"
   d="M 38.669566,143.21364 C 68.053306,143.39626 89.863096,144.67385 105.23943,147.13771 C 120.47891,149.6471 128.50943,153.1604 129.69571,157.90577" /><path
   style="fill:none;fill-rule:evenodd;stroke:#005399;stroke-width:2.73754072"
   id="path5741"
   class="fil5 str2"
   d="M 38.669566,170.27062 C 68.053306,170.45324 89.863096,171.73057 105.23943,174.19443 C 120.47891,176.6583 128.50943,180.1716 129.69571,184.96249" /><path
   style="fill:none;fill-rule:evenodd;stroke:#005399;stroke-width:2.73754072"
   id="path5743"
   class="fil5 str2"
   d="M 38.669566,195.9142 C 68.053306,196.09657 89.863096,197.37416 105.23943,199.83802 C 120.47891,202.30189 128.50943,205.86071 129.69571,210.60608" /><path
   style="fill:none;fill-rule:evenodd;stroke:#005399;stroke-width:2.73754072"
   id="path5745"
   class="fil5 str2"
   d="M 38.669566,257.60005 C 68.053306,257.78268 89.863096,259.06026 105.23943,261.52413 C 120.47891,263.98799 128.50943,267.50129 129.69571,272.29218" /><path
   style="fill:none;fill-rule:evenodd;stroke:#005399;stroke-width:2.73754072"
   id="path5747"
   class="fil5 str2"
   d="M 246.22756,120.99333 C 216.84381,121.13017 195.03402,122.40776 179.6577,124.87162 C 164.41821,127.38101 156.3877,130.89431 155.20142,135.63968" /><path
   style="fill:none;fill-rule:evenodd;stroke:#005399;stroke-width:2.73754072"
   id="path5749"
   class="fil5 str2"
   d="M 246.22756,146.40774 C 216.84381,146.5901 195.03402,147.86769 179.6577,150.33155 C 164.41821,152.84094 156.3877,156.35425 155.20142,161.09961" /><path
   style="fill:none;fill-rule:evenodd;stroke:#005399;stroke-width:2.73754072"
   id="path5751"
   class="fil5 str2"
   d="M 246.22756,168.9475 C 216.84381,169.12987 195.03402,170.40745 179.6577,172.87132 C 164.41821,175.33518 156.3877,178.84848 155.20142,183.63938" /><path
   style="fill:none;fill-rule:evenodd;stroke:#005399;stroke-width:2.73754072"
   id="path5753"
   class="fil5 str2"
   d="M 246.22756,194.40614 C 216.84381,194.5885 195.03402,195.86609 179.6577,198.32996 C 164.41821,200.79382 156.3877,204.30712 155.20142,209.09801" /><rect
   style="fill:#f1e900;fill-rule:evenodd;stroke:#7e8387;stroke-width:1.82623422"
   id="rect5755"
   class="fil6 str3"
   x="255.59151"
   y="153.27681"
   width="21.992413"
   height="22.517521" /><rect
   style="fill:#2a1970;fill-rule:evenodd;stroke:#7e8387;stroke-width:1.82623422"
   id="rect5757"
   class="fil7 str3"
   x="270.08496"
   y="182.54337"
   width="21.992413"
   height="22.517521" /><rect
   style="fill:#00873b;fill-rule:evenodd;stroke:#7e8387;stroke-width:1.82623422"
   id="rect5759"
   class="fil8 str3"
   x="280.86652"
   y="210.4413"
   width="21.992413"
   height="22.517521" /><rect
   style="fill:#e77470;fill-rule:evenodd;stroke:#7e8387;stroke-width:1.82623422"
   id="rect5761"
   class="fil9 str3"
   x="-42.039124"
   y="81.805336"
   width="21.992413"
   height="22.517521" /><rect
   style="fill:#e4719d;fill-rule:evenodd;stroke:#7e8387;stroke-width:1.82623422"
   id="rect5763"
   class="fil10 str3"
   x="-34.206497"
   y="93.554543"
   width="21.992413"
   height="22.517521" /><rect
   style="fill:#6c488d;fill-rule:evenodd;stroke:#7e8387;stroke-width:1.82623422"
   id="rect5765"
   class="fil11 str3"
   x="-25.393478"
   y="108.24175"
   width="21.992413"
   height="22.517521" /><rect
   style="fill:#ffd75f;fill-rule:evenodd;stroke:#7e8387;stroke-width:1.82623422"
   id="rect5767"
   class="fil12 str3"
   x="-8.7504435"
   y="121.94913"
   width="21.992413"
   height="22.517521" /><rect
   style="fill:#3fad38;fill-rule:evenodd;stroke:#7e8387;stroke-width:1.82623422"
   id="rect5769"
   class="fil13 str3"
   x="287.711"
   y="239.18509"
   width="21.992413"
   height="22.517521" /></g>
 </g>
</svg>