<?xml version="1.0" encoding="UTF-8" standalone="no"?>
<!-- Created with Inkscape (http://www.inkscape.org/) -->
<svg
   xmlns:dc="http://purl.org/dc/elements/1.1/"
   xmlns:cc="http://creativecommons.org/ns#"
   xmlns:rdf="http://www.w3.org/1999/02/22-rdf-syntax-ns#"
   xmlns:svg="http://www.w3.org/2000/svg"
   xmlns="http://www.w3.org/2000/svg"
   xmlns:xlink="http://www.w3.org/1999/xlink"
   xmlns:sodipodi="http://sodipodi.sourceforge.net/DTD/sodipodi-0.dtd"
   xmlns:inkscape="http://www.inkscape.org/namespaces/inkscape"
   width="587.06195"
   height="181.90434"
   id="svg2"
   sodipodi:version="0.32"
   inkscape:version="0.45+devel"
   sodipodi:docname="lunettes.svg"
   inkscape:output_extension="org.inkscape.output.svg.inkscape"
   version="1.0">
  <sodipodi:namedview
     id="base"
     pagecolor="#ffffff"
     bordercolor="#666666"
     borderopacity="1.0"
     inkscape:pageopacity="0.0"
     inkscape:pageshadow="2"
     inkscape:zoom="1.1634207"
     inkscape:cx="293.53098"
     inkscape:cy="90.952171"
     inkscape:document-units="px"
     inkscape:current-layer="layer2"
     showgrid="false"
     inkscape:window-width="1024"
     inkscape:window-height="713"
     inkscape:window-x="0"
     inkscape:window-y="0" />
  <defs
     id="defs4">
    <linearGradient
       inkscape:collect="always"
       id="linearGradient2923">
      <stop
         style="stop-color:#f2f2f2;stop-opacity:1;"
         offset="0"
         id="stop2926" />
      <stop
         style="stop-color:#f2f2f2;stop-opacity:0;"
         offset="1"
         id="stop2928" />
    </linearGradient>
    <linearGradient
       id="linearGradient2929">
      <stop
         style="stop-color:#aaa7a7;stop-opacity:1;"
         offset="0"
         id="stop2931" />
      <stop
         style="stop-color:#9f9f9f;stop-opacity:0;"
         offset="1"
         id="stop2933" />
    </linearGradient>
    <linearGradient
       id="linearGradient2921">
      <stop
         id="stop2923"
         offset="0"
         style="stop-color:#e02a82;stop-opacity:1;" />
      <stop
         id="stop2925"
         offset="1"
         style="stop-color:#e44189;stop-opacity:0.3037037;" />
    </linearGradient>
    <filter
       id="filter2917"
       inkscape:collect="always">
      <feGaussianBlur
         id="feGaussianBlur2919"
         stdDeviation="0.94766101"
         inkscape:collect="always" />
    </filter>
    <linearGradient
       gradientUnits="userSpaceOnUse"
       y2="568.95776"
       x2="412.89536"
       y1="528.25238"
       x1="214.31902"
       id="linearGradient2938"
       xlink:href="#linearGradient2921"
       inkscape:collect="always" />
    <filter
       inkscape:collect="always"
       id="filter2923">
      <feGaussianBlur
         inkscape:collect="always"
         stdDeviation="1.7799999"
         id="feGaussianBlur2925" />
    </filter>
    <linearGradient
       inkscape:collect="always"
       xlink:href="#linearGradient2929"
       id="linearGradient2935"
       x1="596.92938"
       y1="489.93823"
       x2="601.1452"
       y2="509.22403"
       gradientUnits="userSpaceOnUse" />
    <linearGradient
       inkscape:collect="always"
       xlink:href="#linearGradient2923"
       id="linearGradient2930"
       x1="309.5"
       y1="502.29694"
       x2="506.92859"
       y2="514.37457"
       gradientUnits="userSpaceOnUse" />
    <filter
       inkscape:collect="always"
       id="filter2936"
       x="-0.013181027"
       width="1.0263621"
       y="-0.13392775"
       height="1.2678555">
      <feGaussianBlur
         inkscape:collect="always"
         stdDeviation="0.94934778"
         id="feGaussianBlur2938" />
    </filter>
    <filter
       inkscape:collect="always"
       id="filter2942">
      <feGaussianBlur
         inkscape:collect="always"
         stdDeviation="1.1824431"
         id="feGaussianBlur2944" />
    </filter>
    <filter
       inkscape:collect="always"
       id="filter2952"
       x="-0.033085339"
       width="1.0661707"
       y="-0.32170212"
       height="1.6434042">
      <feGaussianBlur
         inkscape:collect="always"
         stdDeviation="1.3500001"
         id="feGaussianBlur2954" />
    </filter>
    <linearGradient
       inkscape:collect="always"
       xlink:href="#linearGradient2921"
       id="linearGradient2934"
       x1="176.47443"
       y1="530.36182"
       x2="144.44673"
       y2="563.69684"
       gradientUnits="userSpaceOnUse" />
    <linearGradient
       inkscape:collect="always"
       xlink:href="#linearGradient2921"
       id="linearGradient2950"
       gradientUnits="userSpaceOnUse"
       x1="176.47443"
       y1="530.36182"
       x2="144.44673"
       y2="563.69684" />
    <linearGradient
       inkscape:collect="always"
       xlink:href="#linearGradient2921"
       id="linearGradient2952"
       gradientUnits="userSpaceOnUse"
       x1="214.31902"
       y1="528.25238"
       x2="412.89536"
       y2="568.95776" />
    <linearGradient
       inkscape:collect="always"
       xlink:href="#linearGradient2929"
       id="linearGradient2954"
       gradientUnits="userSpaceOnUse"
       x1="596.92938"
       y1="489.93823"
       x2="601.1452"
       y2="509.22403" />
    <linearGradient
       inkscape:collect="always"
       xlink:href="#linearGradient2923"
       id="linearGradient2956"
       gradientUnits="userSpaceOnUse"
       x1="309.5"
       y1="502.29694"
       x2="506.92859"
       y2="514.37457" />
  </defs>
  <metadata
     id="metadata7">
    <rdf:RDF>
      <cc:Work
         rdf:about="">
        <dc:format>image/svg+xml</dc:format>
        <dc:type
           rdf:resource="http://purl.org/dc/dcmitype/StillImage" />
      </cc:Work>
    </rdf:RDF>
  </metadata>
  <g
     style="display:inline"
     inkscape:label="formes"
     id="layer2"
     inkscape:groupmode="layer"
     transform="translate(-115.24385,-448.76351)">
    <g
       id="g2938">
      <path
         style="fill:#8b8585;fill-opacity:1;fill-rule:evenodd;stroke:none;stroke-width:1px;stroke-linecap:butt;stroke-linejoin:miter;stroke-opacity:1;display:inline;filter:url(#filter2917)"
         d="M 215,536.6479 C 215,536.6479 214.28571,528.07647 225,525.21932 C 235.71429,522.36218 250.71429,520.21932 250.71429,520.21932 C 250.71429,520.21932 239.20649,524.88756 238.61475,531.94376 C 237.88859,540.60303 242.14286,547.36218 248.57143,552.36218 C 255,557.36218 262.85714,560.21932 264.28571,571.6479 C 265.71429,583.07647 266.42857,591.6479 261.42857,595.21932 C 256.42857,598.79075 251.42857,592.36218 247.14286,583.79075 C 242.85714,575.21932 216.42857,541.6479 215,536.6479 z"
         id="path2915"
         sodipodi:nodetypes="cscsssssc" />
      <path
         sodipodi:nodetypes="cssscssc"
         id="path2924"
         d="M 123.9529,491.96212 C 123.9529,491.96212 126.26907,522.0321 134.35029,544.25545 C 142.43151,566.47881 160.55298,599.63001 166.67517,604.86461 C 170.80973,608.39975 192.16358,617.63945 197.9899,614.96613 C 202.5805,612.85981 200.0102,592.74278 200.0102,592.74278 C 200.0102,592.74278 183.82673,529.21521 178.77597,524.16444 C 173.72521,519.11368 136.37059,490.71737 131.31983,491.72752 C 126.26907,492.73767 120.92244,494.99257 123.9529,491.96212 z"
         style="fill:url(#linearGradient2950);fill-opacity:1;fill-rule:evenodd;stroke:#656262;stroke-width:0.40000001;stroke-linecap:butt;stroke-linejoin:miter;stroke-miterlimit:4;stroke-dasharray:none;stroke-opacity:1" />
      <path
         id="path2936"
         d="M 197.73736,590.21739 C 197.73736,590.21739 200.76782,603.85445 200.26274,608.90522 C 199.75767,613.95598 196.22213,615.72375 196.22213,615.72375 L 199.75767,615.47121 C 199.75767,615.47121 203.04066,612.69329 202.53559,607.38999 C 202.03051,602.08669 202.28305,588.9547 201.02036,589.45978 C 199.75767,589.96486 197.48482,591.48008 197.48482,591.48008 L 197.73736,590.21739 z"
         style="fill:#808080;fill-rule:evenodd;stroke:none;stroke-width:1px;stroke-linecap:butt;stroke-linejoin:miter;stroke-opacity:1" />
      <path
         sodipodi:nodetypes="cssssscsssssssssssssssssssssssssscsssssc"
         id="path2331"
         d="M 693.57143,455.21932 C 693.57143,455.21932 706.7752,453.04673 700.71429,470.21932 C 696.42857,482.36218 691.60715,485.57646 686.42858,488.07646 C 676.00052,493.1107 675.71429,483.07647 657.14286,485.93361 C 638.57143,488.79075 601.18315,495.17464 595.71429,497.36218 C 577.85714,504.50504 566.57003,512.93501 559.28572,520.21932 C 550.71429,528.79075 444.28572,556.64789 444.28572,556.64789 C 444.28572,556.64789 432.85714,521.64789 424.28571,515.93361 C 415.71428,510.21932 410.02942,509.48701 383.57143,508.79075 C 356.42857,508.07647 323.57143,508.07647 297.14286,511.64789 C 270.71429,515.21932 254.08292,518.18708 246.42857,522.36218 C 238.57143,526.6479 232.14286,537.36218 235.71429,541.64789 C 239.28572,545.93361 255.71429,553.07647 258.57143,559.50504 C 261.42857,565.93361 267.14286,576.6479 265.71429,584.50504 C 264.28572,592.36218 260,598.07647 255.71429,598.07647 C 251.42857,598.07647 249.28572,595.93361 246.42857,593.07647 C 243.57143,590.21932 217.85714,553.79075 212.14286,550.21932 C 206.42857,546.64789 205.11823,542.36218 196.42857,542.36218 C 192.85714,542.36218 194.28572,549.50504 200,576.6479 C 205.71429,603.79075 202.14286,593.07647 198.57143,592.36218 C 195,591.6479 192.14285,579.50504 187.14286,564.50504 C 184.39494,556.2613 180,537.36218 171.42857,525.93361 C 162.75066,514.36307 146.42857,502.36218 132.14286,496.64789 C 116.37884,490.34227 120,490.93361 117.14286,483.79075 C 114.28571,476.64789 113.57143,474.50504 122.85714,470.93361 C 132.14286,467.36218 180.71429,461.64789 199.28572,461.64789 C 217.85714,461.64789 457.85714,448.07647 464.28572,448.79075 C 470.71429,449.50504 474.37191,450.2963 472.85714,455.21932 C 470,464.50504 447.85714,477.36218 436.42857,478.07647 C 425,478.79075 370,468.79075 339.28572,470.21932 C 308.57143,471.64789 256.42857,472.36218 243.57143,475.93361 C 232.28367,479.0691 222.14286,488.79075 207.85714,496.64789 C 198.89607,501.57648 189.28572,503.79075 187.14286,503.79075 C 185,503.79075 187.85714,506.64789 187.85714,506.64789 C 187.85714,506.64789 200.71429,512.36218 209.28572,510.93361 C 217.85714,509.50504 254.28572,498.07647 273.57143,495.93361 C 292.85714,493.79075 350.71429,489.50504 372.85714,489.50504 C 395,489.50504 526.42857,480.93361 537.85714,481.64789 C 549.28572,482.36218 622.85715,475.93361 644.28572,469.50504 C 665.71429,463.07647 692.14286,455.21932 693.57143,455.21932 z"
         style="opacity:1;fill:#666666;fill-rule:evenodd;stroke:none;stroke-width:1px;stroke-linecap:butt;stroke-linejoin:miter;stroke-opacity:1;display:inline" />
      <path
         style="fill:url(#linearGradient2952);fill-opacity:1;fill-rule:evenodd;stroke:#999393;stroke-width:0.40000001;stroke-linecap:butt;stroke-linejoin:miter;stroke-miterlimit:4;stroke-dasharray:none;stroke-opacity:1;display:inline"
         d="M 240.71429,524.50504 C 240.71429,524.50504 240.71429,520.21932 267.14286,515.21932 C 293.57143,510.21932 331.58598,506.83455 368.03571,507.54076 C 404.63349,508.24983 413.07357,507.78434 420.71429,513.07647 C 431.5416,520.57571 442.85714,552.36218 444.28571,557.36218 C 445.71429,562.36218 452.14286,585.21932 446.42857,593.07647 C 440.71428,600.93361 404.33647,616.59714 372.48949,622.90315 C 339.98511,629.33934 296.95002,634.16408 282.85715,626.64789 C 272.14286,620.93361 257.85714,599.50504 250.71429,580.21932 C 243.57143,560.93361 230.71429,538.79075 240.71429,524.50504 z"
         id="path2326"
         sodipodi:nodetypes="cssssssssc" />
      <path
         sodipodi:nodetypes="cssssssssc"
         id="path2911"
         d="M 236.42857,516.64789 C 236.42857,516.64789 220.78802,526.65404 203.57142,525.21932 C 186.42857,523.79076 182.40233,529.20751 177.14285,521.6479 C 164.83061,503.95111 166.25738,511.28248 182.14285,536.6479 C 189.26589,548.02174 195.74875,579.84849 198.57143,587.00504 C 201.41311,594.20975 199.03745,575.96249 195.71429,561.6479 C 191.0266,541.45561 192.14285,546.29075 195,539.86218 C 197.85715,533.43361 205.35714,540.57647 212.5,549.1479 C 219.64285,557.71933 218.92857,549.86218 213.21428,541.29076 C 207.5,532.71933 233.57142,518.79075 236.42857,516.64789 z"
         style="fill:#b3b3b3;fill-rule:evenodd;stroke:none;stroke-width:1px;stroke-linecap:butt;stroke-linejoin:miter;stroke-opacity:1;display:inline;filter:url(#filter2923)" />
      <path
         sodipodi:nodetypes="cccccsscc"
         id="path2927"
         d="M 698.57143,468.79075 L 602.85715,488.07647 C 602.85715,488.07647 562.50368,497.08883 545.53756,505.08265 C 531.53204,512.00328 482.68348,548.67336 542.14285,527.36218 L 553.57143,523.07647 C 553.57143,523.07647 578.57144,502.36218 595.00001,497.36218 C 611.42858,492.36218 636.42857,488.07647 641.42857,488.07647 C 646.42857,488.07647 667.85715,483.79075 675.71429,486.64789 C 686.54811,495.78387 700.42928,482.52923 698.57143,468.79075 z"
         style="fill:url(#linearGradient2954);fill-opacity:1;fill-rule:evenodd;stroke:none;stroke-width:1px;stroke-linecap:butt;stroke-linejoin:miter;stroke-opacity:1" />
      <path
         sodipodi:nodetypes="cscssssc"
         id="path2344"
         d="M 280,503.07647 C 310.71429,500.93361 358.57143,499.50504 383.57143,499.50504 C 408.57143,499.50504 452.85714,497.36218 452.85714,497.36218 C 452.85714,497.36218 442.14286,518.07647 437.14286,513.79075 C 432.14286,509.50504 433.57143,507.36218 426.42857,506.64789 C 419.28572,505.93361 367.85714,504.50504 357.85714,504.50504 C 347.85714,504.50504 318.57143,505.21933 306.42857,505.21932 C 295.5021,505.21932 280.71429,505.21932 280,503.07647 z"
         style="fill:url(#linearGradient2956);fill-opacity:1;fill-rule:evenodd;stroke:none;stroke-width:1px;stroke-linecap:butt;stroke-linejoin:miter;stroke-opacity:1;filter:url(#filter2936)" />
      <path
         sodipodi:nodetypes="csssscsssssssc"
         id="path2940"
         d="M 132.14285,471.29075 C 132.14285,471.29075 182.85714,503.07647 192.85714,506.64789 C 202.85714,510.21932 213.57143,510.93361 235,505.21932 C 256.42857,499.50504 282.14286,495.93361 302.85714,494.50504 C 323.57143,493.07647 384.28572,488.79075 408.57143,488.07647 C 432.85714,487.36218 543.57143,482.36218 543.57143,482.36218 C 543.57143,482.36218 512.85714,488.79075 499.28572,491.64789 C 485.71429,494.50504 455.71429,500.21932 443.57143,500.21932 C 431.42857,500.21932 374.28572,499.50504 354.28572,499.50504 C 334.28572,499.50504 267.14286,503.79075 247.85714,508.79075 C 228.57143,513.79075 220,516.64789 204.28572,515.93361 C 188.57143,515.21932 165.71429,504.50504 157.14286,501.64789 C 148.57143,498.79075 115.71429,484.50504 116.42857,477.36218 C 117.14286,470.21932 132.85714,472.00504 132.14285,471.29075 z"
         style="fill:#000000;fill-opacity:1;fill-rule:evenodd;stroke:none;stroke-width:1px;stroke-linecap:butt;stroke-linejoin:miter;stroke-opacity:1;filter:url(#filter2942)" />
      <path
         sodipodi:nodetypes="csc"
         id="path2946"
         d="M 134.64285,470.57646 C 134.64285,470.57646 158.57143,466.64789 182.14286,465.21932 C 205.71429,463.79075 467.13204,450.83207 467.13204,450.83207"
         style="fill:#666666;fill-rule:evenodd;stroke:#cccccc;stroke-width:2.29999995;stroke-linecap:butt;stroke-linejoin:round;stroke-miterlimit:4;stroke-dasharray:none;stroke-opacity:1;filter:url(#filter2952)" />
    </g>
  </g>
</svg>
